<svg width="180" height="254" viewBox="0 0 180 254" fill="none" xmlns="http://www.w3.org/2000/svg">
<g clip-path="url(#clip0)">
<path fill-rule="evenodd" clip-rule="evenodd" d="M90 254C139.706 254 180 213.706 180 164C180 114.294 139.706 74 90 74C40.2944 74 0 114.294 0 164C0 213.706 40.2944 254 90 254Z" fill="#4F63D3" stroke="#8FA1F5" stroke-opacity="0.0969733" stroke-width="2"/>
<mask id="mask0" mask-type="alpha" maskUnits="userSpaceOnUse" x="-1" y="73" width="182" height="182">
<path fill-rule="evenodd" clip-rule="evenodd" d="M90 254C139.706 254 180 213.706 180 164C180 114.294 139.706 74 90 74C40.2944 74 0 114.294 0 164C0 213.706 40.2944 254 90 254Z" fill="white" stroke="white" stroke-width="2"/>
</mask>
<g mask="url(#mask0)">
<path fill-rule="evenodd" clip-rule="evenodd" d="M77 141.336C77 141.336 75.5727 125.395 64.9621 116.539C54.3503 107.682 50.4729 111.225 48.8411 114.964C47.2094 118.703 47.8205 124.608 48.8411 131.889C49.8612 139.171 43.9436 144.484 45.1675 150.783C46.3921 157.08 51.2896 158.458 51.6979 162C51.6979 162 69.8585 143.304 77 141.336Z" fill="#FF7033"/>
<path fill-rule="evenodd" clip-rule="evenodd" d="M63.1645 146.946C70.9707 140.072 65.4243 123.092 59.2611 118.443C53.099 113.792 50.8646 121.872 50.8646 121.873C50.9367 124.817 51.3489 128.222 51.8665 131.986C52.8938 139.466 46.9358 144.924 48.1689 151.393C48.3995 152.601 48.7587 153.634 49.1945 154.537C57.6136 157.278 63.1645 146.946 63.1645 146.946Z" fill="#262836"/>
<path fill-rule="evenodd" clip-rule="evenodd" d="M104 141.336C104 141.336 105.427 125.395 116.039 116.539C126.65 107.682 130.527 111.225 132.159 114.964C133.792 118.703 133.18 124.608 132.159 131.889C131.139 139.171 137.057 144.484 135.832 150.783C134.608 157.08 129.711 158.458 129.302 162C129.302 162 111.142 143.304 104 141.336Z" fill="#FF7033"/>
<path fill-rule="evenodd" clip-rule="evenodd" d="M116.835 146.946C109.03 140.072 114.576 123.092 120.739 118.443C126.901 113.792 129.136 121.872 129.136 121.873C129.063 124.817 128.65 128.222 128.133 131.986C127.106 139.466 133.063 144.924 131.831 151.393C131.6 152.601 131.241 153.634 130.805 154.537C122.386 157.278 116.835 146.946 116.835 146.946Z" fill="#262836"/>
<path fill-rule="evenodd" clip-rule="evenodd" d="M133.286 159.95C124.659 139.721 90.6011 140 90.6011 140C90.6011 140 54.754 139.721 47.9154 159.95C39.5478 184.701 50.7839 203 61.5448 208.251C72.3062 213.501 77.3278 217 90.6011 217C103.873 217 108.895 213.501 119.656 208.251C130.417 203 143.548 184.014 133.286 159.95Z" fill="white"/>
<path fill-rule="evenodd" clip-rule="evenodd" d="M121.442 207C121.453 206.876 122.401 195.851 113.94 190.395C105.429 184.909 97.2375 179.892 98.0567 171.509C98.8759 163.127 102.52 145.41 109.095 141.001L109.104 141C119.263 143.438 130.476 148.475 134.026 158.881C142.22 182.899 131.987 200.901 121.442 207Z" fill="#FF7033"/>
<path fill-rule="evenodd" clip-rule="evenodd" d="M59.5578 207C59.547 206.876 58.5988 195.851 67.0599 190.395C75.5698 184.909 83.762 179.892 82.9434 171.509C82.1242 163.127 78.4792 145.41 71.9049 141.001L71.8952 141C61.7368 143.438 50.5249 148.475 46.9743 158.881C38.7798 182.899 49.0139 200.901 59.5578 207Z" fill="#FF7033"/>
<path fill-rule="evenodd" clip-rule="evenodd" d="M119 175.5C119 179.09 115.866 182 112 182C108.133 182 105 179.09 105 175.5C105 171.91 108.133 169 112 169C115.866 169 119 171.91 119 175.5Z" fill="black"/>
<path fill-rule="evenodd" clip-rule="evenodd" d="M111 171.999C111 173.105 110.104 174 109 174C107.894 174 107 173.105 107 171.999C107 170.895 107.894 170 109 170C110.104 170 111 170.895 111 171.999Z" fill="#F1EDEC"/>
<path fill-rule="evenodd" clip-rule="evenodd" d="M74 175.5C74 179.09 70.8667 182 67.0006 182C63.1339 182 60 179.09 60 175.5C60 171.91 63.1339 169 67.0006 169C70.8667 169 74 171.91 74 175.5Z" fill="black"/>
<path fill-rule="evenodd" clip-rule="evenodd" d="M68 171.999C68 173.105 67.1039 174 65.9994 174C64.8961 174 64 173.105 64 171.999C64 170.895 64.8961 170 65.9994 170C67.1039 170 68 170.895 68 171.999Z" fill="#F1EDEC"/>
<path fill-rule="evenodd" clip-rule="evenodd" d="M89.4989 185.002C89.4989 185.002 81.546 184.787 80 189.072C80 189.072 80.4414 197 89.4989 197C98.5575 197 99 189.072 99 189.072C97.4524 184.787 89.4989 185.002 89.4989 185.002Z" fill="black"/>
<path fill-rule="evenodd" clip-rule="evenodd" d="M105.59 197.074C105.542 197.383 104.338 204.616 97.9139 204.616C92.0432 204.616 90.4885 198.525 90.2245 197.232C90.2267 197.224 90.2283 197.214 90.2283 197.212L90.2213 197.211C90.1984 197.101 90.1859 197.026 90.1821 197L89.4995 197.103L88.8185 197C88.8141 197.026 88.8011 197.101 88.7798 197.211L88.7722 197.212C88.7722 197.214 88.7738 197.224 88.7749 197.232C88.512 198.525 86.9568 204.616 81.0867 204.616C74.6624 204.616 73.4588 197.383 73.4109 197.074L72 197.279C72.0131 197.367 73.4278 206 81.0867 206C86.1022 206 88.4641 202.265 89.4995 199.664C90.5364 202.265 92.8978 206 97.9139 206C105.573 206 106.986 197.367 107 197.279L105.59 197.074Z" fill="black"/>
<path d="M163 99L26.8026 228.046" stroke="#FECE00" stroke-width="6"/>
</g>
<path fill-rule="evenodd" clip-rule="evenodd" d="M90 254C139.706 254 180 213.706 180 164C180 114.294 139.706 74 90 74C40.2944 74 0 114.294 0 164C0 213.706 40.2944 254 90 254Z" stroke="#FECE00" stroke-width="2" stroke-dasharray="146"/>
<path d="M44.0802 19.69L42.7702 13.76C42.7368 13.58 42.6968 13.3733 42.6502 13.14C42.6035 12.9 42.5635 12.6433 42.5302 12.37C42.4302 12.65 42.3302 12.9067 42.2302 13.14C42.1302 13.3733 42.0402 13.5833 41.9602 13.77L39.1902 19.69H44.0802ZM47.1902 25H45.7502C45.5835 25 45.4535 24.96 45.3602 24.88C45.2668 24.7933 45.2002 24.6833 45.1602 24.55L44.3802 21.05H38.5502L36.9102 24.55C36.8502 24.67 36.7568 24.7767 36.6302 24.87C36.5102 24.9567 36.3735 25 36.2202 25H34.7602L41.7802 10.67H43.6802L47.1902 25ZM57.1652 14.87L52.0852 25H50.6052L47.9852 14.87H49.4252C49.5585 14.87 49.6652 14.9067 49.7452 14.98C49.8252 15.0533 49.8785 15.14 49.9052 15.24L51.4052 21.76C51.4452 22.0133 51.4785 22.2633 51.5052 22.51C51.5318 22.7567 51.5552 23.0067 51.5752 23.26C51.6485 23.0133 51.7285 22.7667 51.8152 22.52C51.9018 22.2733 52.0018 22.02 52.1152 21.76L55.2452 15.24C55.2985 15.1333 55.3718 15.0467 55.4652 14.98C55.5585 14.9067 55.6652 14.87 55.7852 14.87H57.1652ZM61.1511 23.75C61.6378 23.75 62.0778 23.6167 62.4711 23.35C62.8711 23.0833 63.2111 22.73 63.4911 22.29C63.7778 21.8433 63.9978 21.33 64.1511 20.75C64.3044 20.17 64.3811 19.5633 64.3811 18.93C64.3811 17.9967 64.1944 17.2967 63.8211 16.83C63.4544 16.3567 62.9244 16.12 62.2311 16.12C61.7378 16.12 61.2911 16.2533 60.8911 16.52C60.4978 16.78 60.1611 17.13 59.8811 17.57C59.6011 18.01 59.3844 18.52 59.2311 19.1C59.0778 19.68 59.0011 20.2867 59.0011 20.92C59.0011 21.8533 59.1844 22.56 59.5511 23.04C59.9178 23.5133 60.4511 23.75 61.1511 23.75ZM60.9811 25.14C60.4278 25.14 59.9211 25.0467 59.4611 24.86C59.0011 24.6667 58.6044 24.39 58.2711 24.03C57.9378 23.67 57.6778 23.23 57.4911 22.71C57.3044 22.19 57.2111 21.5967 57.2111 20.93C57.2111 20.0767 57.3444 19.2733 57.6111 18.52C57.8778 17.7667 58.2444 17.11 58.7111 16.55C59.1778 15.9833 59.7244 15.5367 60.3511 15.21C60.9844 14.8833 61.6644 14.72 62.3911 14.72C62.9444 14.72 63.4511 14.8167 63.9111 15.01C64.3711 15.1967 64.7678 15.47 65.1011 15.83C65.4344 16.19 65.6944 16.63 65.8811 17.15C66.0678 17.67 66.1611 18.26 66.1611 18.92C66.1611 19.7667 66.0278 20.5667 65.7611 21.32C65.4944 22.0733 65.1278 22.7333 64.6611 23.3C64.2011 23.8667 63.6544 24.3167 63.0211 24.65C62.3878 24.9767 61.7078 25.14 60.9811 25.14ZM70.6522 14.87L69.4322 25H67.6822L68.9022 14.87H70.6522ZM71.3322 11.69C71.3322 11.8633 71.2955 12.0267 71.2222 12.18C71.1555 12.3267 71.0622 12.46 70.9422 12.58C70.8289 12.6933 70.6955 12.7833 70.5422 12.85C70.3955 12.9167 70.2422 12.95 70.0822 12.95C69.9289 12.95 69.7789 12.9167 69.6322 12.85C69.4855 12.7833 69.3555 12.6933 69.2422 12.58C69.1355 12.46 69.0489 12.3267 68.9822 12.18C68.9155 12.0267 68.8822 11.8633 68.8822 11.69C68.8822 11.5167 68.9155 11.3533 68.9822 11.2C69.0489 11.0467 69.1389 10.9133 69.2522 10.8C69.3655 10.68 69.4955 10.5867 69.6422 10.52C69.7889 10.4467 69.9389 10.41 70.0922 10.41C70.2522 10.41 70.4055 10.4433 70.5522 10.51C70.7055 10.5767 70.8389 10.67 70.9522 10.79C71.0655 10.9033 71.1555 11.04 71.2222 11.2C71.2955 11.3533 71.3322 11.5167 71.3322 11.69ZM79.3416 17.08C79.0882 16.72 78.7816 16.47 78.4216 16.33C78.0682 16.1833 77.7082 16.11 77.3416 16.11C76.8149 16.11 76.3416 16.2667 75.9216 16.58C75.5016 16.8933 75.1416 17.3 74.8416 17.8C74.5482 18.2933 74.3216 18.8467 74.1616 19.46C74.0016 20.0733 73.9216 20.6767 73.9216 21.27C73.9216 22.0633 74.0616 22.67 74.3416 23.09C74.6282 23.5033 75.0349 23.71 75.5616 23.71C75.8816 23.71 76.2049 23.61 76.5316 23.41C76.8582 23.21 77.1716 22.9333 77.4716 22.58C77.7782 22.22 78.0616 21.7967 78.3216 21.31C78.5882 20.8233 78.8182 20.29 79.0116 19.71L79.3416 17.08ZM81.9216 10.27L80.1116 25H79.1816C78.9482 25 78.7916 24.94 78.7116 24.82C78.6316 24.7 78.5916 24.5533 78.5916 24.38L78.7816 22.25C78.5282 22.69 78.2516 23.0867 77.9516 23.44C77.6516 23.7933 77.3349 24.0967 77.0016 24.35C76.6749 24.6033 76.3316 24.8 75.9716 24.94C75.6182 25.0733 75.2582 25.14 74.8916 25.14C74.0249 25.14 73.3516 24.8267 72.8716 24.2C72.3916 23.5667 72.1516 22.65 72.1516 21.45C72.1516 20.9033 72.2082 20.3567 72.3216 19.81C72.4349 19.2633 72.5949 18.74 72.8016 18.24C73.0149 17.74 73.2682 17.2767 73.5616 16.85C73.8616 16.4167 74.1949 16.0433 74.5616 15.73C74.9282 15.4167 75.3216 15.17 75.7416 14.99C76.1682 14.81 76.6149 14.72 77.0816 14.72C77.5816 14.72 78.0349 14.82 78.4416 15.02C78.8549 15.2133 79.2049 15.49 79.4916 15.85L80.1816 10.27H81.9216ZM94.9786 19.69L93.6686 13.76C93.6353 13.58 93.5953 13.3733 93.5486 13.14C93.5019 12.9 93.4619 12.6433 93.4286 12.37C93.3286 12.65 93.2286 12.9067 93.1286 13.14C93.0286 13.3733 92.9386 13.5833 92.8586 13.77L90.0886 19.69H94.9786ZM98.0886 25H96.6486C96.4819 25 96.3519 24.96 96.2586 24.88C96.1653 24.7933 96.0986 24.6833 96.0586 24.55L95.2786 21.05H89.4486L87.8086 24.55C87.7486 24.67 87.6553 24.7767 87.5286 24.87C87.4086 24.9567 87.2719 25 87.1186 25H85.6586L92.6786 10.67H94.5786L98.0886 25ZM102.066 17.43C102.606 16.5367 103.216 15.8633 103.896 15.41C104.576 14.95 105.276 14.72 105.996 14.72C106.422 14.72 106.796 14.8067 107.116 14.98C107.442 15.1467 107.706 15.3933 107.906 15.72C108.112 16.0467 108.252 16.45 108.326 16.93C108.399 17.4033 108.399 17.9433 108.326 18.55L107.566 25H105.796L106.556 18.55C106.649 17.75 106.599 17.16 106.406 16.78C106.212 16.3933 105.856 16.2 105.336 16.2C105.016 16.2 104.689 16.2867 104.356 16.46C104.029 16.6333 103.712 16.88 103.406 17.2C103.099 17.52 102.812 17.9067 102.546 18.36C102.286 18.8067 102.062 19.3067 101.876 19.86L101.296 25H99.5158L100.736 14.86H101.616C102.016 14.86 102.216 15.06 102.216 15.46L102.066 17.43ZM113.191 14.87L111.971 25H110.221L111.441 14.87H113.191ZM113.871 11.69C113.871 11.8633 113.835 12.0267 113.761 12.18C113.695 12.3267 113.601 12.46 113.481 12.58C113.368 12.6933 113.235 12.7833 113.081 12.85C112.935 12.9167 112.781 12.95 112.621 12.95C112.468 12.95 112.318 12.9167 112.171 12.85C112.025 12.7833 111.895 12.6933 111.781 12.58C111.675 12.46 111.588 12.3267 111.521 12.18C111.455 12.0267 111.421 11.8633 111.421 11.69C111.421 11.5167 111.455 11.3533 111.521 11.2C111.588 11.0467 111.678 10.9133 111.791 10.8C111.905 10.68 112.035 10.5867 112.181 10.52C112.328 10.4467 112.478 10.41 112.631 10.41C112.791 10.41 112.945 10.4433 113.091 10.51C113.245 10.5767 113.378 10.67 113.491 10.79C113.605 10.9033 113.695 11.04 113.761 11.2C113.835 11.3533 113.871 11.5167 113.871 11.69ZM114.731 25L115.951 14.86H116.831C117.237 14.86 117.441 15.06 117.441 15.46L117.301 17.26C117.801 16.4267 118.347 15.7967 118.941 15.37C119.541 14.9367 120.167 14.72 120.821 14.72C121.507 14.72 122.014 14.9567 122.341 15.43C122.667 15.8967 122.831 16.5667 122.831 17.44C123.331 16.5133 123.894 15.83 124.521 15.39C125.154 14.9433 125.821 14.72 126.521 14.72C127.387 14.72 128.001 15.0533 128.361 15.72C128.721 16.3867 128.827 17.33 128.681 18.55L127.921 25H126.161L126.931 18.55C127.024 17.7567 126.997 17.1667 126.851 16.78C126.711 16.3933 126.391 16.2 125.891 16.2C125.604 16.2 125.317 16.2733 125.031 16.42C124.751 16.56 124.477 16.77 124.211 17.05C123.944 17.3233 123.694 17.6667 123.461 18.08C123.234 18.4867 123.031 18.9567 122.851 19.49V19.5L122.201 25H120.441L121.201 18.55C121.301 17.7567 121.287 17.1667 121.161 16.78C121.034 16.3933 120.721 16.2 120.221 16.2C119.901 16.2 119.591 16.28 119.291 16.44C118.997 16.6 118.717 16.8333 118.451 17.14C118.191 17.44 117.947 17.81 117.721 18.25C117.494 18.6833 117.287 19.1733 117.101 19.72L116.471 25H114.731ZM137.413 16.11C137.266 16.0767 137.119 16.0567 136.973 16.05C136.833 16.0367 136.693 16.03 136.553 16.03C136.153 16.03 135.766 16.0967 135.393 16.23C135.019 16.3567 134.669 16.5367 134.343 16.77C134.016 17.0033 133.719 17.2833 133.453 17.61C133.186 17.93 132.956 18.2833 132.763 18.67C132.576 19.0567 132.429 19.47 132.323 19.91C132.216 20.3433 132.163 20.79 132.163 21.25C132.163 22.8567 132.676 23.66 133.703 23.66C134.029 23.66 134.349 23.56 134.663 23.36C134.976 23.1533 135.273 22.87 135.553 22.51C135.839 22.1433 136.103 21.7133 136.343 21.22C136.583 20.72 136.796 20.1733 136.983 19.58L137.413 16.11ZM136.733 22.33C136.493 22.7567 136.233 23.1433 135.953 23.49C135.679 23.8367 135.386 24.1333 135.073 24.38C134.766 24.62 134.439 24.8067 134.093 24.94C133.753 25.0733 133.399 25.14 133.033 25.14C132.633 25.14 132.269 25.0633 131.943 24.91C131.616 24.75 131.336 24.52 131.103 24.22C130.876 23.9133 130.699 23.54 130.573 23.1C130.446 22.6533 130.383 22.1433 130.383 21.57C130.383 20.97 130.456 20.3867 130.603 19.82C130.756 19.2467 130.969 18.7067 131.243 18.2C131.523 17.6933 131.856 17.23 132.243 16.81C132.629 16.3833 133.059 16.0167 133.533 15.71C134.013 15.3967 134.526 15.1567 135.073 14.99C135.619 14.8167 136.193 14.73 136.793 14.73C137.226 14.73 137.646 14.7667 138.053 14.84C138.466 14.9067 138.873 15.0267 139.273 15.2L138.063 25H137.143C136.909 25 136.749 24.94 136.663 24.82C136.583 24.7 136.543 24.5533 136.543 24.38L136.733 22.33ZM140.738 25L142.528 10.27H144.278L142.488 25H140.738Z" fill="white"/>
</g>
<defs>
<clipPath id="clip0">
<rect width="180" height="254" fill="white"/>
</clipPath>
</defs>
</svg>
