<svg width="180" height="254" viewBox="0 0 180 254" fill="none" xmlns="http://www.w3.org/2000/svg">
<g clip-path="url(#clip0)">
<path fill-rule="evenodd" clip-rule="evenodd" d="M90 254C139.706 254 180 213.706 180 164C180 114.294 139.706 74 90 74C40.2944 74 0 114.294 0 164C0 213.706 40.2944 254 90 254Z" fill="#4F63D3" stroke="#8FA1F5" stroke-opacity="0.0969733" stroke-width="2"/>
<path d="M49 165.07C61.1 155.07 79.26 152.86 92.79 159.56C94.2562 158.139 96.1176 157.195 98.13 156.85C100.38 156.498 102.684 156.902 104.68 158C109.906 155.285 115.859 154.301 121.68 155.19C128.341 156.235 134.369 159.735 138.58 165L49 165.07Z" fill="#FBB03B"/>
<path d="M135 157.07C134.93 157.707 134.368 158.174 133.729 158.127C133.09 158.08 132.604 157.535 132.628 156.895C132.652 156.254 133.179 155.748 133.82 155.75C134.152 155.768 134.463 155.917 134.684 156.165C134.905 156.413 135.019 156.738 135 157.07Z" fill="#FBB03B"/>
<path d="M124.63 158C124.63 158.48 124.241 158.87 123.76 158.87C123.28 158.87 122.89 158.48 122.89 158C122.89 157.52 123.28 157.13 123.76 157.13C124.241 157.13 124.63 157.52 124.63 158Z" fill="#BC842C"/>
<path d="M88.63 156.9C89.845 156.9 90.83 155.915 90.83 154.7C90.83 153.485 89.845 152.5 88.63 152.5C87.415 152.5 86.43 153.485 86.43 154.7C86.43 155.915 87.415 156.9 88.63 156.9Z" fill="#FBB03B"/>
<path d="M75.58 158.14C75.5827 158.317 75.5143 158.487 75.3903 158.613C75.2662 158.739 75.0968 158.81 74.92 158.81C74.5538 158.81 74.2555 158.516 74.25 158.15C74.25 157.78 74.55 157.48 74.92 157.48C75.2845 157.48 75.58 157.775 75.58 158.14Z" fill="#BC842C"/>
<path d="M64.88 159.91C64.88 160.777 64.1771 161.48 63.31 161.48C62.4429 161.48 61.74 160.777 61.74 159.91C61.74 159.043 62.4429 158.34 63.31 158.34C64.1771 158.34 64.88 159.043 64.88 159.91Z" fill="#BC842C"/>
<path d="M37.9399 165.55L148.3 165.44V170.17C148.328 200.641 123.651 225.367 93.1799 225.4C62.7283 225.4 38.0331 200.732 37.9999 170.28V165.55H37.9399Z" fill="#FF7033"/>
<path d="M148 187.19H144.3V170.82H150.83C151.586 170.804 152.317 171.089 152.863 171.612C153.409 172.135 153.724 172.854 153.74 173.61C153.74 173.856 153.71 174.101 153.65 174.34L150.86 185.05C150.514 186.338 149.333 187.222 148 187.19Z" fill="#1A1A1A"/>
<path d="M38.28 187.34H42V171H35.45C34.6933 170.984 33.9615 171.271 33.417 171.796C32.8726 172.322 32.5604 173.043 32.55 173.8C32.5466 174.046 32.5735 174.291 32.63 174.53L35.46 185.23C35.8163 186.489 36.9716 187.353 38.28 187.34Z" fill="#1A1A1A"/>
<path d="M148.74 166.33C148.74 168.96 123.85 171.12 93.14 171.16C62.43 171.2 37.52 169.1 37.52 166.47C37.49 166.101 37.49 165.729 37.52 165.36C39.17 162.86 63.52 161.68 93.13 161.64C122.35 161.64 146.44 162.71 148.69 165.16C148.762 165.546 148.779 165.94 148.74 166.33Z" fill="#E0E8EE"/>
<path d="M148.73 165.27C148.73 167.41 123.84 169.18 93.13 169.27C62.42 169.36 37.51 167.61 37.51 165.46C37.51 163.31 62.4 161.28 93.11 161.24C123.82 161.2 148.73 163.13 148.73 165.27Z" fill="#FBB03B"/>
<path d="M125.87 160.53C125.87 161.45 122.57 162.2 118.49 162.21C114.41 162.22 111.11 161.47 111.11 160.55C111.11 159.63 114.41 158.88 118.49 158.88C122.57 158.88 125.87 159.61 125.87 160.53Z" fill="#F15A24"/>
<path d="M83.37 161C83.37 161.92 80.07 162.67 75.99 162.67C71.91 162.67 68.61 161.94 68.61 161.02C68.61 160.1 71.91 159.35 75.99 159.34C80.07 159.33 83.36 160.08 83.37 161Z" fill="#F15A24"/>
<path d="M65.5199 168.22C65.6199 167.55 66.3399 167.22 66.8999 166.97C68.0014 166.601 69.1493 166.389 70.3099 166.34C71.6055 166.265 72.9044 166.265 74.1999 166.34C75.4599 166.34 76.7099 166.48 77.9699 166.53C78.8699 166.53 79.7799 166.53 80.6799 166.61C81.5218 166.68 82.3681 166.68 83.2099 166.61C83.8297 166.625 84.4327 166.407 84.8999 166C83.9128 165.513 82.8386 165.227 81.7399 165.16C80.4899 165.02 79.2399 164.9 77.9899 164.82C75.4299 164.68 72.8699 164.69 70.3099 164.72C67.7499 164.75 65.1899 164.72 62.6299 164.72C60.07 164.72 57.4699 164.72 54.8999 164.83C53.9599 164.83 53.0499 165.04 52.1199 165.11C51.2676 165.231 50.3985 165.088 49.6299 164.7C49.5324 164.643 49.4971 164.52 49.5499 164.42C49.8545 164.002 50.2515 163.66 50.7099 163.42C51.065 163.259 51.4289 163.119 51.7999 163C52.0748 162.939 52.3381 162.834 52.5799 162.69C43.2299 163.39 37.5099 164.33 37.5099 165.36C37.5099 166.81 48.8099 168.05 65.5799 168.7C65.5273 168.546 65.5069 168.382 65.5199 168.22Z" fill="#EBA537"/>
<path d="M131.51 164.12C130.74 164.12 129.98 164.12 129.21 164.02C128.44 163.92 127.59 163.87 126.78 163.79C125.017 163.587 123.244 163.483 121.47 163.48C120.049 163.441 118.635 163.7 117.32 164.24C117.507 164.341 117.7 164.428 117.9 164.5C119.374 164.977 120.922 165.183 122.47 165.11C123.97 165.11 125.47 164.99 126.97 164.98C131.18 164.98 135.36 164.6 139.55 164.31C141.55 164.16 143.64 164.05 145.69 164C144.76 163.82 143.64 163.64 142.34 163.47C140.883 163.846 139.392 164.073 137.89 164.15C135.76 164.28 133.64 164.2 131.51 164.12Z" fill="#FCC062"/>
<path d="M100.07 167.86C98.7761 167.908 97.4946 168.13 96.2599 168.52C96.6542 168.82 97.0974 169.051 97.5699 169.2C102.38 169.2 107.02 169.09 111.4 168.98C110.576 168.665 109.716 168.453 108.84 168.35C107.808 168.259 106.834 167.838 106.06 167.15C105.97 167.05 105.99 166.82 106.15 166.8C107.764 166.622 109.39 166.588 111.01 166.7C112.28 166.777 113.555 166.683 114.8 166.42C113.594 166.297 112.381 166.253 111.17 166.29C109.82 166.29 108.48 166.38 107.17 166.39C106.17 166.39 105.1 166.33 104.07 166.28C102.984 166.22 101.896 166.22 100.81 166.28C99.9919 166.32 99.1853 166.489 98.4199 166.78C98.9999 166.98 99.5499 167.28 100.15 167.44C100.266 167.462 100.342 167.574 100.32 167.69C100.298 167.806 100.186 167.882 100.07 167.86Z" fill="#FCC062"/>
<path d="M44.78 119.18C42.2024 118.295 39.4233 118.177 36.78 118.84C31.3034 120.369 27.2329 124.968 26.38 130.59C26.0995 132.794 26.3498 135.033 27.11 137.12C26.7518 137.509 26.4793 137.969 26.31 138.47C26.007 139.499 25.9829 140.589 26.24 141.63C26.8075 144.331 28.4127 146.701 30.71 148.23C32.9786 149.717 35.729 150.282 38.4 149.81C41.7042 152.159 46.2021 151.871 49.18 149.12C51.6432 150.199 54.3112 150.731 57 150.68C54.5508 149.27 52.3402 147.481 50.45 145.38C52.2139 145.491 53.9832 145.278 55.67 144.75C58.67 143.75 61.27 141.07 61.21 137.93C61.15 134.79 58.42 132.22 55.43 131.29C55.05 131.18 54.67 131.08 54.29 131C54.0554 128.468 53.1358 126.049 51.63 124C49.8836 121.741 47.4963 120.061 44.78 119.18Z" fill="#C2BFBF"/>
<path d="M153.27 145C153.409 145.347 153.503 145.71 153.55 146.08C153.73 147.768 153.086 149.439 151.82 150.57C151.22 151.108 150.52 151.522 149.76 151.79C149.51 152.807 148.821 153.661 147.88 154.12C146.419 154.704 144.749 154.182 143.88 152.87L143.76 152.68C142.807 153.709 141.662 154.541 140.39 155.13C141.237 154.195 141.914 153.118 142.39 151.95C141.868 151.868 141.368 151.681 140.92 151.4C140.133 150.91 139.589 150.111 139.42 149.2C139.263 148.275 139.619 147.338 140.35 146.75C140.694 146.505 141.108 146.378 141.53 146.39C141.648 145.014 142.301 143.739 143.35 142.84C144.702 141.757 146.428 141.254 148.15 141.44C149.431 141.539 150.656 142.004 151.68 142.78C152.399 143.365 152.948 144.131 153.27 145Z" fill="#C2BFBF"/>
<path d="M109.22 148.24C112.364 146.909 114.378 143.793 114.3 140.38C114.24 138.832 113.901 137.308 113.3 135.88C112.682 134.386 111.964 132.936 111.15 131.54C110.37 130.1 109.55 128.65 108.87 127.16C108.178 125.686 107.719 124.114 107.51 122.5C107.321 120.884 107.57 119.247 108.23 117.76C108.974 116.145 110.219 114.813 111.78 113.96C110.27 114.96 111.4 120.96 111.63 122.43C111.918 123.98 112.423 125.481 113.13 126.89C113.81 128.34 114.63 129.76 115.43 131.2C116.247 132.631 116.962 134.118 117.57 135.65C118.169 137.154 118.471 138.761 118.46 140.38C118.402 142.041 117.856 143.648 116.89 145C111.71 148.75 111.1 147.63 109.22 148.24Z" fill="#C2BFBF"/>
<path d="M71.22 148.24C74.3641 146.909 76.3775 143.794 76.3 140.38C76.2397 138.832 75.901 137.308 75.3 135.88C74.6823 134.386 73.964 132.936 73.15 131.54C72.37 130.1 71.55 128.65 70.87 127.16C70.1781 125.686 69.7193 124.114 69.51 122.5C69.3215 120.884 69.5701 119.247 70.23 117.76C70.9737 116.164 72.2067 114.847 73.75 114C72.24 115 73.37 121 73.6 122.47C73.8876 124.02 74.3926 125.521 75.1 126.93C75.78 128.38 76.6 129.8 77.4 131.24C78.2172 132.671 78.9323 134.158 79.54 135.69C80.1393 137.194 80.4415 138.801 80.43 140.42C80.3728 142.064 79.8376 143.656 78.89 145C73.71 148.75 73.1 147.63 71.22 148.24Z" fill="#C2BFBF"/>
<path d="M90.22 148.24C91.9708 147.183 93.3402 145.597 94.13 143.71C94.9407 141.851 95.3398 139.838 95.3 137.81C95.2444 135.773 94.9079 133.754 94.3 131.81C93.6891 129.849 92.9714 127.923 92.15 126.04C91.37 124.13 90.55 122.21 89.87 120.22C89.1673 118.223 88.7106 116.148 88.51 114.04C88.3178 111.913 88.5629 109.769 89.23 107.74C89.8828 105.754 91.1201 104.011 92.78 102.74C91.24 104.1 92.37 112 92.6 114C92.8774 116.023 93.3805 118.009 94.1 119.92C94.78 121.85 95.6 123.74 96.4 125.65C97.2256 127.574 97.9401 129.544 98.54 131.55C99.1394 133.593 99.4392 135.711 99.43 137.84C99.4017 139.985 98.8744 142.094 97.89 144C92.71 148.92 92.1 147.44 90.22 148.24Z" fill="#C2BFBF"/>
<path d="M108.57 161.32L110 160.13L110.93 161.31L108.57 161.32Z" fill="#22B573"/>
<path d="M102.09 160.27L100.36 158.82L100.23 159.87L102.09 160.27Z" fill="#22B573"/>
<path d="M112.86 168.21L113.86 166.62L114 167.81L112.86 168.21Z" fill="#22B573"/>
<path d="M95.35 163.65H93.63L93.5 164.18L95.22 164.58L95.35 163.65Z" fill="#22B573"/>
<path d="M79.77 161.13L81.35 159.6L82.01 160.31V161.43L79.77 161.13Z" fill="#22B573"/>
<path d="M55.8 163.19L58.31 163.05L56.2 164.24L55.8 163.19Z" fill="#22B573"/>
<path d="M86.22 162.67L87.67 163.46L88.33 162.27L86.22 162.67Z" fill="#22B573"/>
<path fill-rule="evenodd" clip-rule="evenodd" d="M90 254C139.706 254 180 213.706 180 164C180 114.294 139.706 74 90 74C40.2944 74 0 114.294 0 164C0 213.706 40.2944 254 90 254Z" stroke="#FECE00" stroke-width="2" stroke-dasharray="146"/>
<path d="M56.897 23.55C57.337 23.55 57.727 23.5133 58.067 23.44C58.407 23.3667 58.707 23.2767 58.967 23.17C59.227 23.0633 59.447 22.9467 59.627 22.82C59.8136 22.6867 59.9736 22.5667 60.107 22.46C60.247 22.3533 60.3636 22.2633 60.457 22.19C60.5503 22.1167 60.6336 22.08 60.707 22.08C60.767 22.08 60.817 22.0933 60.857 22.12C60.897 22.14 60.9303 22.1667 60.957 22.2L61.607 23.01C60.9803 23.69 60.257 24.22 59.437 24.6C58.6236 24.9733 57.6736 25.16 56.587 25.16C55.727 25.16 54.957 25.0067 54.277 24.7C53.6036 24.3933 53.0303 23.9667 52.557 23.42C52.0903 22.8667 51.7303 22.21 51.477 21.45C51.2303 20.69 51.107 19.8533 51.107 18.94C51.107 17.6933 51.3003 16.5533 51.687 15.52C52.0736 14.4867 52.6036 13.6 53.277 12.86C53.957 12.1133 54.7536 11.5367 55.667 11.13C56.5803 10.7167 57.5636 10.51 58.617 10.51C59.1236 10.51 59.5836 10.5533 59.997 10.64C60.4103 10.7267 60.787 10.8533 61.127 11.02C61.467 11.1867 61.7736 11.3867 62.047 11.62C62.327 11.8533 62.587 12.1133 62.827 12.4L62.187 13.18C62.1336 13.2467 62.0736 13.3033 62.007 13.35C61.9403 13.39 61.857 13.41 61.757 13.41C61.637 13.41 61.5103 13.3433 61.377 13.21C61.2436 13.0767 61.0603 12.9333 60.827 12.78C60.6003 12.62 60.3036 12.4733 59.937 12.34C59.577 12.2067 59.107 12.14 58.527 12.14C57.747 12.14 57.0203 12.2967 56.347 12.61C55.6803 12.9167 55.1003 13.36 54.607 13.94C54.1136 14.5133 53.7236 15.21 53.437 16.03C53.157 16.85 53.017 17.77 53.017 18.79C53.017 19.53 53.1136 20.1933 53.307 20.78C53.5003 21.3667 53.767 21.8667 54.107 22.28C54.4536 22.6867 54.8636 23 55.337 23.22C55.8103 23.44 56.3303 23.55 56.897 23.55ZM66.8249 23.75C67.3116 23.75 67.7516 23.6167 68.1449 23.35C68.5449 23.0833 68.8849 22.73 69.1649 22.29C69.4516 21.8433 69.6716 21.33 69.8249 20.75C69.9783 20.17 70.0549 19.5633 70.0549 18.93C70.0549 17.9967 69.8683 17.2967 69.4949 16.83C69.1283 16.3567 68.5983 16.12 67.9049 16.12C67.4116 16.12 66.9649 16.2533 66.5649 16.52C66.1716 16.78 65.8349 17.13 65.5549 17.57C65.2749 18.01 65.0583 18.52 64.9049 19.1C64.7516 19.68 64.6749 20.2867 64.6749 20.92C64.6749 21.8533 64.8583 22.56 65.2249 23.04C65.5916 23.5133 66.1249 23.75 66.8249 23.75ZM66.6549 25.14C66.1016 25.14 65.5949 25.0467 65.1349 24.86C64.6749 24.6667 64.2783 24.39 63.9449 24.03C63.6116 23.67 63.3516 23.23 63.1649 22.71C62.9783 22.19 62.8849 21.5967 62.8849 20.93C62.8849 20.0767 63.0183 19.2733 63.2849 18.52C63.5516 17.7667 63.9183 17.11 64.3849 16.55C64.8516 15.9833 65.3983 15.5367 66.0249 15.21C66.6583 14.8833 67.3383 14.72 68.0649 14.72C68.6183 14.72 69.1249 14.8167 69.5849 15.01C70.0449 15.1967 70.4416 15.47 70.7749 15.83C71.1083 16.19 71.3683 16.63 71.5549 17.15C71.7416 17.67 71.8349 18.26 71.8349 18.92C71.8349 19.7667 71.7016 20.5667 71.4349 21.32C71.1683 22.0733 70.8016 22.7333 70.3349 23.3C69.8749 23.8667 69.3283 24.3167 68.6949 24.65C68.0616 24.9767 67.3816 25.14 66.6549 25.14ZM77.196 23.75C77.6827 23.75 78.1227 23.6167 78.516 23.35C78.916 23.0833 79.256 22.73 79.536 22.29C79.8227 21.8433 80.0427 21.33 80.196 20.75C80.3493 20.17 80.426 19.5633 80.426 18.93C80.426 17.9967 80.2393 17.2967 79.866 16.83C79.4993 16.3567 78.9693 16.12 78.276 16.12C77.7827 16.12 77.336 16.2533 76.936 16.52C76.5427 16.78 76.206 17.13 75.926 17.57C75.646 18.01 75.4293 18.52 75.276 19.1C75.1227 19.68 75.046 20.2867 75.046 20.92C75.046 21.8533 75.2293 22.56 75.596 23.04C75.9627 23.5133 76.496 23.75 77.196 23.75ZM77.026 25.14C76.4727 25.14 75.966 25.0467 75.506 24.86C75.046 24.6667 74.6493 24.39 74.316 24.03C73.9827 23.67 73.7227 23.23 73.536 22.71C73.3493 22.19 73.256 21.5967 73.256 20.93C73.256 20.0767 73.3893 19.2733 73.656 18.52C73.9227 17.7667 74.2893 17.11 74.756 16.55C75.2227 15.9833 75.7693 15.5367 76.396 15.21C77.0293 14.8833 77.7093 14.72 78.436 14.72C78.9893 14.72 79.496 14.8167 79.956 15.01C80.416 15.1967 80.8127 15.47 81.146 15.83C81.4793 16.19 81.7393 16.63 81.926 17.15C82.1127 17.67 82.206 18.26 82.206 18.92C82.206 19.7667 82.0727 20.5667 81.806 21.32C81.5393 22.0733 81.1727 22.7333 80.706 23.3C80.246 23.8667 79.6993 24.3167 79.066 24.65C78.4327 24.9767 77.7527 25.14 77.026 25.14ZM87.1671 10.27L86.1071 18.94H86.4071C86.5471 18.94 86.6604 18.9233 86.7471 18.89C86.8338 18.85 86.9271 18.7733 87.0271 18.66L90.3871 15.23C90.4804 15.1167 90.5804 15.03 90.6871 14.97C90.7938 14.9033 90.9238 14.87 91.0771 14.87H92.6571L88.7471 18.84C88.5471 19.0733 88.3438 19.25 88.1371 19.37C88.2438 19.45 88.3338 19.5433 88.4071 19.65C88.4871 19.75 88.5604 19.8667 88.6271 20L91.6671 25H90.1371C89.9904 25 89.8671 24.9767 89.7671 24.93C89.6738 24.8767 89.5971 24.7833 89.5371 24.65L86.9571 20.5C86.8771 20.36 86.7938 20.27 86.7071 20.23C86.6204 20.1833 86.4838 20.16 86.2971 20.16H85.9571L85.3671 25H83.6071L85.4171 10.27H87.1671ZM111.632 14.87L107.382 25H106.032C105.872 25 105.772 24.8867 105.732 24.66L104.502 17.79C104.489 17.6767 104.475 17.57 104.462 17.47C104.455 17.3633 104.445 17.2533 104.432 17.14C104.359 17.36 104.279 17.58 104.192 17.8L101.272 24.66C101.179 24.8867 101.042 25 100.862 25H99.562L97.782 14.87H99.112C99.2453 14.87 99.352 14.9033 99.432 14.97C99.512 15.0367 99.5653 15.1267 99.592 15.24L100.522 21.76C100.535 21.9933 100.549 22.22 100.562 22.44C100.575 22.66 100.585 22.8767 100.592 23.09C100.665 22.8767 100.745 22.66 100.832 22.44C100.919 22.22 101.009 21.9933 101.102 21.76L103.872 15.2C103.905 15.1 103.969 15.0167 104.062 14.95C104.155 14.8833 104.259 14.85 104.372 14.85H105.112C105.239 14.85 105.339 14.8833 105.412 14.95C105.485 15.0167 105.529 15.1 105.542 15.2L106.682 21.76C106.715 21.9933 106.745 22.22 106.772 22.44C106.799 22.6533 106.822 22.87 106.842 23.09C106.902 22.8767 106.965 22.66 107.032 22.44C107.105 22.22 107.182 21.9933 107.262 21.76L109.832 15.24C109.865 15.1333 109.929 15.0467 110.022 14.98C110.122 14.9067 110.229 14.87 110.342 14.87H111.632ZM117.058 16.01C116.638 16.01 116.252 16.0967 115.898 16.27C115.545 16.4433 115.232 16.6833 114.958 16.99C114.685 17.29 114.452 17.6467 114.258 18.06C114.065 18.4667 113.915 18.9067 113.808 19.38C114.835 19.2533 115.658 19.11 116.278 18.95C116.898 18.7833 117.375 18.6067 117.708 18.42C118.042 18.2267 118.262 18.02 118.368 17.8C118.475 17.58 118.528 17.35 118.528 17.11C118.528 16.99 118.502 16.8667 118.448 16.74C118.395 16.6067 118.308 16.4867 118.188 16.38C118.075 16.2733 117.925 16.1867 117.738 16.12C117.552 16.0467 117.325 16.01 117.058 16.01ZM119.878 23.13C119.538 23.4833 119.205 23.7867 118.878 24.04C118.552 24.2867 118.218 24.4933 117.878 24.66C117.545 24.8267 117.192 24.9467 116.818 25.02C116.452 25.1 116.055 25.14 115.628 25.14C115.048 25.14 114.528 25.0433 114.068 24.85C113.608 24.6567 113.218 24.3833 112.898 24.03C112.578 23.67 112.332 23.2367 112.158 22.73C111.985 22.2233 111.898 21.6567 111.898 21.03C111.898 20.51 111.952 19.9933 112.058 19.48C112.172 18.96 112.332 18.4667 112.538 18C112.752 17.5333 113.008 17.1 113.308 16.7C113.615 16.3 113.962 15.9567 114.348 15.67C114.742 15.3767 115.172 15.1467 115.638 14.98C116.112 14.8133 116.618 14.73 117.158 14.73C117.672 14.73 118.115 14.8033 118.488 14.95C118.862 15.0967 119.168 15.2833 119.408 15.51C119.648 15.7367 119.825 15.9867 119.938 16.26C120.058 16.5333 120.118 16.7933 120.118 17.04C120.118 17.48 120.028 17.8867 119.848 18.26C119.668 18.6267 119.338 18.96 118.858 19.26C118.378 19.5533 117.718 19.81 116.878 20.03C116.038 20.25 114.958 20.4267 113.638 20.56C113.638 20.6333 113.635 20.7067 113.628 20.78C113.628 20.8467 113.628 20.9167 113.628 20.99C113.628 21.8833 113.822 22.5667 114.208 23.04C114.602 23.5067 115.192 23.74 115.978 23.74C116.298 23.74 116.582 23.7067 116.828 23.64C117.082 23.5733 117.305 23.4933 117.498 23.4C117.698 23.3 117.872 23.1933 118.018 23.08C118.172 22.96 118.308 22.8533 118.428 22.76C118.555 22.66 118.672 22.5767 118.778 22.51C118.885 22.4433 118.992 22.41 119.098 22.41C119.225 22.41 119.338 22.4667 119.438 22.58L119.878 23.13ZM121.529 25L123.319 10.27H125.069L123.279 25H121.529ZM126.021 25L127.811 10.27H129.561L127.771 25H126.021Z" fill="white"/>
</g>
<defs>
<clipPath id="clip0">
<path d="M0 0H180V254H0V0Z" fill="white"/>
</clipPath>
</defs>
</svg>
