<svg width="251" height="254" viewBox="0 0 251 254" fill="none" xmlns="http://www.w3.org/2000/svg">
<g clip-path="url(#clip0)">
<path fill-rule="evenodd" clip-rule="evenodd" d="M125 254C174.706 254 215 213.706 215 164C215 114.294 174.706 74 125 74C75.2944 74 35 114.294 35 164C35 213.706 75.2944 254 125 254Z" fill="#4F63D3" stroke="#8FA1F5" stroke-opacity="0.0969733" stroke-width="2"/>
<mask id="mask0" mask-type="alpha" maskUnits="userSpaceOnUse" x="34" y="73" width="182" height="182">
<path fill-rule="evenodd" clip-rule="evenodd" d="M125 254C174.706 254 215 213.706 215 164C215 114.294 174.706 74 125 74C75.2944 74 35 114.294 35 164C35 213.706 75.2944 254 125 254Z" fill="white" stroke="white" stroke-width="2"/>
</mask>
<g mask="url(#mask0)">
<path d="M108.704 218.824C108.704 218.824 107.592 225.744 108.189 227.975C108.878 230.535 108.189 253.957 108.189 253.957L87.605 256.013C87.605 256.013 82.1708 230.967 84.2807 224.006C86.3905 217.045 87.4403 214.567 87.4403 214.567L108.704 218.824Z" fill="#8288D2"/>
<path d="M91.7423 172.464C91.7423 172.464 91.0322 172.053 90.8778 173.492C90.4394 175.775 89.7204 177.996 88.7371 180.103C87.5895 182.518 86.7261 185.057 86.1641 187.671C85.6701 190.241 85.9068 218.886 85.9068 218.886H108.806C108.806 218.886 108.374 210.146 108.024 202.363C107.674 194.58 104.937 187.29 103.907 183.712C102.878 180.134 99.9347 178.89 100.141 177.091C100.346 175.291 101.087 174.253 99.4201 174.16C97.7528 174.068 96.8883 172.186 96.8883 172.186L91.7423 172.464Z" fill="#0841D5"/>
<path d="M92.257 170.068C91.9885 170.839 91.8156 171.641 91.7424 172.454C93.275 173.388 94.9988 173.964 96.7855 174.14C97.6725 174.212 98.564 174.212 99.4511 174.14C99.7013 173.581 100.27 173.234 100.882 173.266C101.849 173.389 105.554 173.78 107.057 173.801C108.559 173.821 109.887 173.636 109.887 171.95C109.887 170.264 109.424 170.099 110.103 169.184C110.391 168.814 110.309 168.557 109.99 168.259C109.671 167.961 110.618 168.053 110.381 167.436C110.144 166.819 109.722 166.161 109.939 165.822C110.45 165.148 111.108 164.6 111.863 164.218C112.666 163.868 111.863 163.324 111.318 162.851C110.605 162.222 110.221 161.3 110.278 160.352C110.278 158.913 110.278 156.239 110.165 155.407C110.052 154.574 109.475 151.448 109.475 151.448C109.475 151.448 103.733 148.117 100.336 149.844C96.9398 151.572 91.1969 156.013 91.4954 158.676C91.7938 161.339 92.257 170.068 92.257 170.068Z" fill="#C6866D"/>
<path d="M92.257 170.068C92.6776 168.645 93.4127 167.335 94.408 166.233C95.9518 164.64 93.6052 162.038 94.408 159.951C95.2108 157.864 97.0839 158.131 97.6808 159.108C98.2778 160.085 98.3601 162.069 99.132 161.802C99.9039 161.535 99.0805 158.954 98.9159 157.874C98.7512 156.795 98.3807 153.391 100.696 151.993C102.388 150.841 104.529 150.562 106.46 151.243C108.168 151.818 108.827 153.299 111.945 153.206C110.35 152.291 109.342 150.985 109.527 150.718C109.712 150.451 110.793 152.034 111.945 151.212C110.94 150.613 110.112 149.758 109.547 148.734C108.652 147.068 107.396 145.516 103.238 145.115C99.0805 144.714 93.317 145.331 91.0219 147.109C88.7268 148.888 85.9789 150.698 86.1332 154.564C86.2876 158.429 87.924 160.003 89.0253 162.038C90.1762 163.883 91.0891 165.866 91.7424 167.94C92.1849 169.78 92.257 170.068 92.257 170.068Z" fill="#864531"/>
<path d="M171.093 198.898C171.093 198.898 172.822 205.427 172.462 207.617C172.051 210.136 173.625 252.599 173.625 252.599L193.54 237.177C193.54 237.177 197.657 207.997 194.991 201.53C192.326 195.063 191.06 192.791 191.06 192.791L171.093 198.898Z" fill="#454646"/>
<path d="M129.977 159.91C129.267 157.809 128.895 155.609 128.876 153.391C128.968 150.204 128.721 146.708 128.145 146.708C127.569 146.708 127.63 148.014 127.383 148.014C127.136 148.014 127.383 145.958 126.539 145.855C125.696 145.752 125.778 147.377 125.593 147.346C125.407 147.315 125.202 146.616 124.831 147.068C124.461 147.521 124.677 149.628 124.502 149.597C124.327 149.567 123.946 149.053 123.709 149.988C123.472 150.924 124.471 154.666 124.646 155.581C124.955 156.93 125.09 158.312 125.047 159.694C124.985 161.38 125.943 165.256 130.131 164.979C134.32 164.701 129.977 159.91 129.977 159.91Z" fill="#CE9C89"/>
<path d="M127.383 148.014L127.692 154.121" stroke="#D6B18E" stroke-width="0.2"/>
<path d="M125.654 147.284L126.601 154.121" stroke="#D6B18E" stroke-width="0.2"/>
<path d="M124.646 149.495L125.675 155.006" stroke="#D6B18E" stroke-width="0.2"/>
<path d="M185.039 140.868C185.087 142.018 185.331 143.152 185.76 144.22C184.207 144.817 182.564 145.144 180.902 145.187C178.885 145.319 176.895 145.721 174.984 146.379V144.631C174.984 144.631 170.569 145.999 169.601 144.909C168.634 143.819 164.846 136.221 164.887 135.337C165.021 132.991 165.021 130.64 164.887 128.294C164.712 127.111 164.63 123.996 164.589 122.341C165.708 120.214 167.763 118.737 170.136 118.351L169.632 118.927C170.906 118.647 172.237 118.807 173.409 119.38C175.725 120.325 178.555 125.405 178.823 128.263L178.967 129.661C179.712 128.825 180.601 128.129 181.591 127.605C183.187 126.782 183.228 125.97 184.936 126.145C186.645 126.32 186.295 130.535 185.482 131.769C184.669 133.003 183.567 134.494 183.567 134.494C183.567 134.494 185.07 138.37 184.689 141.136C184.782 141.084 184.895 140.981 185.039 140.868Z" fill="#CE9C89"/>
<path d="M161.913 136.92C162.335 139.069 161.975 141.444 162.942 143.161C163.91 144.878 166.637 146.616 168.418 146.019C171.482 144.643 174.348 142.862 176.939 140.724C179.368 138.668 183.269 134.37 184.658 132.931L184.782 132.797C186.048 131.502 181.756 134.854 180.212 136.622C178.668 138.39 175.066 139.326 175.066 139.326C175.066 139.326 173.584 135.131 174.716 133.764C175.848 132.396 181.128 128.839 182.363 127.194C181.746 126.505 179.42 128.047 179.42 128.047L179.008 129.661C179.008 129.661 172.565 132.273 169.169 131.8C165.772 131.327 164.342 130.371 162.911 131.738C161.481 133.106 161.121 134.124 161.419 135.193C161.717 136.262 161.841 136.509 161.913 136.92Z" fill="#FEEEEE" stroke="#B0B0B0" stroke-width="0.5"/>
<path d="M191.379 133.311C190.658 135.758 186.521 139.624 185.049 140.858L184.689 141.146C185.07 138.38 183.567 134.494 183.567 134.494C183.567 134.494 184.658 133.003 185.482 131.779C186.305 130.556 186.634 126.33 184.936 126.155C183.238 125.98 183.197 126.803 181.591 127.615C180.601 128.139 179.712 128.836 178.967 129.672L178.833 128.283C178.524 125.425 175.745 120.346 173.409 119.39C172.236 118.82 170.905 118.664 169.632 118.948L170.136 118.372C167.775 118.745 165.725 120.203 164.599 122.31C164.454 122.562 164.334 122.827 164.239 123.102C164.074 122.049 164.074 120.977 164.239 119.924C163.877 120.451 163.664 121.066 163.621 121.703C163.621 121.703 163.344 120.953 164.239 118.053C165.134 115.154 170.002 112.635 171.773 111.987C173.543 111.339 179.924 110.692 182.888 111.514C185.852 112.337 188.785 113.57 189.465 115.627C190.144 117.683 190.556 118.711 191.646 121.693C192.737 124.675 192.161 130.617 191.379 133.311Z" fill="#262836"/>
<path d="M130.131 158.954C130.198 158.672 130.449 158.472 130.739 158.471C135.974 158.493 141.205 158.15 146.393 157.442C153.453 156.322 163.796 154.358 167.213 153.083C169.465 152.259 171.782 151.626 174.14 151.191C174.14 151.191 171.546 161.144 171.135 162.953C170.723 164.763 170.332 164.146 170.332 164.146L162.716 165.853C159.114 166.655 145.456 166.881 141.535 167.426C137.614 167.971 130.667 167.981 130.275 165.925C129.893 163.62 129.845 161.272 130.131 158.954Z" fill="#C66034"/>
<path d="M174.984 146.379C174.984 146.379 174.418 146.472 174.737 147.922C175.056 149.371 172.74 152.209 172.39 154.594C172.04 156.98 169.426 162.388 168.603 168.742C167.936 174.949 167.726 181.196 167.975 187.434C168.15 191.351 169.766 199.083 171.732 199.207C173.697 199.33 183.516 200.132 187.674 198.281C191.832 196.431 193.211 195.916 193.211 195.916C193.211 195.916 190.679 186.663 190.967 180.967C191.255 175.271 193.623 167.467 191.832 160.948C190.195 155.006 187.139 146.893 186.418 144.498C186.344 144.259 186.091 144.126 185.852 144.2H185.759C185.759 144.2 180.614 144.714 178.555 145.228L174.984 146.379Z" fill="#FF7033"/>
<path d="M188.868 155.119C188.868 155.119 189.063 156.219 189.495 158.203C190.243 163.624 190.631 169.089 190.658 174.561C190.686 179.108 189.945 183.627 188.466 187.928C187.797 189.984 185.904 192.318 179.409 190.621C175.467 189.587 171.612 188.243 167.882 186.601C168.912 184.483 167.882 180.885 167.882 180.741V180.741C170.62 183.26 179.45 181.193 179.45 181.193C179.45 181.193 178.823 172.382 178.555 167.693C178.288 163.005 179.996 154.142 182.25 152.271" stroke="#C66034" stroke-width="0.5" stroke-linecap="round" stroke-linejoin="round"/>
<path d="M167.882 186.642C167.882 186.642 167.419 186.406 166.39 185.768C165.361 185.131 162.901 183.229 163.004 181.656C163.021 179.968 163.537 178.323 164.486 176.926C165.515 175.548 165.68 175.662 168.098 174.273C168.098 174.86 167.954 176.33 167.954 177.687C167.954 179.291 167.893 180.772 167.893 180.772C167.934 180.915 168.942 184.524 167.882 186.642Z" fill="#CE9C89"/>
<path d="M74.0299 150.07C74.0299 150.07 75.7178 150.492 76.2838 149.793C76.8499 149.094 76.5926 147.469 77.0351 146.935C78.0301 146.067 79.3299 145.63 80.6476 145.721C82.5002 145.721 85.0011 145.084 84.7644 143.12C84.5277 141.156 84.9908 140.755 85.8965 140.282C86.8022 139.809 85.6289 139.326 84.9908 139.162C85.9068 138.75 86.5037 138.37 86.4111 138.02C86.3185 137.671 85.1658 136.992 85.5363 136.283C85.9068 135.573 87.7594 135.255 87.7182 134.627C87.677 134 85.8554 133.291 85.3099 132.232C84.7644 131.173 84.7232 128.602 84.7747 127.461C84.8262 126.32 79.8963 122.495 79.145 122.516C78.3937 122.536 71.8686 120.973 70.5821 126.628C69.2956 132.283 68.9971 141.742 70.3556 143.901C71.7142 146.061 74.0299 150.07 74.0299 150.07Z" fill="#F27E55"/>
<path d="M76.0059 150.07C76.6434 149.524 77.559 149.445 78.2805 149.875C79.4126 150.667 78.2187 151.572 79.1244 151.664C80.0301 151.757 80.2462 152.26 80.0507 153.175C79.8551 154.091 81.0181 153.289 81.0181 154.348C81.0181 155.407 77.7967 158.131 81.9238 162.1C86.0509 166.069 86.4214 169.092 86.3494 171.014C86.2773 172.937 86.8845 190.755 87.4918 201.571C88.099 212.388 88.0887 255.9 88.0887 255.9H61.6795C61.6795 255.9 63.3262 207.463 63.9334 198.374C64.5407 189.285 64.7259 182.951 63.5012 177.687C62.2764 172.423 61.8545 167.56 64.448 160.897C67.0416 154.234 67.5356 148.425 70.8085 146.307C74.0813 144.189 76.0059 150.07 76.0059 150.07Z" fill="#F42850"/>
<path d="M57.6656 153.155C56.5644 157.679 55.1441 165.38 55.9469 168.742C56.5678 170.967 57.6949 173.018 59.2403 174.736C59.2403 174.736 56.9761 168.382 57.7789 163.92C57.7789 163.92 57.5524 173.173 63.2542 175.61C63.2542 175.61 61.5766 172.526 62.0089 167.138C62.0089 167.138 64.9421 171.96 64.7877 176.628C64.7877 176.628 65.8169 177.214 67.3504 175.096C68.8839 172.978 72.6816 169.842 73.5256 162.83C74.3695 155.818 74.6577 141.763 74.6577 137.023C74.6577 132.283 75.3164 124.685 75.3164 124.685C75.3164 124.685 75.584 130.535 75.3164 131.563C75.3164 131.563 76.9734 127.965 80.3491 128.335C83.0148 128.592 80.4932 124.14 80.4932 124.14C81.3164 125.163 81.9888 126.299 82.4899 127.512C82.6408 127.852 82.9634 128.084 83.3338 128.119C84.1778 128.191 85.5981 128.201 85.8554 127.512C86.2259 126.484 84.8262 122.063 82.1399 119.596C79.4537 117.128 75.6354 115.113 71.6627 116.244C67.69 117.375 64.2525 119.112 62.9557 121.385C61.1318 124.199 60.003 127.406 59.6623 130.741C59.405 134.761 59.4564 138.144 59.4359 140.858C59.4244 143.339 59.2732 145.817 58.983 148.281C58.664 150.975 58.1494 151.099 57.6656 153.155Z" fill="#262836"/>
</g>
<path fill-rule="evenodd" clip-rule="evenodd" d="M125 254C174.706 254 215 213.706 215 164C215 114.294 174.706 74 125 74C75.2944 74 35 114.294 35 164C35 213.706 75.2944 254 125 254Z" stroke="#FECE00" stroke-width="2" stroke-dasharray="146"/>
<path d="M19.9255 16.98H20.5855C20.8188 16.98 21.0088 16.95 21.1555 16.89C21.3088 16.8233 21.4555 16.7133 21.5955 16.56L26.5555 11.12C26.6955 10.94 26.8421 10.82 26.9955 10.76C27.1488 10.7 27.3255 10.67 27.5255 10.67H29.1155L23.3955 16.87C23.1288 17.1767 22.8688 17.3867 22.6155 17.5C22.7755 17.5667 22.9155 17.6567 23.0355 17.77C23.1621 17.8767 23.2755 18.0233 23.3755 18.21L27.6955 25H26.0855C25.8388 25 25.6655 24.9667 25.5655 24.9C25.4655 24.8267 25.3788 24.7267 25.3055 24.6L21.5455 18.88C21.4455 18.7133 21.3288 18.5967 21.1955 18.53C21.0621 18.4567 20.8521 18.42 20.5655 18.42H19.7555L18.9455 25H17.0855L18.8355 10.67H20.7055L19.9255 16.98ZM33.447 16.01C33.027 16.01 32.6404 16.0967 32.287 16.27C31.9337 16.4433 31.6204 16.6833 31.347 16.99C31.0737 17.29 30.8404 17.6467 30.647 18.06C30.4537 18.4667 30.3037 18.9067 30.197 19.38C31.2237 19.2533 32.047 19.11 32.667 18.95C33.287 18.7833 33.7637 18.6067 34.097 18.42C34.4304 18.2267 34.6504 18.02 34.757 17.8C34.8637 17.58 34.917 17.35 34.917 17.11C34.917 16.99 34.8904 16.8667 34.837 16.74C34.7837 16.6067 34.697 16.4867 34.577 16.38C34.4637 16.2733 34.3137 16.1867 34.127 16.12C33.9404 16.0467 33.7137 16.01 33.447 16.01ZM36.267 23.13C35.927 23.4833 35.5937 23.7867 35.267 24.04C34.9404 24.2867 34.607 24.4933 34.267 24.66C33.9337 24.8267 33.5804 24.9467 33.207 25.02C32.8404 25.1 32.4437 25.14 32.017 25.14C31.437 25.14 30.917 25.0433 30.457 24.85C29.997 24.6567 29.607 24.3833 29.287 24.03C28.967 23.67 28.7204 23.2367 28.547 22.73C28.3737 22.2233 28.287 21.6567 28.287 21.03C28.287 20.51 28.3404 19.9933 28.447 19.48C28.5604 18.96 28.7204 18.4667 28.927 18C29.1404 17.5333 29.397 17.1 29.697 16.7C30.0037 16.3 30.3504 15.9567 30.737 15.67C31.1304 15.3767 31.5604 15.1467 32.027 14.98C32.5004 14.8133 33.007 14.73 33.547 14.73C34.0604 14.73 34.5037 14.8033 34.877 14.95C35.2504 15.0967 35.557 15.2833 35.797 15.51C36.037 15.7367 36.2137 15.9867 36.327 16.26C36.447 16.5333 36.507 16.7933 36.507 17.04C36.507 17.48 36.417 17.8867 36.237 18.26C36.057 18.6267 35.727 18.96 35.247 19.26C34.767 19.5533 34.107 19.81 33.267 20.03C32.427 20.25 31.347 20.4267 30.027 20.56C30.027 20.6333 30.0237 20.7067 30.017 20.78C30.017 20.8467 30.017 20.9167 30.017 20.99C30.017 21.8833 30.2104 22.5667 30.597 23.04C30.9904 23.5067 31.5804 23.74 32.367 23.74C32.687 23.74 32.9704 23.7067 33.217 23.64C33.4704 23.5733 33.6937 23.4933 33.887 23.4C34.087 23.3 34.2604 23.1933 34.407 23.08C34.5604 22.96 34.697 22.8533 34.817 22.76C34.9437 22.66 35.0604 22.5767 35.167 22.51C35.2737 22.4433 35.3804 22.41 35.487 22.41C35.6137 22.41 35.727 22.4667 35.827 22.58L36.267 23.13ZM42.9783 16.01C42.5583 16.01 42.1716 16.0967 41.8183 16.27C41.4649 16.4433 41.1516 16.6833 40.8783 16.99C40.6049 17.29 40.3716 17.6467 40.1783 18.06C39.9849 18.4667 39.8349 18.9067 39.7283 19.38C40.7549 19.2533 41.5783 19.11 42.1983 18.95C42.8183 18.7833 43.2949 18.6067 43.6283 18.42C43.9616 18.2267 44.1816 18.02 44.2883 17.8C44.3949 17.58 44.4483 17.35 44.4483 17.11C44.4483 16.99 44.4216 16.8667 44.3683 16.74C44.3149 16.6067 44.2283 16.4867 44.1083 16.38C43.9949 16.2733 43.8449 16.1867 43.6583 16.12C43.4716 16.0467 43.2449 16.01 42.9783 16.01ZM45.7983 23.13C45.4583 23.4833 45.1249 23.7867 44.7983 24.04C44.4716 24.2867 44.1383 24.4933 43.7983 24.66C43.4649 24.8267 43.1116 24.9467 42.7383 25.02C42.3716 25.1 41.9749 25.14 41.5483 25.14C40.9683 25.14 40.4483 25.0433 39.9883 24.85C39.5283 24.6567 39.1383 24.3833 38.8183 24.03C38.4983 23.67 38.2516 23.2367 38.0783 22.73C37.9049 22.2233 37.8183 21.6567 37.8183 21.03C37.8183 20.51 37.8716 19.9933 37.9783 19.48C38.0916 18.96 38.2516 18.4667 38.4583 18C38.6716 17.5333 38.9283 17.1 39.2283 16.7C39.5349 16.3 39.8816 15.9567 40.2683 15.67C40.6616 15.3767 41.0916 15.1467 41.5583 14.98C42.0316 14.8133 42.5383 14.73 43.0783 14.73C43.5916 14.73 44.0349 14.8033 44.4083 14.95C44.7816 15.0967 45.0883 15.2833 45.3283 15.51C45.5683 15.7367 45.7449 15.9867 45.8583 16.26C45.9783 16.5333 46.0383 16.7933 46.0383 17.04C46.0383 17.48 45.9483 17.8867 45.7683 18.26C45.5883 18.6267 45.2583 18.96 44.7783 19.26C44.2983 19.5533 43.6383 19.81 42.7983 20.03C41.9583 20.25 40.8783 20.4267 39.5583 20.56C39.5583 20.6333 39.5549 20.7067 39.5483 20.78C39.5483 20.8467 39.5483 20.9167 39.5483 20.99C39.5483 21.8833 39.7416 22.5667 40.1283 23.04C40.5216 23.5067 41.1116 23.74 41.8983 23.74C42.2183 23.74 42.5016 23.7067 42.7483 23.64C43.0016 23.5733 43.2249 23.4933 43.4183 23.4C43.6183 23.3 43.7916 23.1933 43.9383 23.08C44.0916 22.96 44.2283 22.8533 44.3483 22.76C44.4749 22.66 44.5916 22.5767 44.6983 22.51C44.8049 22.4433 44.9116 22.41 45.0183 22.41C45.1449 22.41 45.2583 22.4667 45.3583 22.58L45.7983 23.13ZM49.3986 22.78C49.6519 23.1333 49.9553 23.3867 50.3086 23.54C50.6619 23.6867 51.0219 23.76 51.3886 23.76C51.7353 23.76 52.0619 23.6867 52.3686 23.54C52.6753 23.3933 52.9553 23.1967 53.2086 22.95C53.4619 22.6967 53.6886 22.4033 53.8886 22.07C54.0886 21.73 54.2553 21.37 54.3886 20.99C54.5286 20.6033 54.6353 20.2067 54.7086 19.8C54.7819 19.3867 54.8186 18.98 54.8186 18.58C54.8186 17.7867 54.6753 17.1833 54.3886 16.77C54.1019 16.3567 53.6986 16.15 53.1786 16.15C52.8586 16.15 52.5353 16.25 52.2086 16.45C51.8819 16.6433 51.5653 16.9167 51.2586 17.27C50.9586 17.6233 50.6753 18.0433 50.4086 18.53C50.1486 19.0167 49.9219 19.55 49.7286 20.13L49.3986 22.78ZM49.9386 17.62C50.1919 17.18 50.4686 16.7833 50.7686 16.43C51.0686 16.07 51.3853 15.7633 51.7186 15.51C52.0519 15.2567 52.3953 15.0633 52.7486 14.93C53.1086 14.79 53.4753 14.72 53.8486 14.72C54.7153 14.72 55.3853 15.0333 55.8586 15.66C56.3386 16.2867 56.5786 17.2033 56.5786 18.41C56.5786 18.9567 56.5219 19.5033 56.4086 20.05C56.2953 20.5967 56.1319 21.12 55.9186 21.62C55.7119 22.1133 55.4586 22.5767 55.1586 23.01C54.8653 23.4367 54.5353 23.81 54.1686 24.13C53.8086 24.4433 53.4153 24.69 52.9886 24.87C52.5619 25.05 52.1153 25.14 51.6486 25.14C51.1486 25.14 50.6953 25.0433 50.2886 24.85C49.8819 24.65 49.5353 24.37 49.2486 24.01L48.7086 28.43H46.9786L48.6286 14.86H49.5086C49.9086 14.86 50.1086 15.06 50.1086 15.46L49.9386 17.62ZM69.8025 17.08C69.5492 16.72 69.2425 16.47 68.8825 16.33C68.5292 16.1833 68.1692 16.11 67.8025 16.11C67.2758 16.11 66.8025 16.2667 66.3825 16.58C65.9625 16.8933 65.6025 17.3 65.3025 17.8C65.0092 18.2933 64.7825 18.8467 64.6225 19.46C64.4625 20.0733 64.3825 20.6767 64.3825 21.27C64.3825 22.0633 64.5225 22.67 64.8025 23.09C65.0892 23.5033 65.4958 23.71 66.0225 23.71C66.3425 23.71 66.6658 23.61 66.9925 23.41C67.3192 23.21 67.6325 22.9333 67.9325 22.58C68.2392 22.22 68.5225 21.7967 68.7825 21.31C69.0492 20.8233 69.2792 20.29 69.4725 19.71L69.8025 17.08ZM72.3825 10.27L70.5725 25H69.6425C69.4092 25 69.2525 24.94 69.1725 24.82C69.0925 24.7 69.0525 24.5533 69.0525 24.38L69.2425 22.25C68.9892 22.69 68.7125 23.0867 68.4125 23.44C68.1125 23.7933 67.7958 24.0967 67.4625 24.35C67.1358 24.6033 66.7925 24.8 66.4325 24.94C66.0792 25.0733 65.7192 25.14 65.3525 25.14C64.4858 25.14 63.8125 24.8267 63.3325 24.2C62.8525 23.5667 62.6125 22.65 62.6125 21.45C62.6125 20.9033 62.6692 20.3567 62.7825 19.81C62.8958 19.2633 63.0558 18.74 63.2625 18.24C63.4758 17.74 63.7292 17.2767 64.0225 16.85C64.3225 16.4167 64.6558 16.0433 65.0225 15.73C65.3892 15.4167 65.7825 15.17 66.2025 14.99C66.6292 14.81 67.0758 14.72 67.5425 14.72C68.0425 14.72 68.4958 14.82 68.9025 15.02C69.3158 15.2133 69.6658 15.49 69.9525 15.85L70.6425 10.27H72.3825ZM76.3084 14.87L75.0884 25H73.3384L74.5584 14.87H76.3084ZM76.9884 11.69C76.9884 11.8633 76.9518 12.0267 76.8784 12.18C76.8118 12.3267 76.7184 12.46 76.5984 12.58C76.4851 12.6933 76.3518 12.7833 76.1984 12.85C76.0518 12.9167 75.8984 12.95 75.7384 12.95C75.5851 12.95 75.4351 12.9167 75.2884 12.85C75.1418 12.7833 75.0118 12.6933 74.8984 12.58C74.7918 12.46 74.7051 12.3267 74.6384 12.18C74.5718 12.0267 74.5384 11.8633 74.5384 11.69C74.5384 11.5167 74.5718 11.3533 74.6384 11.2C74.7051 11.0467 74.7951 10.9133 74.9084 10.8C75.0218 10.68 75.1518 10.5867 75.2984 10.52C75.4451 10.4467 75.5951 10.41 75.7484 10.41C75.9084 10.41 76.0618 10.4433 76.2084 10.51C76.3618 10.5767 76.4951 10.67 76.6084 10.79C76.7218 10.9033 76.8118 11.04 76.8784 11.2C76.9518 11.3533 76.9884 11.5167 76.9884 11.69ZM84.3778 16.49C84.3245 16.57 84.2711 16.63 84.2178 16.67C84.1645 16.7033 84.0978 16.72 84.0178 16.72C83.9245 16.72 83.8211 16.6833 83.7078 16.61C83.6011 16.5367 83.4678 16.4567 83.3078 16.37C83.1545 16.2767 82.9645 16.1933 82.7378 16.12C82.5111 16.04 82.2378 16 81.9178 16C81.6178 16 81.3445 16.0433 81.0978 16.13C80.8511 16.21 80.6378 16.3233 80.4578 16.47C80.2845 16.6167 80.1478 16.79 80.0478 16.99C79.9545 17.1833 79.9078 17.39 79.9078 17.61C79.9078 17.9233 80.0111 18.1733 80.2178 18.36C80.4245 18.5467 80.6845 18.71 80.9978 18.85C81.3111 18.9833 81.6478 19.1133 82.0078 19.24C82.3678 19.3667 82.7045 19.5267 83.0178 19.72C83.3311 19.9133 83.5911 20.16 83.7978 20.46C84.0045 20.76 84.1078 21.15 84.1078 21.63C84.1078 22.0967 84.0145 22.5433 83.8278 22.97C83.6478 23.3967 83.3845 23.7733 83.0378 24.1C82.6978 24.42 82.2845 24.6767 81.7978 24.87C81.3178 25.0633 80.7778 25.16 80.1778 25.16C79.5311 25.16 78.9578 25.0467 78.4578 24.82C77.9645 24.5867 77.5611 24.29 77.2478 23.93L77.6878 23.25C77.7478 23.1633 77.8111 23.0967 77.8778 23.05C77.9511 23.0033 78.0445 22.98 78.1578 22.98C78.2645 22.98 78.3711 23.0267 78.4778 23.12C78.5845 23.2133 78.7178 23.32 78.8778 23.44C79.0378 23.5533 79.2378 23.6567 79.4778 23.75C79.7245 23.8433 80.0345 23.89 80.4078 23.89C80.7345 23.89 81.0278 23.84 81.2878 23.74C81.5545 23.64 81.7778 23.5067 81.9578 23.34C82.1445 23.1733 82.2845 22.98 82.3778 22.76C82.4778 22.5333 82.5278 22.2933 82.5278 22.04C82.5278 21.7 82.4245 21.43 82.2178 21.23C82.0111 21.03 81.7511 20.8633 81.4378 20.73C81.1245 20.5967 80.7878 20.4733 80.4278 20.36C80.0678 20.24 79.7311 20.09 79.4178 19.91C79.1045 19.7233 78.8445 19.4833 78.6378 19.19C78.4311 18.8967 78.3278 18.5067 78.3278 18.02C78.3278 17.5933 78.4111 17.1833 78.5778 16.79C78.7511 16.39 78.9978 16.0367 79.3178 15.73C79.6378 15.4233 80.0245 15.18 80.4778 15C80.9378 14.8133 81.4545 14.72 82.0278 14.72C82.6345 14.72 83.1678 14.8233 83.6278 15.03C84.0945 15.23 84.4945 15.5033 84.8278 15.85L84.3778 16.49ZM86.6556 23.09C86.6556 23.05 86.6556 23 86.6556 22.94C86.6556 22.8733 86.659 22.78 86.6656 22.66C86.679 22.54 86.6956 22.3833 86.7156 22.19C86.7423 21.9967 86.7756 21.7433 86.8156 21.43L87.4356 16.36H86.3056C86.2123 16.36 86.1356 16.33 86.0756 16.27C86.0223 16.2033 86.0023 16.1033 86.0156 15.97L86.0956 15.26L87.6556 15.05L88.4156 11.92C88.449 11.82 88.499 11.74 88.5656 11.68C88.639 11.6133 88.729 11.58 88.8356 11.58H89.7656L89.3356 15.07H91.9956L91.8456 16.36H89.1756L88.5656 21.34C88.5323 21.6133 88.5056 21.8333 88.4856 22C88.4656 22.1667 88.449 22.3 88.4356 22.4C88.429 22.5 88.4223 22.57 88.4156 22.61C88.4156 22.65 88.4156 22.68 88.4156 22.7C88.4156 23.04 88.4956 23.2933 88.6556 23.46C88.8156 23.62 89.029 23.7 89.2956 23.7C89.4756 23.7 89.629 23.6767 89.7556 23.63C89.889 23.5767 90.0056 23.52 90.1056 23.46C90.2056 23.4 90.289 23.3467 90.3556 23.3C90.4223 23.2467 90.479 23.22 90.5256 23.22C90.5856 23.22 90.629 23.2333 90.6556 23.26C90.689 23.2867 90.719 23.33 90.7456 23.39L91.1256 24.24C90.799 24.5267 90.4256 24.7533 90.0056 24.92C89.5923 25.08 89.1756 25.16 88.7556 25.16C88.109 25.16 87.599 24.9833 87.2256 24.63C86.859 24.2767 86.669 23.7633 86.6556 23.09ZM99.6902 16.11C99.5435 16.0767 99.3968 16.0567 99.2502 16.05C99.1102 16.0367 98.9702 16.03 98.8302 16.03C98.4302 16.03 98.0435 16.0967 97.6702 16.23C97.2968 16.3567 96.9468 16.5367 96.6202 16.77C96.2935 17.0033 95.9968 17.2833 95.7302 17.61C95.4635 17.93 95.2335 18.2833 95.0402 18.67C94.8535 19.0567 94.7068 19.47 94.6002 19.91C94.4935 20.3433 94.4402 20.79 94.4402 21.25C94.4402 22.8567 94.9535 23.66 95.9802 23.66C96.3068 23.66 96.6268 23.56 96.9402 23.36C97.2535 23.1533 97.5502 22.87 97.8302 22.51C98.1168 22.1433 98.3802 21.7133 98.6202 21.22C98.8602 20.72 99.0735 20.1733 99.2602 19.58L99.6902 16.11ZM99.0102 22.33C98.7702 22.7567 98.5102 23.1433 98.2302 23.49C97.9568 23.8367 97.6635 24.1333 97.3502 24.38C97.0435 24.62 96.7168 24.8067 96.3702 24.94C96.0302 25.0733 95.6768 25.14 95.3102 25.14C94.9102 25.14 94.5468 25.0633 94.2202 24.91C93.8935 24.75 93.6135 24.52 93.3802 24.22C93.1535 23.9133 92.9768 23.54 92.8502 23.1C92.7235 22.6533 92.6602 22.1433 92.6602 21.57C92.6602 20.97 92.7335 20.3867 92.8802 19.82C93.0335 19.2467 93.2468 18.7067 93.5202 18.2C93.8002 17.6933 94.1335 17.23 94.5202 16.81C94.9068 16.3833 95.3368 16.0167 95.8102 15.71C96.2902 15.3967 96.8035 15.1567 97.3502 14.99C97.8968 14.8167 98.4702 14.73 99.0702 14.73C99.5035 14.73 99.9235 14.7667 100.33 14.84C100.743 14.9067 101.15 15.0267 101.55 15.2L100.34 25H99.4202C99.1868 25 99.0268 24.94 98.9402 24.82C98.8602 24.7 98.8202 24.5533 98.8202 24.38L99.0102 22.33ZM105.515 17.43C106.055 16.5367 106.665 15.8633 107.345 15.41C108.025 14.95 108.725 14.72 109.445 14.72C109.872 14.72 110.245 14.8067 110.565 14.98C110.892 15.1467 111.155 15.3933 111.355 15.72C111.562 16.0467 111.702 16.45 111.775 16.93C111.848 17.4033 111.848 17.9433 111.775 18.55L111.015 25H109.245L110.005 18.55C110.098 17.75 110.048 17.16 109.855 16.78C109.662 16.3933 109.305 16.2 108.785 16.2C108.465 16.2 108.138 16.2867 107.805 16.46C107.478 16.6333 107.162 16.88 106.855 17.2C106.548 17.52 106.262 17.9067 105.995 18.36C105.735 18.8067 105.512 19.3067 105.325 19.86L104.745 25H102.965L104.185 14.86H105.065C105.465 14.86 105.665 15.06 105.665 15.46L105.515 17.43ZM121.16 23.18C120.814 23.56 120.484 23.8767 120.17 24.13C119.857 24.3833 119.544 24.5867 119.23 24.74C118.917 24.8867 118.59 24.99 118.25 25.05C117.917 25.11 117.557 25.14 117.17 25.14C116.584 25.14 116.064 25.04 115.61 24.84C115.164 24.64 114.787 24.36 114.48 24C114.18 23.6333 113.95 23.1967 113.79 22.69C113.637 22.1767 113.56 21.6133 113.56 21C113.56 20.18 113.687 19.3933 113.94 18.64C114.2 17.8867 114.56 17.22 115.02 16.64C115.48 16.06 116.027 15.5967 116.66 15.25C117.3 14.9033 117.997 14.73 118.75 14.73C119.424 14.73 119.987 14.85 120.44 15.09C120.894 15.3233 121.29 15.6667 121.63 16.12L121.07 16.79C121.024 16.8433 120.97 16.8867 120.91 16.92C120.857 16.9533 120.794 16.97 120.72 16.97C120.627 16.97 120.534 16.93 120.44 16.85C120.354 16.7633 120.237 16.67 120.09 16.57C119.944 16.4633 119.76 16.37 119.54 16.29C119.327 16.2033 119.05 16.16 118.71 16.16C118.25 16.16 117.817 16.2867 117.41 16.54C117.004 16.7867 116.647 17.1267 116.34 17.56C116.034 17.9933 115.79 18.5067 115.61 19.1C115.437 19.6933 115.35 20.33 115.35 21.01C115.35 21.4233 115.397 21.8 115.49 22.14C115.584 22.4733 115.724 22.76 115.91 23C116.097 23.2333 116.324 23.4167 116.59 23.55C116.864 23.6767 117.18 23.74 117.54 23.74C117.987 23.74 118.36 23.6733 118.66 23.54C118.967 23.4067 119.224 23.2633 119.43 23.11C119.637 22.95 119.81 22.8033 119.95 22.67C120.097 22.5367 120.24 22.47 120.38 22.47C120.507 22.47 120.62 22.5267 120.72 22.64L121.16 23.18ZM127.607 16.01C127.187 16.01 126.801 16.0967 126.447 16.27C126.094 16.4433 125.781 16.6833 125.507 16.99C125.234 17.29 125.001 17.6467 124.807 18.06C124.614 18.4667 124.464 18.9067 124.357 19.38C125.384 19.2533 126.207 19.11 126.827 18.95C127.447 18.7833 127.924 18.6067 128.257 18.42C128.591 18.2267 128.811 18.02 128.917 17.8C129.024 17.58 129.077 17.35 129.077 17.11C129.077 16.99 129.051 16.8667 128.997 16.74C128.944 16.6067 128.857 16.4867 128.737 16.38C128.624 16.2733 128.474 16.1867 128.287 16.12C128.101 16.0467 127.874 16.01 127.607 16.01ZM130.427 23.13C130.087 23.4833 129.754 23.7867 129.427 24.04C129.101 24.2867 128.767 24.4933 128.427 24.66C128.094 24.8267 127.741 24.9467 127.367 25.02C127.001 25.1 126.604 25.14 126.177 25.14C125.597 25.14 125.077 25.0433 124.617 24.85C124.157 24.6567 123.767 24.3833 123.447 24.03C123.127 23.67 122.881 23.2367 122.707 22.73C122.534 22.2233 122.447 21.6567 122.447 21.03C122.447 20.51 122.501 19.9933 122.607 19.48C122.721 18.96 122.881 18.4667 123.087 18C123.301 17.5333 123.557 17.1 123.857 16.7C124.164 16.3 124.511 15.9567 124.897 15.67C125.291 15.3767 125.721 15.1467 126.187 14.98C126.661 14.8133 127.167 14.73 127.707 14.73C128.221 14.73 128.664 14.8033 129.037 14.95C129.411 15.0967 129.717 15.2833 129.957 15.51C130.197 15.7367 130.374 15.9867 130.487 16.26C130.607 16.5333 130.667 16.7933 130.667 17.04C130.667 17.48 130.577 17.8867 130.397 18.26C130.217 18.6267 129.887 18.96 129.407 19.26C128.927 19.5533 128.267 19.81 127.427 20.03C126.587 20.25 125.507 20.4267 124.187 20.56C124.187 20.6333 124.184 20.7067 124.177 20.78C124.177 20.8467 124.177 20.9167 124.177 20.99C124.177 21.8833 124.371 22.5667 124.757 23.04C125.151 23.5067 125.741 23.74 126.527 23.74C126.847 23.74 127.131 23.7067 127.377 23.64C127.631 23.5733 127.854 23.4933 128.047 23.4C128.247 23.3 128.421 23.1933 128.567 23.08C128.721 22.96 128.857 22.8533 128.977 22.76C129.104 22.66 129.221 22.5767 129.327 22.51C129.434 22.4433 129.541 22.41 129.647 22.41C129.774 22.41 129.887 22.4667 129.987 22.58L130.427 23.13ZM140.075 16.35L139.065 24.67L138.595 26.74C138.522 26.98 138.412 27.1633 138.265 27.29C138.125 27.4233 137.928 27.49 137.675 27.49H136.985L138.325 16.38L137.325 16.25C137.205 16.2167 137.108 16.1667 137.035 16.1C136.968 16.0333 136.942 15.93 136.955 15.79L137.045 15.07H138.485L138.605 14.09C138.678 13.51 138.822 12.9967 139.035 12.55C139.255 12.0967 139.528 11.7167 139.855 11.41C140.188 11.0967 140.565 10.86 140.985 10.7C141.412 10.54 141.872 10.46 142.365 10.46C142.772 10.46 143.148 10.5267 143.495 10.66L143.325 11.58C143.298 11.7133 143.208 11.78 143.055 11.78C142.902 11.78 142.708 11.78 142.475 11.78C142.188 11.78 141.922 11.8233 141.675 11.91C141.435 11.99 141.222 12.1233 141.035 12.31C140.848 12.4967 140.688 12.74 140.555 13.04C140.428 13.34 140.338 13.7067 140.285 14.14L140.175 15.07H142.705L142.535 16.35H140.075ZM145.661 17.69C145.928 17.1233 146.215 16.6333 146.521 16.22C146.835 15.8 147.161 15.4733 147.501 15.24C147.841 15 148.191 14.8567 148.551 14.81C148.911 14.7567 149.278 14.81 149.651 14.97L149.331 16.68C148.465 16.3333 147.698 16.46 147.031 17.06C146.371 17.66 145.835 18.7433 145.421 20.31L144.861 25H143.121L144.341 14.86H145.221C145.628 14.86 145.831 15.06 145.831 15.46L145.661 17.69ZM153.526 23.75C154.013 23.75 154.453 23.6167 154.846 23.35C155.246 23.0833 155.586 22.73 155.866 22.29C156.153 21.8433 156.373 21.33 156.526 20.75C156.679 20.17 156.756 19.5633 156.756 18.93C156.756 17.9967 156.569 17.2967 156.196 16.83C155.829 16.3567 155.299 16.12 154.606 16.12C154.113 16.12 153.666 16.2533 153.266 16.52C152.873 16.78 152.536 17.13 152.256 17.57C151.976 18.01 151.759 18.52 151.606 19.1C151.453 19.68 151.376 20.2867 151.376 20.92C151.376 21.8533 151.559 22.56 151.926 23.04C152.293 23.5133 152.826 23.75 153.526 23.75ZM153.356 25.14C152.803 25.14 152.296 25.0467 151.836 24.86C151.376 24.6667 150.979 24.39 150.646 24.03C150.313 23.67 150.053 23.23 149.866 22.71C149.679 22.19 149.586 21.5967 149.586 20.93C149.586 20.0767 149.719 19.2733 149.986 18.52C150.253 17.7667 150.619 17.11 151.086 16.55C151.553 15.9833 152.099 15.5367 152.726 15.21C153.359 14.8833 154.039 14.72 154.766 14.72C155.319 14.72 155.826 14.8167 156.286 15.01C156.746 15.1967 157.143 15.47 157.476 15.83C157.809 16.19 158.069 16.63 158.256 17.15C158.443 17.67 158.536 18.26 158.536 18.92C158.536 19.7667 158.403 20.5667 158.136 21.32C157.869 22.0733 157.503 22.7333 157.036 23.3C156.576 23.8667 156.029 24.3167 155.396 24.65C154.763 24.9767 154.083 25.14 153.356 25.14ZM159.957 25L161.177 14.86H162.057C162.464 14.86 162.667 15.06 162.667 15.46L162.527 17.26C163.027 16.4267 163.574 15.7967 164.167 15.37C164.767 14.9367 165.394 14.72 166.047 14.72C166.734 14.72 167.241 14.9567 167.567 15.43C167.894 15.8967 168.057 16.5667 168.057 17.44C168.557 16.5133 169.121 15.83 169.747 15.39C170.381 14.9433 171.047 14.72 171.747 14.72C172.614 14.72 173.227 15.0533 173.587 15.72C173.947 16.3867 174.054 17.33 173.907 18.55L173.147 25H171.387L172.157 18.55C172.251 17.7567 172.224 17.1667 172.077 16.78C171.937 16.3933 171.617 16.2 171.117 16.2C170.831 16.2 170.544 16.2733 170.257 16.42C169.977 16.56 169.704 16.77 169.437 17.05C169.171 17.3233 168.921 17.6667 168.687 18.08C168.461 18.4867 168.257 18.9567 168.077 19.49V19.5L167.427 25H165.667L166.427 18.55C166.527 17.7567 166.514 17.1667 166.387 16.78C166.261 16.3933 165.947 16.2 165.447 16.2C165.127 16.2 164.817 16.28 164.517 16.44C164.224 16.6 163.944 16.8333 163.677 17.14C163.417 17.44 163.174 17.81 162.947 18.25C162.721 18.6833 162.514 19.1733 162.327 19.72L161.697 25H159.957ZM182.387 22.78C182.64 23.1333 182.944 23.3867 183.297 23.54C183.65 23.6867 184.01 23.76 184.377 23.76C184.724 23.76 185.05 23.6867 185.357 23.54C185.664 23.3933 185.944 23.1967 186.197 22.95C186.45 22.6967 186.677 22.4033 186.877 22.07C187.077 21.73 187.244 21.37 187.377 20.99C187.517 20.6033 187.624 20.2067 187.697 19.8C187.77 19.3867 187.807 18.98 187.807 18.58C187.807 17.7867 187.664 17.1833 187.377 16.77C187.09 16.3567 186.687 16.15 186.167 16.15C185.847 16.15 185.524 16.25 185.197 16.45C184.87 16.6433 184.554 16.9167 184.247 17.27C183.947 17.6233 183.664 18.0433 183.397 18.53C183.137 19.0167 182.91 19.55 182.717 20.13L182.387 22.78ZM182.927 17.62C183.18 17.18 183.457 16.7833 183.757 16.43C184.057 16.07 184.374 15.7633 184.707 15.51C185.04 15.2567 185.384 15.0633 185.737 14.93C186.097 14.79 186.464 14.72 186.837 14.72C187.704 14.72 188.374 15.0333 188.847 15.66C189.327 16.2867 189.567 17.2033 189.567 18.41C189.567 18.9567 189.51 19.5033 189.397 20.05C189.284 20.5967 189.12 21.12 188.907 21.62C188.7 22.1133 188.447 22.5767 188.147 23.01C187.854 23.4367 187.524 23.81 187.157 24.13C186.797 24.4433 186.404 24.69 185.977 24.87C185.55 25.05 185.104 25.14 184.637 25.14C184.137 25.14 183.684 25.0433 183.277 24.85C182.87 24.65 182.524 24.37 182.237 24.01L181.697 28.43H179.967L181.617 14.86H182.497C182.897 14.86 183.097 15.06 183.097 15.46L182.927 17.62ZM196.103 16.01C195.683 16.01 195.297 16.0967 194.943 16.27C194.59 16.4433 194.277 16.6833 194.003 16.99C193.73 17.29 193.497 17.6467 193.303 18.06C193.11 18.4667 192.96 18.9067 192.853 19.38C193.88 19.2533 194.703 19.11 195.323 18.95C195.943 18.7833 196.42 18.6067 196.753 18.42C197.087 18.2267 197.307 18.02 197.413 17.8C197.52 17.58 197.573 17.35 197.573 17.11C197.573 16.99 197.547 16.8667 197.493 16.74C197.44 16.6067 197.353 16.4867 197.233 16.38C197.12 16.2733 196.97 16.1867 196.783 16.12C196.597 16.0467 196.37 16.01 196.103 16.01ZM198.923 23.13C198.583 23.4833 198.25 23.7867 197.923 24.04C197.597 24.2867 197.263 24.4933 196.923 24.66C196.59 24.8267 196.237 24.9467 195.863 25.02C195.497 25.1 195.1 25.14 194.673 25.14C194.093 25.14 193.573 25.0433 193.113 24.85C192.653 24.6567 192.263 24.3833 191.943 24.03C191.623 23.67 191.377 23.2367 191.203 22.73C191.03 22.2233 190.943 21.6567 190.943 21.03C190.943 20.51 190.997 19.9933 191.103 19.48C191.217 18.96 191.377 18.4667 191.583 18C191.797 17.5333 192.053 17.1 192.353 16.7C192.66 16.3 193.007 15.9567 193.393 15.67C193.787 15.3767 194.217 15.1467 194.683 14.98C195.157 14.8133 195.663 14.73 196.203 14.73C196.717 14.73 197.16 14.8033 197.533 14.95C197.907 15.0967 198.213 15.2833 198.453 15.51C198.693 15.7367 198.87 15.9867 198.983 16.26C199.103 16.5333 199.163 16.7933 199.163 17.04C199.163 17.48 199.073 17.8867 198.893 18.26C198.713 18.6267 198.383 18.96 197.903 19.26C197.423 19.5533 196.763 19.81 195.923 20.03C195.083 20.25 194.003 20.4267 192.683 20.56C192.683 20.6333 192.68 20.7067 192.673 20.78C192.673 20.8467 192.673 20.9167 192.673 20.99C192.673 21.8833 192.867 22.5667 193.253 23.04C193.647 23.5067 194.237 23.74 195.023 23.74C195.343 23.74 195.627 23.7067 195.873 23.64C196.127 23.5733 196.35 23.4933 196.543 23.4C196.743 23.3 196.917 23.1933 197.063 23.08C197.217 22.96 197.353 22.8533 197.473 22.76C197.6 22.66 197.717 22.5767 197.823 22.51C197.93 22.4433 198.037 22.41 198.143 22.41C198.27 22.41 198.383 22.4667 198.483 22.58L198.923 23.13ZM204.425 23.75C204.911 23.75 205.351 23.6167 205.745 23.35C206.145 23.0833 206.485 22.73 206.765 22.29C207.051 21.8433 207.271 21.33 207.425 20.75C207.578 20.17 207.655 19.5633 207.655 18.93C207.655 17.9967 207.468 17.2967 207.095 16.83C206.728 16.3567 206.198 16.12 205.505 16.12C205.011 16.12 204.565 16.2533 204.165 16.52C203.771 16.78 203.435 17.13 203.155 17.57C202.875 18.01 202.658 18.52 202.505 19.1C202.351 19.68 202.275 20.2867 202.275 20.92C202.275 21.8533 202.458 22.56 202.825 23.04C203.191 23.5133 203.725 23.75 204.425 23.75ZM204.255 25.14C203.701 25.14 203.195 25.0467 202.735 24.86C202.275 24.6667 201.878 24.39 201.545 24.03C201.211 23.67 200.951 23.23 200.765 22.71C200.578 22.19 200.485 21.5967 200.485 20.93C200.485 20.0767 200.618 19.2733 200.885 18.52C201.151 17.7667 201.518 17.11 201.985 16.55C202.451 15.9833 202.998 15.5367 203.625 15.21C204.258 14.8833 204.938 14.72 205.665 14.72C206.218 14.72 206.725 14.8167 207.185 15.01C207.645 15.1967 208.041 15.47 208.375 15.83C208.708 16.19 208.968 16.63 209.155 17.15C209.341 17.67 209.435 18.26 209.435 18.92C209.435 19.7667 209.301 20.5667 209.035 21.32C208.768 22.0733 208.401 22.7333 207.935 23.3C207.475 23.8667 206.928 24.3167 206.295 24.65C205.661 24.9767 204.981 25.14 204.255 25.14ZM212.856 22.78C213.109 23.1333 213.412 23.3867 213.766 23.54C214.119 23.6867 214.479 23.76 214.846 23.76C215.192 23.76 215.519 23.6867 215.826 23.54C216.132 23.3933 216.412 23.1967 216.666 22.95C216.919 22.6967 217.146 22.4033 217.346 22.07C217.546 21.73 217.712 21.37 217.846 20.99C217.986 20.6033 218.092 20.2067 218.166 19.8C218.239 19.3867 218.276 18.98 218.276 18.58C218.276 17.7867 218.132 17.1833 217.846 16.77C217.559 16.3567 217.156 16.15 216.636 16.15C216.316 16.15 215.992 16.25 215.666 16.45C215.339 16.6433 215.022 16.9167 214.716 17.27C214.416 17.6233 214.132 18.0433 213.866 18.53C213.606 19.0167 213.379 19.55 213.186 20.13L212.856 22.78ZM213.396 17.62C213.649 17.18 213.926 16.7833 214.226 16.43C214.526 16.07 214.842 15.7633 215.176 15.51C215.509 15.2567 215.852 15.0633 216.206 14.93C216.566 14.79 216.932 14.72 217.306 14.72C218.172 14.72 218.842 15.0333 219.316 15.66C219.796 16.2867 220.036 17.2033 220.036 18.41C220.036 18.9567 219.979 19.5033 219.866 20.05C219.752 20.5967 219.589 21.12 219.376 21.62C219.169 22.1133 218.916 22.5767 218.616 23.01C218.322 23.4367 217.992 23.81 217.626 24.13C217.266 24.4433 216.872 24.69 216.446 24.87C216.019 25.05 215.572 25.14 215.106 25.14C214.606 25.14 214.152 25.0433 213.746 24.85C213.339 24.65 212.992 24.37 212.706 24.01L212.166 28.43H210.436L212.086 14.86H212.966C213.366 14.86 213.566 15.06 213.566 15.46L213.396 17.62ZM221.472 25L223.262 10.27H225.012L223.222 25H221.472ZM231.064 16.01C230.644 16.01 230.258 16.0967 229.904 16.27C229.551 16.4433 229.238 16.6833 228.964 16.99C228.691 17.29 228.458 17.6467 228.264 18.06C228.071 18.4667 227.921 18.9067 227.814 19.38C228.841 19.2533 229.664 19.11 230.284 18.95C230.904 18.7833 231.381 18.6067 231.714 18.42C232.048 18.2267 232.268 18.02 232.374 17.8C232.481 17.58 232.534 17.35 232.534 17.11C232.534 16.99 232.508 16.8667 232.454 16.74C232.401 16.6067 232.314 16.4867 232.194 16.38C232.081 16.2733 231.931 16.1867 231.744 16.12C231.558 16.0467 231.331 16.01 231.064 16.01ZM233.884 23.13C233.544 23.4833 233.211 23.7867 232.884 24.04C232.558 24.2867 232.224 24.4933 231.884 24.66C231.551 24.8267 231.198 24.9467 230.824 25.02C230.458 25.1 230.061 25.14 229.634 25.14C229.054 25.14 228.534 25.0433 228.074 24.85C227.614 24.6567 227.224 24.3833 226.904 24.03C226.584 23.67 226.338 23.2367 226.164 22.73C225.991 22.2233 225.904 21.6567 225.904 21.03C225.904 20.51 225.958 19.9933 226.064 19.48C226.178 18.96 226.338 18.4667 226.544 18C226.758 17.5333 227.014 17.1 227.314 16.7C227.621 16.3 227.968 15.9567 228.354 15.67C228.748 15.3767 229.178 15.1467 229.644 14.98C230.118 14.8133 230.624 14.73 231.164 14.73C231.678 14.73 232.121 14.8033 232.494 14.95C232.868 15.0967 233.174 15.2833 233.414 15.51C233.654 15.7367 233.831 15.9867 233.944 16.26C234.064 16.5333 234.124 16.7933 234.124 17.04C234.124 17.48 234.034 17.8867 233.854 18.26C233.674 18.6267 233.344 18.96 232.864 19.26C232.384 19.5533 231.724 19.81 230.884 20.03C230.044 20.25 228.964 20.4267 227.644 20.56C227.644 20.6333 227.641 20.7067 227.634 20.78C227.634 20.8467 227.634 20.9167 227.634 20.99C227.634 21.8833 227.828 22.5667 228.214 23.04C228.608 23.5067 229.198 23.74 229.984 23.74C230.304 23.74 230.588 23.7067 230.834 23.64C231.088 23.5733 231.311 23.4933 231.504 23.4C231.704 23.3 231.878 23.1933 232.024 23.08C232.178 22.96 232.314 22.8533 232.434 22.76C232.561 22.66 232.678 22.5767 232.784 22.51C232.891 22.4433 232.998 22.41 233.104 22.41C233.231 22.41 233.344 22.4667 233.444 22.58L233.884 23.13Z" fill="white"/>
</g>
<defs>
<clipPath id="clip0">
<rect width="251" height="254" fill="white"/>
</clipPath>
</defs>
</svg>
