<svg width="180" height="254" viewBox="0 0 180 254" fill="none" xmlns="http://www.w3.org/2000/svg">
<g clip-path="url(#clip0)">
<path fill-rule="evenodd" clip-rule="evenodd" d="M90 254C139.706 254 180 213.706 180 164C180 114.294 139.706 74 90 74C40.2944 74 0 114.294 0 164C0 213.706 40.2944 254 90 254Z" fill="#4F63D3" stroke="#8FA1F5" stroke-opacity="0.0969733" stroke-width="2"/>
<mask id="mask0" mask-type="alpha" maskUnits="userSpaceOnUse" x="-1" y="73" width="182" height="182">
<path fill-rule="evenodd" clip-rule="evenodd" d="M90 254C139.706 254 180 213.706 180 164C180 114.294 139.706 74 90 74C40.2944 74 0 114.294 0 164C0 213.706 40.2944 254 90 254Z" fill="white" stroke="white" stroke-width="2"/>
</mask>
<g mask="url(#mask0)">
<path d="M58 195.92C56.3 192.92 54.63 183.7 56.64 180.85C57.52 179.61 58.98 178.85 59.64 177.45C60.71 175.23 59.23 172.65 57.64 170.74C56.05 168.83 54.29 166.64 54.72 164.21C55.23 161.29 58.81 159.44 58.78 156.48C58.78 152.93 58.22 138.6 57.56 135.11C55.36 123.37 61.36 118.67 62.56 114.79C68 97.6 72.54 96.24 96.22 96.24C105.47 96.24 110.89 102.03 116.75 113.56C118.83 117.65 118.27 118.85 118.83 121.91C119.94 127.96 118.92 133.51 119.72 135.81C122.008 142.7 122.958 149.963 122.52 157.21C121.83 161.99 128.21 165.6 127.62 170.39C127.13 174.45 121.8 176.97 122.11 181.05C122.24 182.78 123.41 184.27 123.77 185.96C124.13 187.65 122.9 195.22 121.24 194.73L58 195.92Z" fill="#262836"/>
<path d="M65.49 238.14H110.72L134.48 230.84C136.26 227.34 133.87 196.08 130.48 195.12C121.58 192.6 115.02 189.84 106.31 186.87C104.828 186.485 103.457 185.755 102.31 184.74C101.2 183.56 101.68 154.57 101.68 154.57H78.72C78.72 154.57 79.2 183.57 78.09 184.74C76.9429 185.755 75.5724 186.485 74.09 186.87C65.38 189.87 58.26 192.6 49.36 195.12C45.99 196.12 45.65 229.9 47.44 233.4L65.49 238.14Z" fill="#F27E55"/>
<path d="M101.57 171.09C101.57 163.09 101.66 154.58 101.66 154.58H78.72C78.72 154.58 78.94 167.5 78.72 176.44C87 178 94.76 175.63 101.57 171.09Z" fill="black"/>
<path d="M147.8 200.08C144.8 197.51 135.47 195.39 133.31 194.93C124.06 192 106 186.76 106 186.76C106 189.38 97.7 224.7 90.9 224.6C83.64 224.5 74.76 189.05 74.1 186.1L44.71 196.64C43.19 196.96 33.07 199.16 29.97 201.85C27.8 203.73 25.38 244.93 22.97 259.06H157.69C155.34 244.91 150.05 202 147.8 200.08Z" fill="#FF7033"/>
<path d="M105.68 186.1C105.68 186.1 109.74 187.17 110.98 189.1C112.22 191.03 107.84 232.16 107.84 232.16C107.84 232.16 101.66 222.52 98.47 223.26C95.28 224 90.85 224.56 90.85 224.56C90.85 224.56 99.2 211.47 101.58 203.43C103.299 197.742 104.668 191.955 105.68 186.1Z" fill="white"/>
<path d="M75.33 185.54C75.33 185.54 71.27 186.61 70.02 188.54C68.77 190.47 73.16 232.12 73.16 232.12C73.16 232.12 79.8 223.05 83.08 223.05C85.501 223.177 87.8885 223.673 90.16 224.52C90.16 224.52 81.81 211.43 79.42 203.39C77.6707 197.535 76.3045 191.572 75.33 185.54V185.54Z" fill="white"/>
<path d="M112.76 122.74C112.76 130.04 112.76 145.9 107.14 155.13C102.46 162.84 95.47 168.76 89.67 168.76C83.87 168.76 76.9 162.88 72.23 155.2C66.62 146 66.57 130.06 66.57 122.74C66.57 109.33 76.91 103.56 89.67 103.56C102.43 103.56 112.76 109.34 112.76 122.74Z" fill="#F27E55"/>
<path d="M83.42 133.89C82.79 133.89 82.76 133.69 82.28 133.41C79.69 131.83 76.48 133.06 73.87 134.74C73.6 132.81 78.87 130.24 81.07 130.65C83.27 131.06 85.31 133.3 83.42 133.89Z" fill="#171642"/>
<path d="M95.33 133C96.55 128 104.97 131 105.47 134.34C103.05 132.96 99.95 131.44 97.03 133.24C96.67 133.32 95.18 134.43 95.33 133Z" fill="#171642"/>
<path d="M88.39 134C88.1019 136.4 88.4466 138.834 89.39 141.06C89.897 142.176 90.4992 143.247 91.19 144.26C91.82 145.26 92.28 146.32 91.5 147.38C90.5089 148.422 89.2492 149.169 87.86 149.54C87.33 149.74 87.56 150.6 88.1 150.4C90.1 149.61 93.44 148.26 92.74 145.46C92.2652 144.266 91.6402 143.136 90.88 142.1C90.2369 140.944 89.7653 139.701 89.48 138.41C89.1669 136.965 89.1026 135.477 89.29 134.01C89.37 133.44 88.47 133.44 88.4 134.01L88.39 134Z" fill="#AD4328"/>
<path d="M96.57 152C94.01 151.27 91.39 152.65 88.67 152.45C87.67 152.38 86.73 152.09 85.76 151.98C84.5942 151.751 83.388 152.072 82.49 152.85C82.49 152.85 83.74 155.31 85.08 155.95C86.5957 156.617 88.246 156.922 89.9 156.84C91.5275 156.928 93.1494 156.583 94.6 155.84C95.6735 154.821 96.3683 153.467 96.57 152Z" fill="white"/>
<path d="M100.47 139.89C101.597 139.89 102.51 138.977 102.51 137.85C102.51 136.723 101.597 135.81 100.47 135.81C99.3433 135.81 98.43 136.723 98.43 137.85C98.43 138.977 99.3433 139.89 100.47 139.89Z" fill="#171642"/>
<path d="M79.58 139.89C80.7066 139.89 81.62 138.977 81.62 137.85C81.62 136.723 80.7066 135.81 79.58 135.81C78.4533 135.81 77.54 136.723 77.54 137.85C77.54 138.977 78.4533 139.89 79.58 139.89Z" fill="#171642"/>
<path d="M112.76 147.64C116.112 147.64 118.83 144.922 118.83 141.57C118.83 138.218 116.112 135.5 112.76 135.5C109.408 135.5 106.69 138.218 106.69 141.57C106.69 144.922 109.408 147.64 112.76 147.64Z" fill="#F27E55"/>
<path d="M114.42 138.42C115.862 139.318 116.309 141.212 115.42 142.66C115.171 143.068 114.828 143.411 114.42 143.66C113.97 143.96 114.42 144.71 114.86 144.4C116.012 143.671 116.704 142.396 116.687 141.033C116.671 139.669 115.949 138.412 114.78 137.71C114.38 137.38 114 138.13 114.42 138.42Z" fill="#AD4328"/>
<path d="M66.58 147.65C69.9324 147.65 72.65 144.932 72.65 141.58C72.65 138.228 69.9324 135.51 66.58 135.51C63.2276 135.51 60.51 138.228 60.51 141.58C60.51 144.932 63.2276 147.65 66.58 147.65Z" fill="#F27E55"/>
<path d="M64.91 138.42C63.4676 139.318 63.0209 141.212 63.91 142.66C64.163 143.065 64.505 143.407 64.91 143.66C65.37 143.96 64.91 144.71 64.47 144.4C62.6368 143.229 62.0997 140.794 63.27 138.96C63.592 138.448 64.0306 138.02 64.55 137.71C65.02 137.41 65.45 138.16 64.98 138.45L64.91 138.42Z" fill="#AD4328"/>
<path d="M89.6 140.59C82.6 140.59 69.05 144.47 69.05 144.47C69.05 144.47 72.69 160.18 73.77 162.47C75.77 166.64 87.46 170.79 88.77 170.79H90.54C91.84 170.79 103.54 166.61 105.54 162.44C106.54 160.31 110.05 144.44 110.05 144.44C110.05 144.44 96.53 140.58 89.6 140.59Z" fill="#E6E6E6"/>
<path d="M82.57 143.16C84.6234 142.632 86.7174 142.278 88.83 142.1C91.1908 142.319 93.5312 142.72 95.83 143.3L82.57 143.16Z" fill="#E0E0E0"/>
<path d="M75.64 152.19L89.28 150.05L102.76 152.5L89.1 153.17L75.64 152.19Z" fill="#E3E3E3"/>
<path d="M73.93 160.87C79.0775 160.945 84.2238 160.655 89.33 160C95.44 160.54 101.04 161.18 105.63 161C100.185 161.702 94.708 162.129 89.22 162.28C84.28 162 79.16 161.44 73.93 160.87Z" fill="#E3E3E3"/>
<path d="M109.24 146.25C110.826 142.819 112.065 139.238 112.94 135.56C113 135.36 112.53 133.29 112.42 133.76C111.473 137.877 109.987 141.851 108 145.58C107.79 145.87 109.24 146.25 109.24 146.25Z" fill="#E6E6E6"/>
<path d="M107.57 154.71C108.74 152.248 110.101 149.88 111.64 147.63C111.264 147.392 110.834 147.251 110.39 147.22C109.11 149.57 107.63 151.66 106.52 154.1C106.38 154.4 107.43 155.01 107.52 154.71H107.57Z" fill="#E6E6E6"/>
<path d="M69.85 146.17C68.2609 142.739 67.018 139.158 66.14 135.48C66.14 135.27 66.56 133.21 66.66 133.68C67.6155 137.796 69.1119 141.767 71.11 145.49C71.3 145.79 69.85 146.17 69.85 146.17Z" fill="#E6E6E6"/>
<path d="M71.67 154.65C70.5036 152.189 69.1426 149.825 67.6 147.58C67.9721 147.333 68.404 147.192 68.85 147.17C70.13 149.52 71.61 151.61 72.72 154.04C72.86 154.34 71.81 154.95 71.72 154.65H71.67Z" fill="#E6E6E6"/>
<path d="M65.85 112.08C70.85 102.8 80.17 100.08 87.55 99.45C97.29 98.62 112.24 103.03 114.21 109.01C116.18 114.99 112.75 135.5 112.75 135.5L100.39 118.34C96.32 122.45 81 125 70.72 125C70.32 127.72 71.62 141.6 70.91 148.33C70.32 153.96 69.29 158.13 70.01 162.72C70.49 165.72 74.58 167.66 74.01 170.66C73.6791 171.691 73.2679 172.694 72.78 173.66C71.84 176.27 72.78 179.19 74.05 181.66C75.32 184.13 77.05 186.39 77.86 189.04C78.67 191.69 78.33 194.98 76.11 196.65H66.56C66.56 196.65 61.97 192.24 62.56 188.15C63.15 184.06 66.56 179.45 62.56 171.39C60.08 166.39 58.4 141.77 60.48 123.39C61 118.9 64.24 115.05 65.85 112.08Z" fill="#262836"/>
</g>
<path fill-rule="evenodd" clip-rule="evenodd" d="M90 254C139.706 254 180 213.706 180 164C180 114.294 139.706 74 90 74C40.2944 74 0 114.294 0 164C0 213.706 40.2944 254 90 254Z" stroke="#FECE00" stroke-width="2" stroke-dasharray="146"/>
<path d="M57.3073 23.53C57.8473 23.53 58.3407 23.4267 58.7873 23.22C59.234 23.0133 59.6273 22.73 59.9673 22.37C60.3073 22.0033 60.584 21.5667 60.7973 21.06C61.0173 20.5533 61.164 20 61.2373 19.4L62.3073 10.67H64.1773L63.1073 19.4C63.0073 20.22 62.7907 20.9833 62.4573 21.69C62.124 22.39 61.6973 23 61.1773 23.52C60.6573 24.0333 60.054 24.4367 59.3673 24.73C58.6807 25.0233 57.9273 25.17 57.1073 25.17C56.294 25.17 55.5773 25.0233 54.9573 24.73C54.344 24.4367 53.8407 24.0333 53.4473 23.52C53.054 23 52.7773 22.39 52.6173 21.69C52.464 20.9833 52.4373 20.22 52.5373 19.4L53.5973 10.67H55.4673L54.3973 19.39C54.324 19.99 54.334 20.5433 54.4273 21.05C54.5207 21.5567 54.6907 21.9933 54.9373 22.36C55.184 22.7267 55.504 23.0133 55.8973 23.22C56.2973 23.4267 56.7673 23.53 57.3073 23.53ZM71.3895 16.49C71.3362 16.57 71.2829 16.63 71.2295 16.67C71.1762 16.7033 71.1095 16.72 71.0295 16.72C70.9362 16.72 70.8329 16.6833 70.7195 16.61C70.6129 16.5367 70.4795 16.4567 70.3195 16.37C70.1662 16.2767 69.9762 16.1933 69.7495 16.12C69.5229 16.04 69.2495 16 68.9295 16C68.6295 16 68.3562 16.0433 68.1095 16.13C67.8629 16.21 67.6495 16.3233 67.4695 16.47C67.2962 16.6167 67.1595 16.79 67.0595 16.99C66.9662 17.1833 66.9195 17.39 66.9195 17.61C66.9195 17.9233 67.0229 18.1733 67.2295 18.36C67.4362 18.5467 67.6962 18.71 68.0095 18.85C68.3229 18.9833 68.6595 19.1133 69.0195 19.24C69.3795 19.3667 69.7162 19.5267 70.0295 19.72C70.3429 19.9133 70.6029 20.16 70.8095 20.46C71.0162 20.76 71.1195 21.15 71.1195 21.63C71.1195 22.0967 71.0262 22.5433 70.8395 22.97C70.6595 23.3967 70.3962 23.7733 70.0495 24.1C69.7095 24.42 69.2962 24.6767 68.8095 24.87C68.3295 25.0633 67.7895 25.16 67.1895 25.16C66.5429 25.16 65.9695 25.0467 65.4695 24.82C64.9762 24.5867 64.5729 24.29 64.2595 23.93L64.6995 23.25C64.7595 23.1633 64.8229 23.0967 64.8895 23.05C64.9629 23.0033 65.0562 22.98 65.1695 22.98C65.2762 22.98 65.3829 23.0267 65.4895 23.12C65.5962 23.2133 65.7295 23.32 65.8895 23.44C66.0495 23.5533 66.2495 23.6567 66.4895 23.75C66.7362 23.8433 67.0462 23.89 67.4195 23.89C67.7462 23.89 68.0395 23.84 68.2995 23.74C68.5662 23.64 68.7895 23.5067 68.9695 23.34C69.1562 23.1733 69.2962 22.98 69.3895 22.76C69.4895 22.5333 69.5395 22.2933 69.5395 22.04C69.5395 21.7 69.4362 21.43 69.2295 21.23C69.0229 21.03 68.7629 20.8633 68.4495 20.73C68.1362 20.5967 67.7995 20.4733 67.4395 20.36C67.0795 20.24 66.7429 20.09 66.4295 19.91C66.1162 19.7233 65.8562 19.4833 65.6495 19.19C65.4429 18.8967 65.3395 18.5067 65.3395 18.02C65.3395 17.5933 65.4229 17.1833 65.5895 16.79C65.7629 16.39 66.0095 16.0367 66.3295 15.73C66.6495 15.4233 67.0362 15.18 67.4895 15C67.9495 14.8133 68.4662 14.72 69.0395 14.72C69.6462 14.72 70.1795 14.8233 70.6395 15.03C71.1062 15.23 71.5062 15.5033 71.8395 15.85L71.3895 16.49ZM78.0173 16.01C77.5973 16.01 77.2107 16.0967 76.8573 16.27C76.504 16.4433 76.1907 16.6833 75.9173 16.99C75.644 17.29 75.4107 17.6467 75.2173 18.06C75.024 18.4667 74.874 18.9067 74.7673 19.38C75.794 19.2533 76.6173 19.11 77.2373 18.95C77.8573 18.7833 78.334 18.6067 78.6673 18.42C79.0007 18.2267 79.2207 18.02 79.3273 17.8C79.434 17.58 79.4873 17.35 79.4873 17.11C79.4873 16.99 79.4607 16.8667 79.4073 16.74C79.354 16.6067 79.2673 16.4867 79.1473 16.38C79.034 16.2733 78.884 16.1867 78.6973 16.12C78.5107 16.0467 78.284 16.01 78.0173 16.01ZM80.8373 23.13C80.4973 23.4833 80.164 23.7867 79.8373 24.04C79.5107 24.2867 79.1773 24.4933 78.8373 24.66C78.504 24.8267 78.1507 24.9467 77.7773 25.02C77.4107 25.1 77.014 25.14 76.5873 25.14C76.0073 25.14 75.4873 25.0433 75.0273 24.85C74.5673 24.6567 74.1773 24.3833 73.8573 24.03C73.5373 23.67 73.2907 23.2367 73.1173 22.73C72.944 22.2233 72.8573 21.6567 72.8573 21.03C72.8573 20.51 72.9107 19.9933 73.0173 19.48C73.1307 18.96 73.2907 18.4667 73.4973 18C73.7107 17.5333 73.9673 17.1 74.2673 16.7C74.574 16.3 74.9207 15.9567 75.3073 15.67C75.7007 15.3767 76.1307 15.1467 76.5973 14.98C77.0707 14.8133 77.5773 14.73 78.1173 14.73C78.6307 14.73 79.074 14.8033 79.4473 14.95C79.8207 15.0967 80.1273 15.2833 80.3673 15.51C80.6073 15.7367 80.784 15.9867 80.8973 16.26C81.0173 16.5333 81.0773 16.7933 81.0773 17.04C81.0773 17.48 80.9873 17.8867 80.8073 18.26C80.6273 18.6267 80.2973 18.96 79.8173 19.26C79.3373 19.5533 78.6773 19.81 77.8373 20.03C76.9973 20.25 75.9173 20.4267 74.5973 20.56C74.5973 20.6333 74.594 20.7067 74.5873 20.78C74.5873 20.8467 74.5873 20.9167 74.5873 20.99C74.5873 21.8833 74.7807 22.5667 75.1673 23.04C75.5607 23.5067 76.1507 23.74 76.9373 23.74C77.2573 23.74 77.5407 23.7067 77.7873 23.64C78.0407 23.5733 78.264 23.4933 78.4573 23.4C78.6573 23.3 78.8307 23.1933 78.9773 23.08C79.1307 22.96 79.2673 22.8533 79.3873 22.76C79.514 22.66 79.6307 22.5767 79.7373 22.51C79.844 22.4433 79.9507 22.41 80.0573 22.41C80.184 22.41 80.2973 22.4667 80.3973 22.58L80.8373 23.13ZM87.1252 25L88.3452 14.86H89.2252C89.6318 14.86 89.8352 15.06 89.8352 15.46L89.6952 17.26C90.1952 16.4267 90.7418 15.7967 91.3352 15.37C91.9352 14.9367 92.5618 14.72 93.2152 14.72C93.9018 14.72 94.4085 14.9567 94.7352 15.43C95.0618 15.8967 95.2252 16.5667 95.2252 17.44C95.7252 16.5133 96.2885 15.83 96.9152 15.39C97.5485 14.9433 98.2152 14.72 98.9152 14.72C99.7818 14.72 100.395 15.0533 100.755 15.72C101.115 16.3867 101.222 17.33 101.075 18.55L100.315 25H98.5552L99.3252 18.55C99.4185 17.7567 99.3918 17.1667 99.2452 16.78C99.1052 16.3933 98.7852 16.2 98.2852 16.2C97.9985 16.2 97.7118 16.2733 97.4252 16.42C97.1452 16.56 96.8718 16.77 96.6052 17.05C96.3385 17.3233 96.0885 17.6667 95.8552 18.08C95.6285 18.4867 95.4252 18.9567 95.2452 19.49V19.5L94.5952 25H92.8352L93.5952 18.55C93.6952 17.7567 93.6818 17.1667 93.5552 16.78C93.4285 16.3933 93.1152 16.2 92.6152 16.2C92.2952 16.2 91.9852 16.28 91.6852 16.44C91.3918 16.6 91.1118 16.8333 90.8452 17.14C90.5852 17.44 90.3418 17.81 90.1152 18.25C89.8885 18.6833 89.6818 19.1733 89.4952 19.72L88.8652 25H87.1252ZM109.807 16.11C109.661 16.0767 109.514 16.0567 109.367 16.05C109.227 16.0367 109.087 16.03 108.947 16.03C108.547 16.03 108.161 16.0967 107.787 16.23C107.414 16.3567 107.064 16.5367 106.737 16.77C106.411 17.0033 106.114 17.2833 105.847 17.61C105.581 17.93 105.351 18.2833 105.157 18.67C104.971 19.0567 104.824 19.47 104.717 19.91C104.611 20.3433 104.557 20.79 104.557 21.25C104.557 22.8567 105.071 23.66 106.097 23.66C106.424 23.66 106.744 23.56 107.057 23.36C107.371 23.1533 107.667 22.87 107.947 22.51C108.234 22.1433 108.497 21.7133 108.737 21.22C108.977 20.72 109.191 20.1733 109.377 19.58L109.807 16.11ZM109.127 22.33C108.887 22.7567 108.627 23.1433 108.347 23.49C108.074 23.8367 107.781 24.1333 107.467 24.38C107.161 24.62 106.834 24.8067 106.487 24.94C106.147 25.0733 105.794 25.14 105.427 25.14C105.027 25.14 104.664 25.0633 104.337 24.91C104.011 24.75 103.731 24.52 103.497 24.22C103.271 23.9133 103.094 23.54 102.967 23.1C102.841 22.6533 102.777 22.1433 102.777 21.57C102.777 20.97 102.851 20.3867 102.997 19.82C103.151 19.2467 103.364 18.7067 103.637 18.2C103.917 17.6933 104.251 17.23 104.637 16.81C105.024 16.3833 105.454 16.0167 105.927 15.71C106.407 15.3967 106.921 15.1567 107.467 14.99C108.014 14.8167 108.587 14.73 109.187 14.73C109.621 14.73 110.041 14.7667 110.447 14.84C110.861 14.9067 111.267 15.0267 111.667 15.2L110.457 25H109.537C109.304 25 109.144 24.94 109.057 24.82C108.977 24.7 108.937 24.5533 108.937 24.38L109.127 22.33ZM119.612 16.49C119.559 16.57 119.506 16.63 119.452 16.67C119.399 16.7033 119.332 16.72 119.252 16.72C119.159 16.72 119.056 16.6833 118.942 16.61C118.836 16.5367 118.702 16.4567 118.542 16.37C118.389 16.2767 118.199 16.1933 117.972 16.12C117.746 16.04 117.472 16 117.152 16C116.852 16 116.579 16.0433 116.332 16.13C116.086 16.21 115.872 16.3233 115.692 16.47C115.519 16.6167 115.382 16.79 115.282 16.99C115.189 17.1833 115.142 17.39 115.142 17.61C115.142 17.9233 115.246 18.1733 115.452 18.36C115.659 18.5467 115.919 18.71 116.232 18.85C116.546 18.9833 116.882 19.1133 117.242 19.24C117.602 19.3667 117.939 19.5267 118.252 19.72C118.566 19.9133 118.826 20.16 119.032 20.46C119.239 20.76 119.342 21.15 119.342 21.63C119.342 22.0967 119.249 22.5433 119.062 22.97C118.882 23.3967 118.619 23.7733 118.272 24.1C117.932 24.42 117.519 24.6767 117.032 24.87C116.552 25.0633 116.012 25.16 115.412 25.16C114.766 25.16 114.192 25.0467 113.692 24.82C113.199 24.5867 112.796 24.29 112.482 23.93L112.922 23.25C112.982 23.1633 113.046 23.0967 113.112 23.05C113.186 23.0033 113.279 22.98 113.392 22.98C113.499 22.98 113.606 23.0267 113.712 23.12C113.819 23.2133 113.952 23.32 114.112 23.44C114.272 23.5533 114.472 23.6567 114.712 23.75C114.959 23.8433 115.269 23.89 115.642 23.89C115.969 23.89 116.262 23.84 116.522 23.74C116.789 23.64 117.012 23.5067 117.192 23.34C117.379 23.1733 117.519 22.98 117.612 22.76C117.712 22.5333 117.762 22.2933 117.762 22.04C117.762 21.7 117.659 21.43 117.452 21.23C117.246 21.03 116.986 20.8633 116.672 20.73C116.359 20.5967 116.022 20.4733 115.662 20.36C115.302 20.24 114.966 20.09 114.652 19.91C114.339 19.7233 114.079 19.4833 113.872 19.19C113.666 18.8967 113.562 18.5067 113.562 18.02C113.562 17.5933 113.646 17.1833 113.812 16.79C113.986 16.39 114.232 16.0367 114.552 15.73C114.872 15.4233 115.259 15.18 115.712 15C116.172 14.8133 116.689 14.72 117.262 14.72C117.869 14.72 118.402 14.8233 118.862 15.03C119.329 15.23 119.729 15.5033 120.062 15.85L119.612 16.49ZM124.63 10.27L123.57 18.94H123.87C124.01 18.94 124.123 18.9233 124.21 18.89C124.297 18.85 124.39 18.7733 124.49 18.66L127.85 15.23C127.943 15.1167 128.043 15.03 128.15 14.97C128.257 14.9033 128.387 14.87 128.54 14.87H130.12L126.21 18.84C126.01 19.0733 125.807 19.25 125.6 19.37C125.707 19.45 125.797 19.5433 125.87 19.65C125.95 19.75 126.023 19.8667 126.09 20L129.13 25H127.6C127.453 25 127.33 24.9767 127.23 24.93C127.137 24.8767 127.06 24.7833 127 24.65L124.42 20.5C124.34 20.36 124.257 20.27 124.17 20.23C124.083 20.1833 123.947 20.16 123.76 20.16H123.42L122.83 25H121.07L122.88 10.27H124.63Z" fill="white"/>
</g>
<defs>
<clipPath id="clip0">
<rect width="180" height="254" fill="white"/>
</clipPath>
</defs>
</svg>
