<svg width="180" height="254" viewBox="0 0 180 254" fill="none" xmlns="http://www.w3.org/2000/svg">
<g clip-path="url(#clip0)">
<path fill-rule="evenodd" clip-rule="evenodd" d="M90 254C139.706 254 180 213.706 180 164C180 114.294 139.706 74 90 74C40.2944 74 0 114.294 0 164C0 213.706 40.2944 254 90 254Z" fill="#4F63D3" stroke="#8FA1F5" stroke-opacity="0.0969733" stroke-width="2"/>
<mask id="mask0" mask-type="alpha" maskUnits="userSpaceOnUse" x="-1" y="73" width="182" height="182">
<path fill-rule="evenodd" clip-rule="evenodd" d="M90 254C139.706 254 180 213.706 180 164C180 114.294 139.706 74 90 74C40.2944 74 0 114.294 0 164C0 213.706 40.2944 254 90 254Z" fill="white" stroke="white" stroke-width="2"/>
</mask>
<g mask="url(#mask0)">
<path d="M171.52 126.16C171.52 126.16 109.608 144.16 104.911 141.58C98.8812 138.064 92.4018 135.373 85.6481 133.58C77.0679 131.34 63.9914 131.06 57.4834 129.66C50.9753 128.26 44.5879 131.37 49.3659 135.9C54.1438 140.43 69.4835 142.38 69.4835 144.61C69.4835 146.84 23.7762 158.45 23.9171 163.61C24.0579 168.77 55.2704 161.51 56.2562 162.49C57.2419 163.47 19.8332 172.69 21.6639 177.73C23.4946 182.77 58.9318 172.83 59.6359 173.67C60.3401 174.51 31.0588 184.18 31.7931 188.51C32.5274 192.84 64.2731 183.34 64.9872 184.04C65.7014 184.74 41.9224 191.04 44.0347 195.64C46.1471 200.24 82.7008 188.23 89.8728 186.64C97.0447 185.05 108.301 180.49 111.67 176.15C115.04 171.81 181.287 168.03 181.287 168.03C181.287 168.03 183.51 135.16 171.52 126.16Z" fill="#C6866D"/>
<path opacity="0.6" d="M51.6694 139.09C48.9233 134.09 51.5285 127.92 56.3366 125.15C60.4049 122.904 65.3102 122.737 69.5238 124.7C71.4048 121.86 75.5591 120.42 78.7477 120.57C82.213 120.659 85.2574 122.88 86.3824 126.14C88.1685 125.091 90.3288 124.879 92.2869 125.56C93.7756 126.128 94.9548 127.294 95.5359 128.77C98.8312 129.032 101.78 130.906 103.402 133.77C105.414 137.58 104.408 141.52 101.752 144.51C102.689 145.749 103.107 147.301 102.919 148.84C102.68 150.646 101.415 152.153 99.6701 152.71C101.481 156.71 100.968 161.71 96.7228 164.15C93.3102 166.002 89.0728 165.35 86.3824 162.56L86.0303 162.35C82.3789 166.2 76.7561 166.72 73.8189 162.84C69.2824 168.27 60.7122 168.75 55.2 164.12C50.8464 160.276 49.3057 154.173 51.3173 148.74C50.3823 147.753 49.7687 146.509 49.557 145.17C49.0165 142.908 49.8396 140.539 51.6694 139.09Z" fill="#AEC5D3"/>
<path opacity="0.6" d="M107.637 203.13C105.907 207.87 100.173 209.76 95.4856 208.13C91.5766 206.737 88.5814 203.559 87.4385 199.59C84.4209 199.99 81.021 198.08 79.2406 195.84C77.2676 193.471 76.9866 190.132 78.5365 187.47C76.7774 186.9 75.3652 185.58 74.6839 183.87C74.2183 182.557 74.3128 181.112 74.9455 179.87C73.1962 177.519 72.7328 174.459 73.7082 171.7C75.0863 168.09 78.3353 166.45 81.9464 166.51C82.2278 165.157 83.0289 163.966 84.1795 163.19C85.5403 162.293 87.3 162.258 88.6959 163.1C90.3656 159.53 94.0572 156.94 98.1512 158.38C101.414 159.55 103.477 162.755 103.181 166.19C103.181 166.31 103.181 166.42 103.241 166.55C107.989 166.73 111.63 170.18 110.725 174.42C117.195 174.49 122.423 179.688 122.494 186.12C122.444 191.281 119.218 195.885 114.366 197.72C114.254 198.922 113.773 200.06 112.988 200.98C111.779 202.674 109.69 203.513 107.637 203.13Z" fill="#AEC5D3"/>
<path d="M58.7409 178.584C53.602 176.878 50.8277 171.321 52.5522 166.188L59.3277 146.021C61.0436 140.914 66.5671 138.157 71.6805 139.855L110.953 152.895C116.092 154.602 118.866 160.159 117.141 165.292L110.366 185.458C108.65 190.565 103.126 193.323 98.0131 191.625L58.7409 178.584Z" fill="#AEC5D3"/>
<path d="M56.6988 127.61L57.4532 129.93L59.7868 130.67L57.4532 131.41L56.6988 133.74L55.9544 131.41L53.6208 130.67L55.9544 129.93L56.6988 127.61Z" fill="white"/>
<path d="M83.8777 188.56L84.6221 190.89L86.9557 191.63L84.6221 192.37L83.8777 194.69L83.1333 192.37L80.7896 191.63L83.1333 190.89L83.8777 188.56Z" fill="white"/>
<path d="M108.562 145.1L109.306 147.42L111.65 148.16L109.306 148.9L108.562 151.23L107.818 148.9L105.494 148.16L107.828 147.42L108.562 145.1Z" fill="white"/>
<path d="M40.4135 180.71L41.1176 183L43.4513 183.74L41.1176 184.48L40.3733 186.81L39.6289 184.48L37.2852 183.74L39.6289 183L40.4135 180.71Z" fill="white"/>
<path d="M60.8028 158.8L61.5471 161.12L63.8808 161.86L61.5471 162.6L60.8028 166.76L60.0584 162.6L57.7147 161.86L60.0584 161.12L60.8028 158.8Z" fill="white"/>
<path d="M104.005 196.21L104.75 198.53L107.093 199.27L104.75 200.02L104.005 204.17L103.261 200.02L100.927 199.27L103.261 198.53L104.005 196.21Z" fill="white"/>
<path d="M91.0195 127.61L91.7638 129.93L94.1075 130.67L91.7638 131.41L91.0195 135.57L90.2751 131.41L87.9415 130.67L90.2751 129.93L91.0195 127.61Z" fill="white"/>
<path d="M184.567 202.06C184.567 202.06 194.505 191.25 190.381 173.73C190.381 173.73 172.516 170.37 168.865 167.86C165.213 165.35 161.964 158.86 156.07 154.72C150.175 150.58 128.79 147.87 124.988 145.63C121.186 143.39 115.855 136.96 112.616 138.63C109.377 140.3 118.098 154.58 129.635 159.75C129.635 159.75 105.253 152.66 102.356 151.75C97.3867 150.16 83.5156 141.45 81.4032 143.68C79.2909 145.91 84.8232 153.98 95.3246 159.48C99.9819 161.92 111.348 166.34 111.348 166.34C111.348 166.34 95.6063 163.12 91.3816 161.34C87.1569 159.56 73.9496 154 71.5556 157.24C69.1616 160.48 86.322 170.1 89.5509 171.36C92.7798 172.62 105.585 176.53 105.585 176.53C105.585 176.53 91.8544 173.27 87.9113 171.87C83.9682 170.47 72.9236 166.09 71.2941 168.52C68.9102 172.13 86.8451 181.14 95.0028 183.94C95.0028 183.94 78.7578 175.78 77.1383 178C74.8952 181.08 90.4964 190.33 93.4034 191.82C96.3104 193.31 120.784 201.14 128.75 200.2C136.717 199.26 152.891 199.09 156.784 198.71C160.677 198.33 184.567 202.06 184.567 202.06Z" fill="#CE9C89"/>
<path d="M111.278 187.75C105.243 186.3 99.2074 184.61 93.1721 183.35C93.0514 183.35 92.9508 183.51 93.0815 183.57C98.8279 186.133 104.971 187.705 111.248 188.22C111.529 188.25 111.529 187.82 111.278 187.75Z" fill="#7787B5"/>
<path d="M112.948 178.22C111.453 177.636 109.903 177.203 108.321 176.93C106.787 176.487 105.224 176.153 103.643 175.93C103.591 175.933 103.547 175.968 103.533 176.018C103.519 176.068 103.539 176.121 103.583 176.15C105.029 176.834 106.547 177.357 108.109 177.71C109.631 178.251 111.223 178.571 112.837 178.66C113.038 178.63 113.159 178.32 112.948 178.22Z" fill="#7787B5"/>
<path d="M120.019 168C117.044 166.823 113.907 166.098 110.715 165.85C110.574 165.85 110.554 166.04 110.715 166.07C113.71 167.062 116.768 167.857 119.868 168.45C120.079 168.5 120.301 168.13 120.019 168Z" fill="#7787B5"/>
</g>
<path fill-rule="evenodd" clip-rule="evenodd" d="M90 254C139.706 254 180 213.706 180 164C180 114.294 139.706 74 90 74C40.2944 74 0 114.294 0 164C0 213.706 40.2944 254 90 254Z" stroke="#FECE00" stroke-width="2" stroke-dasharray="146"/>
<path d="M43.5641 10.67L37.6841 25H35.9941L34.0541 13.97C34.0408 13.8633 34.0241 13.7467 34.0041 13.62C33.9908 13.4933 33.9775 13.3633 33.9641 13.23C33.9175 13.3633 33.8708 13.4933 33.8241 13.62C33.7775 13.7467 33.7341 13.8633 33.6941 13.97L29.0341 25H27.3541L24.9941 10.67H26.4641C26.6308 10.67 26.7641 10.7133 26.8641 10.8C26.9641 10.88 27.0208 10.9867 27.0341 11.12L28.5841 21.26C28.5975 21.4333 28.6108 21.6233 28.6241 21.83C28.6375 22.03 28.6508 22.2367 28.6641 22.45C28.7375 22.23 28.8075 22.02 28.8741 21.82C28.9475 21.62 29.0208 21.4333 29.0941 21.26L33.3741 11.12C33.4275 11.0067 33.5141 10.9033 33.6341 10.81C33.7541 10.7167 33.8941 10.67 34.0541 10.67H34.4841C34.6508 10.67 34.7808 10.7133 34.8741 10.8C34.9741 10.88 35.0408 10.9867 35.0741 11.12L36.8641 21.26C36.8975 21.4333 36.9241 21.6167 36.9441 21.81C36.9641 22.0033 36.9841 22.2067 37.0041 22.42C37.0641 22.2067 37.1241 22.0033 37.1841 21.81C37.2441 21.6167 37.3041 21.4333 37.3641 21.26L41.3941 11.12C41.4275 11.0067 41.5108 10.9033 41.6441 10.81C41.7841 10.7167 41.9341 10.67 42.0941 10.67H43.5641ZM49.3405 16.11C49.1939 16.0767 49.0472 16.0567 48.9005 16.05C48.7605 16.0367 48.6205 16.03 48.4805 16.03C48.0805 16.03 47.6939 16.0967 47.3205 16.23C46.9472 16.3567 46.5972 16.5367 46.2705 16.77C45.9439 17.0033 45.6472 17.2833 45.3805 17.61C45.1139 17.93 44.8839 18.2833 44.6905 18.67C44.5039 19.0567 44.3572 19.47 44.2505 19.91C44.1439 20.3433 44.0905 20.79 44.0905 21.25C44.0905 22.8567 44.6039 23.66 45.6305 23.66C45.9572 23.66 46.2772 23.56 46.5905 23.36C46.9039 23.1533 47.2005 22.87 47.4805 22.51C47.7672 22.1433 48.0305 21.7133 48.2705 21.22C48.5105 20.72 48.7239 20.1733 48.9105 19.58L49.3405 16.11ZM48.6605 22.33C48.4205 22.7567 48.1605 23.1433 47.8805 23.49C47.6072 23.8367 47.3139 24.1333 47.0005 24.38C46.6939 24.62 46.3672 24.8067 46.0205 24.94C45.6805 25.0733 45.3272 25.14 44.9605 25.14C44.5605 25.14 44.1972 25.0633 43.8705 24.91C43.5439 24.75 43.2639 24.52 43.0305 24.22C42.8039 23.9133 42.6272 23.54 42.5005 23.1C42.3739 22.6533 42.3105 22.1433 42.3105 21.57C42.3105 20.97 42.3839 20.3867 42.5305 19.82C42.6839 19.2467 42.8972 18.7067 43.1705 18.2C43.4505 17.6933 43.7839 17.23 44.1705 16.81C44.5572 16.3833 44.9872 16.0167 45.4605 15.71C45.9405 15.3967 46.4539 15.1567 47.0005 14.99C47.5472 14.8167 48.1205 14.73 48.7205 14.73C49.1539 14.73 49.5739 14.7667 49.9805 14.84C50.3939 14.9067 50.8005 15.0267 51.2005 15.2L49.9905 25H49.0705C48.8372 25 48.6772 24.94 48.5905 24.82C48.5105 24.7 48.4705 24.5533 48.4705 24.38L48.6605 22.33ZM59.1454 16.49C59.0921 16.57 59.0387 16.63 58.9854 16.67C58.9321 16.7033 58.8654 16.72 58.7854 16.72C58.6921 16.72 58.5887 16.6833 58.4754 16.61C58.3687 16.5367 58.2354 16.4567 58.0754 16.37C57.9221 16.2767 57.7321 16.1933 57.5054 16.12C57.2787 16.04 57.0054 16 56.6854 16C56.3854 16 56.1121 16.0433 55.8654 16.13C55.6187 16.21 55.4054 16.3233 55.2254 16.47C55.0521 16.6167 54.9154 16.79 54.8154 16.99C54.7221 17.1833 54.6754 17.39 54.6754 17.61C54.6754 17.9233 54.7787 18.1733 54.9854 18.36C55.1921 18.5467 55.4521 18.71 55.7654 18.85C56.0787 18.9833 56.4154 19.1133 56.7754 19.24C57.1354 19.3667 57.4721 19.5267 57.7854 19.72C58.0987 19.9133 58.3587 20.16 58.5654 20.46C58.7721 20.76 58.8754 21.15 58.8754 21.63C58.8754 22.0967 58.7821 22.5433 58.5954 22.97C58.4154 23.3967 58.1521 23.7733 57.8054 24.1C57.4654 24.42 57.0521 24.6767 56.5654 24.87C56.0854 25.0633 55.5454 25.16 54.9454 25.16C54.2987 25.16 53.7254 25.0467 53.2254 24.82C52.7321 24.5867 52.3287 24.29 52.0154 23.93L52.4554 23.25C52.5154 23.1633 52.5787 23.0967 52.6454 23.05C52.7187 23.0033 52.8121 22.98 52.9254 22.98C53.0321 22.98 53.1387 23.0267 53.2454 23.12C53.3521 23.2133 53.4854 23.32 53.6454 23.44C53.8054 23.5533 54.0054 23.6567 54.2454 23.75C54.4921 23.8433 54.8021 23.89 55.1754 23.89C55.5021 23.89 55.7954 23.84 56.0554 23.74C56.3221 23.64 56.5454 23.5067 56.7254 23.34C56.9121 23.1733 57.0521 22.98 57.1454 22.76C57.2454 22.5333 57.2954 22.2933 57.2954 22.04C57.2954 21.7 57.1921 21.43 56.9854 21.23C56.7787 21.03 56.5187 20.8633 56.2054 20.73C55.8921 20.5967 55.5554 20.4733 55.1954 20.36C54.8354 20.24 54.4987 20.09 54.1854 19.91C53.8721 19.7233 53.6121 19.4833 53.4054 19.19C53.1987 18.8967 53.0954 18.5067 53.0954 18.02C53.0954 17.5933 53.1787 17.1833 53.3454 16.79C53.5187 16.39 53.7654 16.0367 54.0854 15.73C54.4054 15.4233 54.7921 15.18 55.2454 15C55.7054 14.8133 56.2221 14.72 56.7954 14.72C57.4021 14.72 57.9354 14.8233 58.3954 15.03C58.8621 15.23 59.2621 15.5033 59.5954 15.85L59.1454 16.49ZM63.3532 17.11C63.8799 16.3233 64.4632 15.73 65.1032 15.33C65.7499 14.9233 66.4065 14.72 67.0732 14.72C67.5065 14.72 67.8865 14.8067 68.2132 14.98C68.5399 15.1467 68.8032 15.3933 69.0032 15.72C69.2099 16.0467 69.3499 16.45 69.4232 16.93C69.4965 17.4033 69.4965 17.9433 69.4232 18.55L68.6632 25H66.8832L67.6432 18.55C67.7432 17.75 67.6965 17.1567 67.5032 16.77C67.3099 16.3833 66.9499 16.19 66.4232 16.19C66.1232 16.19 65.8132 16.2733 65.4932 16.44C65.1732 16.6 64.8632 16.83 64.5632 17.13C64.2699 17.43 63.9899 17.7933 63.7232 18.22C63.4632 18.6467 63.2365 19.1233 63.0432 19.65L62.3932 25H60.6232L62.4032 10.27H64.1832L63.3532 17.11ZM84.7384 14.87L77.8984 28.02C77.825 28.16 77.7384 28.2633 77.6384 28.33C77.545 28.3967 77.425 28.43 77.2784 28.43H75.9684L78.1684 24.4L75.5384 14.87H77.0084C77.155 14.87 77.2617 14.9067 77.3284 14.98C77.395 15.0467 77.445 15.1333 77.4784 15.24L79.1084 21.62C79.1417 21.76 79.1684 21.9 79.1884 22.04C79.2084 22.18 79.225 22.32 79.2384 22.46C79.2984 22.32 79.3584 22.18 79.4184 22.04C79.4784 21.8933 79.5417 21.75 79.6084 21.61L82.8084 15.22C82.8617 15.1133 82.935 15.03 83.0284 14.97C83.1284 14.9033 83.2284 14.87 83.3284 14.87H84.7384ZM88.6843 23.75C89.171 23.75 89.611 23.6167 90.0043 23.35C90.4043 23.0833 90.7443 22.73 91.0243 22.29C91.311 21.8433 91.531 21.33 91.6843 20.75C91.8376 20.17 91.9143 19.5633 91.9143 18.93C91.9143 17.9967 91.7276 17.2967 91.3543 16.83C90.9876 16.3567 90.4576 16.12 89.7643 16.12C89.271 16.12 88.8243 16.2533 88.4243 16.52C88.031 16.78 87.6943 17.13 87.4143 17.57C87.1343 18.01 86.9176 18.52 86.7643 19.1C86.611 19.68 86.5343 20.2867 86.5343 20.92C86.5343 21.8533 86.7176 22.56 87.0843 23.04C87.451 23.5133 87.9843 23.75 88.6843 23.75ZM88.5143 25.14C87.961 25.14 87.4543 25.0467 86.9943 24.86C86.5343 24.6667 86.1376 24.39 85.8043 24.03C85.471 23.67 85.211 23.23 85.0243 22.71C84.8376 22.19 84.7443 21.5967 84.7443 20.93C84.7443 20.0767 84.8776 19.2733 85.1443 18.52C85.411 17.7667 85.7776 17.11 86.2443 16.55C86.711 15.9833 87.2576 15.5367 87.8843 15.21C88.5176 14.8833 89.1976 14.72 89.9243 14.72C90.4776 14.72 90.9843 14.8167 91.4443 15.01C91.9043 15.1967 92.301 15.47 92.6343 15.83C92.9676 16.19 93.2276 16.63 93.4143 17.15C93.601 17.67 93.6943 18.26 93.6943 18.92C93.6943 19.7667 93.561 20.5667 93.2943 21.32C93.0276 22.0733 92.661 22.7333 92.1943 23.3C91.7343 23.8667 91.1876 24.3167 90.5543 24.65C89.921 24.9767 89.241 25.14 88.5143 25.14ZM104.275 14.87L103.055 25H102.175C101.742 25 101.525 24.7867 101.525 24.36L101.675 22.51C101.142 23.3767 100.539 24.0333 99.8654 24.48C99.1987 24.92 98.5121 25.14 97.8054 25.14C97.3787 25.14 97.0021 25.0567 96.6754 24.89C96.3487 24.7167 96.0821 24.4667 95.8754 24.14C95.6754 23.8133 95.5387 23.4133 95.4654 22.94C95.3921 22.4667 95.3954 21.9233 95.4754 21.31L96.2354 14.87H98.0054L97.2454 21.31C97.1521 22.1033 97.1987 22.6933 97.3854 23.08C97.5787 23.4667 97.9387 23.66 98.4654 23.66C98.7721 23.66 99.0887 23.5767 99.4154 23.41C99.7421 23.2433 100.055 23.0067 100.355 22.7C100.655 22.3933 100.935 22.0233 101.195 21.59C101.462 21.15 101.689 20.6633 101.875 20.13L102.505 14.87H104.275ZM108.241 17.69C108.508 17.1233 108.795 16.6333 109.101 16.22C109.415 15.8 109.741 15.4733 110.081 15.24C110.421 15 110.771 14.8567 111.131 14.81C111.491 14.7567 111.858 14.81 112.231 14.97L111.911 16.68C111.045 16.3333 110.278 16.46 109.611 17.06C108.951 17.66 108.415 18.7433 108.001 20.31L107.441 25H105.701L106.921 14.86H107.801C108.208 14.86 108.411 15.06 108.411 15.46L108.241 17.69ZM119.584 17.11C120.11 16.3233 120.694 15.73 121.334 15.33C121.98 14.9233 122.637 14.72 123.304 14.72C123.737 14.72 124.117 14.8067 124.444 14.98C124.77 15.1467 125.034 15.3933 125.234 15.72C125.44 16.0467 125.58 16.45 125.654 16.93C125.727 17.4033 125.727 17.9433 125.654 18.55L124.894 25H123.114L123.874 18.55C123.974 17.75 123.927 17.1567 123.734 16.77C123.54 16.3833 123.18 16.19 122.654 16.19C122.354 16.19 122.044 16.2733 121.724 16.44C121.404 16.6 121.094 16.83 120.794 17.13C120.5 17.43 120.22 17.7933 119.954 18.22C119.694 18.6467 119.467 19.1233 119.274 19.65L118.624 25H116.854L118.634 10.27H120.414L119.584 17.11ZM134.38 16.11C134.233 16.0767 134.086 16.0567 133.94 16.05C133.8 16.0367 133.66 16.03 133.52 16.03C133.12 16.03 132.733 16.0967 132.36 16.23C131.986 16.3567 131.636 16.5367 131.31 16.77C130.983 17.0033 130.686 17.2833 130.42 17.61C130.153 17.93 129.923 18.2833 129.73 18.67C129.543 19.0567 129.396 19.47 129.29 19.91C129.183 20.3433 129.13 20.79 129.13 21.25C129.13 22.8567 129.643 23.66 130.67 23.66C130.996 23.66 131.316 23.56 131.63 23.36C131.943 23.1533 132.24 22.87 132.52 22.51C132.806 22.1433 133.07 21.7133 133.31 21.22C133.55 20.72 133.763 20.1733 133.95 19.58L134.38 16.11ZM133.7 22.33C133.46 22.7567 133.2 23.1433 132.92 23.49C132.646 23.8367 132.353 24.1333 132.04 24.38C131.733 24.62 131.406 24.8067 131.06 24.94C130.72 25.0733 130.366 25.14 130 25.14C129.6 25.14 129.236 25.0633 128.91 24.91C128.583 24.75 128.303 24.52 128.07 24.22C127.843 23.9133 127.666 23.54 127.54 23.1C127.413 22.6533 127.35 22.1433 127.35 21.57C127.35 20.97 127.423 20.3867 127.57 19.82C127.723 19.2467 127.936 18.7067 128.21 18.2C128.49 17.6933 128.823 17.23 129.21 16.81C129.596 16.3833 130.026 16.0167 130.5 15.71C130.98 15.3967 131.493 15.1567 132.04 14.99C132.586 14.8167 133.16 14.73 133.76 14.73C134.193 14.73 134.613 14.7667 135.02 14.84C135.433 14.9067 135.84 15.0267 136.24 15.2L135.03 25H134.11C133.876 25 133.716 24.94 133.63 24.82C133.55 24.7 133.51 24.5533 133.51 24.38L133.7 22.33ZM140.204 17.43C140.744 16.5367 141.354 15.8633 142.034 15.41C142.714 14.95 143.414 14.72 144.134 14.72C144.561 14.72 144.934 14.8067 145.254 14.98C145.581 15.1467 145.844 15.3933 146.044 15.72C146.251 16.0467 146.391 16.45 146.464 16.93C146.538 17.4033 146.538 17.9433 146.464 18.55L145.704 25H143.934L144.694 18.55C144.788 17.75 144.738 17.16 144.544 16.78C144.351 16.3933 143.994 16.2 143.474 16.2C143.154 16.2 142.828 16.2867 142.494 16.46C142.168 16.6333 141.851 16.88 141.544 17.2C141.238 17.52 140.951 17.9067 140.684 18.36C140.424 18.8067 140.201 19.3067 140.014 19.86L139.434 25H137.654L138.874 14.86H139.754C140.154 14.86 140.354 15.06 140.354 15.46L140.204 17.43ZM155.41 17.08C155.157 16.72 154.85 16.47 154.49 16.33C154.137 16.1833 153.777 16.11 153.41 16.11C152.883 16.11 152.41 16.2667 151.99 16.58C151.57 16.8933 151.21 17.3 150.91 17.8C150.617 18.2933 150.39 18.8467 150.23 19.46C150.07 20.0733 149.99 20.6767 149.99 21.27C149.99 22.0633 150.13 22.67 150.41 23.09C150.697 23.5033 151.103 23.71 151.63 23.71C151.95 23.71 152.273 23.61 152.6 23.41C152.927 23.21 153.24 22.9333 153.54 22.58C153.847 22.22 154.13 21.7967 154.39 21.31C154.657 20.8233 154.887 20.29 155.08 19.71L155.41 17.08ZM157.99 10.27L156.18 25H155.25C155.017 25 154.86 24.94 154.78 24.82C154.7 24.7 154.66 24.5533 154.66 24.38L154.85 22.25C154.597 22.69 154.32 23.0867 154.02 23.44C153.72 23.7933 153.403 24.0967 153.07 24.35C152.743 24.6033 152.4 24.8 152.04 24.94C151.687 25.0733 151.327 25.14 150.96 25.14C150.093 25.14 149.42 24.8267 148.94 24.2C148.46 23.5667 148.22 22.65 148.22 21.45C148.22 20.9033 148.277 20.3567 148.39 19.81C148.503 19.2633 148.663 18.74 148.87 18.24C149.083 17.74 149.337 17.2767 149.63 16.85C149.93 16.4167 150.263 16.0433 150.63 15.73C150.997 15.4167 151.39 15.17 151.81 14.99C152.237 14.81 152.683 14.72 153.15 14.72C153.65 14.72 154.103 14.82 154.51 15.02C154.923 15.2133 155.273 15.49 155.56 15.85L156.25 10.27H157.99Z" fill="white"/>
</g>
<defs>
<clipPath id="clip0">
<rect width="180" height="254" fill="white"/>
</clipPath>
</defs>
</svg>
