<svg width="126" height="23" viewBox="0 0 126 23" fill="none" xmlns="http://www.w3.org/2000/svg">
<path d="M10.5 0.609998C11.82 0.609998 13.01 0.809999 14.07 1.21C15.13 1.61 16.12 2.2 17.04 2.98L14.43 6.07C13.81 5.61 13.21 5.26 12.63 5.02C12.05 4.78 11.43 4.66 10.77 4.66C9.45 4.66 8.42 5.23 7.68 6.37C6.94 7.51 6.57 9.23 6.57 11.53C6.57 13.83 6.94 15.54 7.68 16.66C8.44 17.78 9.49 18.34 10.83 18.34C11.55 18.34 12.21 18.2 12.81 17.92C13.43 17.62 14.1 17.19 14.82 16.63L17.28 19.75C16.46 20.57 15.47 21.24 14.31 21.76C13.17 22.28 11.93 22.54 10.59 22.54C8.61 22.54 6.88 22.12 5.4 21.28C3.94 20.42 2.81 19.17 2.01 17.53C1.21 15.87 0.81 13.87 0.81 11.53C0.81 9.25 1.22 7.29 2.04 5.65C2.86 4.01 4 2.76 5.46 1.9C6.92 1.04 8.6 0.609998 10.5 0.609998ZM27.1371 0.609998C30.1571 0.609998 32.5071 1.57 34.1871 3.49C35.8671 5.41 36.7071 8.1 36.7071 11.56C36.7071 13.82 36.3271 15.78 35.5671 17.44C34.8271 19.08 33.7371 20.34 32.2971 21.22C30.8571 22.1 29.1371 22.54 27.1371 22.54C24.1171 22.54 21.7671 21.58 20.0871 19.66C18.4271 17.74 17.5971 15.04 17.5971 11.56C17.5971 9.3 17.9671 7.35 18.7071 5.71C19.4671 4.07 20.5571 2.81 21.9771 1.93C23.4171 1.05 25.1371 0.609998 27.1371 0.609998ZM27.1371 4.6C25.8371 4.6 24.8771 5.14 24.2571 6.22C23.6571 7.3 23.3571 9.08 23.3571 11.56C23.3571 14.04 23.6671 15.83 24.2871 16.93C24.9071 18.01 25.8571 18.55 27.1371 18.55C28.4571 18.55 29.4171 18.01 30.0171 16.93C30.6171 15.85 30.9171 14.06 30.9171 11.56C30.9171 9.08 30.6171 7.3 30.0171 6.22C29.4171 5.14 28.4571 4.6 27.1371 4.6ZM55.1735 1.15L49.6535 22H42.5735L36.7835 1.15H42.6335L46.2035 17.95L49.5035 1.15H55.1735ZM61.7794 1.15V22H56.2294V1.15H61.7794ZM71.2584 1.15C74.5584 1.15 77.2084 1.9 79.2084 3.4C81.2084 4.88 82.2084 7.58 82.2084 11.5C82.2084 18.5 78.6984 22 71.6784 22H65.0184V1.15H71.2584ZM70.5684 5.11V18.04H72.0084C73.5284 18.04 74.6484 17.56 75.3684 16.6C76.1084 15.64 76.4784 13.94 76.4784 11.5C76.4784 9.82 76.2984 8.52 75.9384 7.6C75.5984 6.66 75.0984 6.01 74.4384 5.65C73.7984 5.29 72.9784 5.11 71.9784 5.11H70.5684ZM84.2273 14.65V10.57H94.0973V14.65H84.2273Z" fill="#FEFEFE"/>
<path d="M107.273 1.66V22H102.083V6.79L97.8227 9.4L95.5127 5.89L102.533 1.66H107.273ZM117.972 1.21C120.512 1.21 122.462 1.93 123.822 3.37C125.182 4.81 125.862 6.72 125.862 9.1C125.862 11.84 125.392 14.13 124.452 15.97C123.512 17.81 122.072 19.29 120.132 20.41C118.212 21.51 115.712 22.34 112.632 22.9L111.582 19.21C113.342 18.81 114.772 18.36 115.872 17.86C116.992 17.36 117.892 16.75 118.572 16.03C119.252 15.29 119.752 14.37 120.072 13.27C119.532 13.87 118.932 14.32 118.272 14.62C117.632 14.9 116.862 15.04 115.962 15.04C114.902 15.04 113.922 14.77 113.022 14.23C112.142 13.69 111.432 12.91 110.892 11.89C110.372 10.87 110.112 9.68 110.112 8.32C110.112 6.92 110.452 5.69 111.132 4.63C111.812 3.55 112.752 2.71 113.952 2.11C115.152 1.51 116.492 1.21 117.972 1.21ZM117.672 11.38C118.172 11.38 118.652 11.25 119.112 10.99C119.592 10.73 120.012 10.34 120.372 9.82C120.392 8.58 120.322 7.61 120.162 6.91C120.022 6.21 119.772 5.71 119.412 5.41C119.052 5.09 118.552 4.93 117.912 4.93C117.152 4.93 116.552 5.2 116.112 5.74C115.672 6.28 115.452 7.06 115.452 8.08C115.452 10.28 116.192 11.38 117.672 11.38Z" fill="#FECE00"/>
</svg>
