<svg width="180" height="254" viewBox="0 0 180 254" fill="none" xmlns="http://www.w3.org/2000/svg">
<g clip-path="url(#clip0)">
<path fill-rule="evenodd" clip-rule="evenodd" d="M90 254C139.706 254 180 213.706 180 164C180 114.294 139.706 74 90 74C40.2944 74 0 114.294 0 164C0 213.706 40.2944 254 90 254Z" fill="#4F63D3" stroke="#8FA1F5" stroke-opacity="0.0969733" stroke-width="2"/>
<mask id="mask0" mask-type="alpha" maskUnits="userSpaceOnUse" x="-1" y="73" width="182" height="182">
<path fill-rule="evenodd" clip-rule="evenodd" d="M90 254C139.706 254 180 213.706 180 164C180 114.294 139.706 74 90 74C40.2944 74 0 114.294 0 164C0 213.706 40.2944 254 90 254Z" fill="white" stroke="white" stroke-width="2"/>
</mask>
<g mask="url(#mask0)">
<path d="M136.56 172.141C142.925 172.141 148.085 166.285 148.085 159.063C148.085 151.84 142.925 145.985 136.56 145.985C130.195 145.985 125.035 151.84 125.035 159.063C125.035 166.285 130.195 172.141 136.56 172.141Z" fill="#C6866D"/>
<path d="M158.398 186.779V192.533C158.398 194.323 156.939 195.775 155.138 195.775H118.026C117.16 195.777 116.33 195.436 115.718 194.828C115.106 194.219 114.763 193.394 114.765 192.533V186.779C114.764 179.199 119.653 172.473 126.892 170.095C129.28 172.977 132.839 174.647 136.595 174.647C140.351 174.647 143.91 172.977 146.298 170.095C153.525 172.485 158.401 179.207 158.398 186.779Z" fill="#8288D2"/>
<path d="M45.562 172.141C51.9271 172.141 57.0871 166.285 57.0871 159.063C57.0871 151.84 51.9271 145.985 45.562 145.985C39.1968 145.985 34.0369 151.84 34.0369 159.063C34.0369 166.285 39.1968 172.141 45.562 172.141Z" fill="#C6866D"/>
<path d="M67.3918 186.779V192.533C67.3941 193.394 67.0513 194.219 66.4394 194.828C65.8274 195.436 64.9967 195.777 64.1313 195.775H26.9928C25.1921 195.775 23.7323 194.323 23.7323 192.533V186.779C23.7322 179.197 28.625 172.47 35.8677 170.095C38.254 172.977 41.8118 174.646 45.5664 174.646C49.321 174.646 52.8788 172.977 55.2651 170.095C62.5078 172.469 67.3986 179.197 67.3918 186.779Z" fill="#8288D2"/>
<path d="M91.5143 165.233C99.7379 165.233 106.405 157.667 106.405 148.333C106.405 139 99.7379 131.433 91.5143 131.433C83.2906 131.433 76.624 139 76.624 148.333C76.624 157.667 83.2906 165.233 91.5143 165.233Z" fill="#CE9C89"/>
<path d="M119.769 184.153V191.58C119.769 193.897 117.88 195.775 115.55 195.775H67.601C65.2706 195.775 63.3815 193.897 63.3815 191.58V184.153C63.3818 174.349 69.7087 165.652 79.0738 162.581C82.1556 166.308 86.7533 168.467 91.6058 168.467C96.4583 168.467 101.056 166.308 104.138 162.581C113.479 165.673 119.778 174.365 119.769 184.153Z" fill="#FF7033"/>
<path d="M148.486 105L0 253.613" stroke="#FECE00" stroke-width="6"/>
</g>
<path fill-rule="evenodd" clip-rule="evenodd" d="M90 254C139.706 254 180 213.706 180 164C180 114.294 139.706 74 90 74C40.2944 74 0 114.294 0 164C0 213.706 40.2944 254 90 254Z" stroke="#FECE00" stroke-width="2" stroke-dasharray="146"/>
<path d="M34.6505 19.69L33.3405 13.76C33.3071 13.58 33.2671 13.3733 33.2205 13.14C33.1738 12.9 33.1338 12.6433 33.1005 12.37C33.0005 12.65 32.9005 12.9067 32.8005 13.14C32.7005 13.3733 32.6105 13.5833 32.5305 13.77L29.7605 19.69H34.6505ZM37.7605 25H36.3205C36.1538 25 36.0238 24.96 35.9305 24.88C35.8371 24.7933 35.7705 24.6833 35.7305 24.55L34.9505 21.05H29.1205L27.4805 24.55C27.4205 24.67 27.3271 24.7767 27.2005 24.87C27.0805 24.9567 26.9438 25 26.7905 25H25.3305L32.3505 10.67H34.2505L37.7605 25ZM47.7355 14.87L42.6555 25H41.1755L38.5555 14.87H39.9955C40.1288 14.87 40.2355 14.9067 40.3155 14.98C40.3955 15.0533 40.4488 15.14 40.4755 15.24L41.9755 21.76C42.0155 22.0133 42.0488 22.2633 42.0755 22.51C42.1021 22.7567 42.1255 23.0067 42.1455 23.26C42.2188 23.0133 42.2988 22.7667 42.3855 22.52C42.4721 22.2733 42.5721 22.02 42.6855 21.76L45.8155 15.24C45.8688 15.1333 45.9421 15.0467 46.0355 14.98C46.1288 14.9067 46.2355 14.87 46.3555 14.87H47.7355ZM51.7214 23.75C52.2081 23.75 52.6481 23.6167 53.0414 23.35C53.4414 23.0833 53.7814 22.73 54.0614 22.29C54.3481 21.8433 54.5681 21.33 54.7214 20.75C54.8747 20.17 54.9514 19.5633 54.9514 18.93C54.9514 17.9967 54.7647 17.2967 54.3914 16.83C54.0247 16.3567 53.4947 16.12 52.8014 16.12C52.3081 16.12 51.8614 16.2533 51.4614 16.52C51.0681 16.78 50.7314 17.13 50.4514 17.57C50.1714 18.01 49.9547 18.52 49.8014 19.1C49.6481 19.68 49.5714 20.2867 49.5714 20.92C49.5714 21.8533 49.7547 22.56 50.1214 23.04C50.4881 23.5133 51.0214 23.75 51.7214 23.75ZM51.5514 25.14C50.9981 25.14 50.4914 25.0467 50.0314 24.86C49.5714 24.6667 49.1747 24.39 48.8414 24.03C48.5081 23.67 48.2481 23.23 48.0614 22.71C47.8747 22.19 47.7814 21.5967 47.7814 20.93C47.7814 20.0767 47.9147 19.2733 48.1814 18.52C48.4481 17.7667 48.8147 17.11 49.2814 16.55C49.7481 15.9833 50.2947 15.5367 50.9214 15.21C51.5547 14.8833 52.2347 14.72 52.9614 14.72C53.5147 14.72 54.0214 14.8167 54.4814 15.01C54.9414 15.1967 55.3381 15.47 55.6714 15.83C56.0047 16.19 56.2647 16.63 56.4514 17.15C56.6381 17.67 56.7314 18.26 56.7314 18.92C56.7314 19.7667 56.5981 20.5667 56.3314 21.32C56.0647 22.0733 55.6981 22.7333 55.2314 23.3C54.7714 23.8667 54.2247 24.3167 53.5914 24.65C52.9581 24.9767 52.2781 25.14 51.5514 25.14ZM61.2225 14.87L60.0025 25H58.2525L59.4725 14.87H61.2225ZM61.9025 11.69C61.9025 11.8633 61.8658 12.0267 61.7925 12.18C61.7258 12.3267 61.6325 12.46 61.5125 12.58C61.3992 12.6933 61.2658 12.7833 61.1125 12.85C60.9658 12.9167 60.8125 12.95 60.6525 12.95C60.4992 12.95 60.3492 12.9167 60.2025 12.85C60.0558 12.7833 59.9258 12.6933 59.8125 12.58C59.7058 12.46 59.6192 12.3267 59.5525 12.18C59.4858 12.0267 59.4525 11.8633 59.4525 11.69C59.4525 11.5167 59.4858 11.3533 59.5525 11.2C59.6192 11.0467 59.7092 10.9133 59.8225 10.8C59.9358 10.68 60.0658 10.5867 60.2125 10.52C60.3592 10.4467 60.5092 10.41 60.6625 10.41C60.8225 10.41 60.9758 10.4433 61.1225 10.51C61.2758 10.5767 61.4092 10.67 61.5225 10.79C61.6358 10.9033 61.7258 11.04 61.7925 11.2C61.8658 11.3533 61.9025 11.5167 61.9025 11.69ZM69.9119 17.08C69.6585 16.72 69.3519 16.47 68.9919 16.33C68.6385 16.1833 68.2785 16.11 67.9119 16.11C67.3852 16.11 66.9119 16.2667 66.4919 16.58C66.0719 16.8933 65.7119 17.3 65.4119 17.8C65.1185 18.2933 64.8919 18.8467 64.7319 19.46C64.5719 20.0733 64.4919 20.6767 64.4919 21.27C64.4919 22.0633 64.6319 22.67 64.9119 23.09C65.1985 23.5033 65.6052 23.71 66.1319 23.71C66.4519 23.71 66.7752 23.61 67.1019 23.41C67.4285 23.21 67.7419 22.9333 68.0419 22.58C68.3485 22.22 68.6319 21.7967 68.8919 21.31C69.1585 20.8233 69.3885 20.29 69.5819 19.71L69.9119 17.08ZM72.4919 10.27L70.6819 25H69.7519C69.5185 25 69.3619 24.94 69.2819 24.82C69.2019 24.7 69.1619 24.5533 69.1619 24.38L69.3519 22.25C69.0985 22.69 68.8219 23.0867 68.5219 23.44C68.2219 23.7933 67.9052 24.0967 67.5719 24.35C67.2452 24.6033 66.9019 24.8 66.5419 24.94C66.1885 25.0733 65.8285 25.14 65.4619 25.14C64.5952 25.14 63.9219 24.8267 63.4419 24.2C62.9619 23.5667 62.7219 22.65 62.7219 21.45C62.7219 20.9033 62.7785 20.3567 62.8919 19.81C63.0052 19.2633 63.1652 18.74 63.3719 18.24C63.5852 17.74 63.8385 17.2767 64.1319 16.85C64.4319 16.4167 64.7652 16.0433 65.1319 15.73C65.4985 15.4167 65.8919 15.17 66.3119 14.99C66.7385 14.81 67.1852 14.72 67.6519 14.72C68.1519 14.72 68.6052 14.82 69.0119 15.02C69.4252 15.2133 69.7752 15.49 70.0619 15.85L70.7519 10.27H72.4919ZM81.8353 20.43C82.1953 20.43 82.512 20.3533 82.7853 20.2C83.0653 20.04 83.2986 19.8333 83.4853 19.58C83.6786 19.32 83.8253 19.03 83.9253 18.71C84.0253 18.39 84.0753 18.0667 84.0753 17.74C84.0753 17.1533 83.9253 16.71 83.6253 16.41C83.332 16.11 82.9253 15.96 82.4053 15.96C82.0453 15.96 81.7286 16.0333 81.4553 16.18C81.182 16.3267 80.9486 16.5233 80.7553 16.77C80.5686 17.0167 80.4253 17.2967 80.3253 17.61C80.232 17.9233 80.1853 18.25 80.1853 18.59C80.1853 19.19 80.3286 19.6467 80.6153 19.96C80.9086 20.2733 81.3153 20.43 81.8353 20.43ZM83.8453 25.25C83.8453 25.07 83.8286 24.9067 83.7953 24.76C83.762 24.6067 83.7186 24.4633 83.6653 24.33C82.7853 24.19 82.0253 24.14 81.3853 24.18C80.7453 24.2133 80.2153 24.31 79.7953 24.47C79.382 24.63 79.0753 24.8367 78.8753 25.09C78.6753 25.3433 78.5753 25.6167 78.5753 25.91C78.5753 26.39 78.7753 26.7567 79.1753 27.01C79.582 27.2633 80.1553 27.39 80.8953 27.39C81.3353 27.39 81.7353 27.33 82.0953 27.21C82.462 27.0967 82.772 26.9433 83.0253 26.75C83.2853 26.5567 83.4853 26.33 83.6253 26.07C83.772 25.81 83.8453 25.5367 83.8453 25.25ZM87.2453 15.24L87.1753 15.83C87.142 16.07 87.0086 16.23 86.7753 16.31L85.5053 16.53C85.632 16.8767 85.6953 17.26 85.6953 17.68C85.6953 18.0133 85.6553 18.3133 85.5753 18.58C85.502 18.8467 85.4086 19.0933 85.2953 19.32C85.182 19.5467 85.0586 19.76 84.9253 19.96C84.792 20.16 84.6686 20.36 84.5553 20.56C84.442 20.7533 84.3453 20.9567 84.2653 21.17C84.192 21.3767 84.1553 21.6033 84.1553 21.85C84.1553 22.03 84.1853 22.2033 84.2453 22.37C84.312 22.53 84.392 22.69 84.4853 22.85C84.5853 23.0033 84.692 23.16 84.8053 23.32C84.9253 23.48 85.032 23.65 85.1253 23.83C85.2253 24.01 85.3053 24.2067 85.3653 24.42C85.432 24.6267 85.4653 24.8567 85.4653 25.11C85.4586 25.5833 85.3453 26.03 85.1253 26.45C84.9053 26.8767 84.592 27.2533 84.1853 27.58C83.7786 27.9067 83.2853 28.1633 82.7053 28.35C82.1253 28.5433 81.472 28.64 80.7453 28.64C80.1653 28.64 79.6353 28.58 79.1553 28.46C78.682 28.34 78.2753 28.17 77.9353 27.95C77.602 27.73 77.3453 27.4633 77.1653 27.15C76.9786 26.8433 76.8853 26.5033 76.8853 26.13C76.8853 25.7033 76.9753 25.3267 77.1553 25C77.3353 24.6733 77.5786 24.3933 77.8853 24.16C78.192 23.92 78.5486 23.7233 78.9553 23.57C79.362 23.4167 79.792 23.3033 80.2453 23.23C80.7053 23.1567 81.1753 23.1233 81.6553 23.13C82.1353 23.13 82.6053 23.1633 83.0653 23.23C83.0053 23.1033 82.9553 22.9733 82.9153 22.84C82.882 22.7 82.8653 22.55 82.8653 22.39C82.8653 22.1833 82.8953 21.97 82.9553 21.75C83.022 21.53 83.1286 21.28 83.2753 21C83.022 21.1733 82.7386 21.31 82.4253 21.41C82.112 21.5033 81.7553 21.55 81.3553 21.55C80.9686 21.55 80.6053 21.4867 80.2653 21.36C79.932 21.2333 79.6386 21.0467 79.3853 20.8C79.132 20.5533 78.932 20.2467 78.7853 19.88C78.6386 19.5067 78.5653 19.0733 78.5653 18.58C78.5653 18.1 78.652 17.63 78.8253 17.17C79.0053 16.7033 79.2653 16.29 79.6053 15.93C79.9453 15.5633 80.3653 15.27 80.8653 15.05C81.3653 14.83 81.942 14.72 82.5953 14.72C82.9553 14.72 83.2986 14.7633 83.6253 14.85C83.952 14.9367 84.2453 15.0667 84.5053 15.24H87.2453ZM94.3503 16.11C94.2036 16.0767 94.057 16.0567 93.9103 16.05C93.7703 16.0367 93.6303 16.03 93.4903 16.03C93.0903 16.03 92.7036 16.0967 92.3303 16.23C91.957 16.3567 91.607 16.5367 91.2803 16.77C90.9536 17.0033 90.657 17.2833 90.3903 17.61C90.1236 17.93 89.8936 18.2833 89.7003 18.67C89.5136 19.0567 89.367 19.47 89.2603 19.91C89.1536 20.3433 89.1003 20.79 89.1003 21.25C89.1003 22.8567 89.6136 23.66 90.6403 23.66C90.967 23.66 91.287 23.56 91.6003 23.36C91.9136 23.1533 92.2103 22.87 92.4903 22.51C92.777 22.1433 93.0403 21.7133 93.2803 21.22C93.5203 20.72 93.7336 20.1733 93.9203 19.58L94.3503 16.11ZM93.6703 22.33C93.4303 22.7567 93.1703 23.1433 92.8903 23.49C92.617 23.8367 92.3236 24.1333 92.0103 24.38C91.7036 24.62 91.377 24.8067 91.0303 24.94C90.6903 25.0733 90.337 25.14 89.9703 25.14C89.5703 25.14 89.207 25.0633 88.8803 24.91C88.5536 24.75 88.2736 24.52 88.0403 24.22C87.8136 23.9133 87.637 23.54 87.5103 23.1C87.3836 22.6533 87.3203 22.1433 87.3203 21.57C87.3203 20.97 87.3936 20.3867 87.5403 19.82C87.6936 19.2467 87.907 18.7067 88.1803 18.2C88.4603 17.6933 88.7936 17.23 89.1803 16.81C89.567 16.3833 89.997 16.0167 90.4703 15.71C90.9503 15.3967 91.4636 15.1567 92.0103 14.99C92.557 14.8167 93.1303 14.73 93.7303 14.73C94.1636 14.73 94.5836 14.7667 94.9903 14.84C95.4036 14.9067 95.8103 15.0267 96.2103 15.2L95.0003 25H94.0803C93.847 25 93.687 24.94 93.6003 24.82C93.5203 24.7 93.4803 24.5533 93.4803 24.38L93.6703 22.33ZM98.4252 23.09C98.4252 23.05 98.4252 23 98.4252 22.94C98.4252 22.8733 98.4285 22.78 98.4352 22.66C98.4485 22.54 98.4652 22.3833 98.4852 22.19C98.5118 21.9967 98.5452 21.7433 98.5852 21.43L99.2052 16.36H98.0752C97.9818 16.36 97.9052 16.33 97.8452 16.27C97.7918 16.2033 97.7718 16.1033 97.7852 15.97L97.8652 15.26L99.4252 15.05L100.185 11.92C100.218 11.82 100.268 11.74 100.335 11.68C100.408 11.6133 100.498 11.58 100.605 11.58H101.535L101.105 15.07H103.765L103.615 16.36H100.945L100.335 21.34C100.302 21.6133 100.275 21.8333 100.255 22C100.235 22.1667 100.218 22.3 100.205 22.4C100.198 22.5 100.192 22.57 100.185 22.61C100.185 22.65 100.185 22.68 100.185 22.7C100.185 23.04 100.265 23.2933 100.425 23.46C100.585 23.62 100.798 23.7 101.065 23.7C101.245 23.7 101.398 23.6767 101.525 23.63C101.658 23.5767 101.775 23.52 101.875 23.46C101.975 23.4 102.058 23.3467 102.125 23.3C102.192 23.2467 102.248 23.22 102.295 23.22C102.355 23.22 102.398 23.2333 102.425 23.26C102.458 23.2867 102.488 23.33 102.515 23.39L102.895 24.24C102.568 24.5267 102.195 24.7533 101.775 24.92C101.362 25.08 100.945 25.16 100.525 25.16C99.8785 25.16 99.3685 24.9833 98.9952 24.63C98.6285 24.2767 98.4385 23.7633 98.4252 23.09ZM107.445 17.11C107.972 16.3233 108.555 15.73 109.195 15.33C109.842 14.9233 110.498 14.72 111.165 14.72C111.598 14.72 111.978 14.8067 112.305 14.98C112.632 15.1467 112.895 15.3933 113.095 15.72C113.302 16.0467 113.442 16.45 113.515 16.93C113.588 17.4033 113.588 17.9433 113.515 18.55L112.755 25H110.975L111.735 18.55C111.835 17.75 111.788 17.1567 111.595 16.77C111.402 16.3833 111.042 16.19 110.515 16.19C110.215 16.19 109.905 16.2733 109.585 16.44C109.265 16.6 108.955 16.83 108.655 17.13C108.362 17.43 108.082 17.7933 107.815 18.22C107.555 18.6467 107.328 19.1233 107.135 19.65L106.485 25H104.715L106.495 10.27H108.275L107.445 17.11ZM120.451 16.01C120.031 16.01 119.644 16.0967 119.291 16.27C118.938 16.4433 118.624 16.6833 118.351 16.99C118.078 17.29 117.844 17.6467 117.651 18.06C117.458 18.4667 117.308 18.9067 117.201 19.38C118.228 19.2533 119.051 19.11 119.671 18.95C120.291 18.7833 120.768 18.6067 121.101 18.42C121.434 18.2267 121.654 18.02 121.761 17.8C121.868 17.58 121.921 17.35 121.921 17.11C121.921 16.99 121.894 16.8667 121.841 16.74C121.788 16.6067 121.701 16.4867 121.581 16.38C121.468 16.2733 121.318 16.1867 121.131 16.12C120.944 16.0467 120.718 16.01 120.451 16.01ZM123.271 23.13C122.931 23.4833 122.598 23.7867 122.271 24.04C121.944 24.2867 121.611 24.4933 121.271 24.66C120.938 24.8267 120.584 24.9467 120.211 25.02C119.844 25.1 119.448 25.14 119.021 25.14C118.441 25.14 117.921 25.0433 117.461 24.85C117.001 24.6567 116.611 24.3833 116.291 24.03C115.971 23.67 115.724 23.2367 115.551 22.73C115.378 22.2233 115.291 21.6567 115.291 21.03C115.291 20.51 115.344 19.9933 115.451 19.48C115.564 18.96 115.724 18.4667 115.931 18C116.144 17.5333 116.401 17.1 116.701 16.7C117.008 16.3 117.354 15.9567 117.741 15.67C118.134 15.3767 118.564 15.1467 119.031 14.98C119.504 14.8133 120.011 14.73 120.551 14.73C121.064 14.73 121.508 14.8033 121.881 14.95C122.254 15.0967 122.561 15.2833 122.801 15.51C123.041 15.7367 123.218 15.9867 123.331 16.26C123.451 16.5333 123.511 16.7933 123.511 17.04C123.511 17.48 123.421 17.8867 123.241 18.26C123.061 18.6267 122.731 18.96 122.251 19.26C121.771 19.5533 121.111 19.81 120.271 20.03C119.431 20.25 118.351 20.4267 117.031 20.56C117.031 20.6333 117.028 20.7067 117.021 20.78C117.021 20.8467 117.021 20.9167 117.021 20.99C117.021 21.8833 117.214 22.5667 117.601 23.04C117.994 23.5067 118.584 23.74 119.371 23.74C119.691 23.74 119.974 23.7067 120.221 23.64C120.474 23.5733 120.698 23.4933 120.891 23.4C121.091 23.3 121.264 23.1933 121.411 23.08C121.564 22.96 121.701 22.8533 121.821 22.76C121.948 22.66 122.064 22.5767 122.171 22.51C122.278 22.4433 122.384 22.41 122.491 22.41C122.618 22.41 122.731 22.4667 122.831 22.58L123.271 23.13ZM127.411 17.69C127.678 17.1233 127.965 16.6333 128.271 16.22C128.585 15.8 128.911 15.4733 129.251 15.24C129.591 15 129.941 14.8567 130.301 14.81C130.661 14.7567 131.028 14.81 131.401 14.97L131.081 16.68C130.215 16.3333 129.448 16.46 128.781 17.06C128.121 17.66 127.585 18.7433 127.171 20.31L126.611 25H124.871L126.091 14.86H126.971C127.378 14.86 127.581 15.06 127.581 15.46L127.411 17.69ZM134.777 14.87L133.557 25H131.807L133.027 14.87H134.777ZM135.457 11.69C135.457 11.8633 135.421 12.0267 135.347 12.18C135.281 12.3267 135.187 12.46 135.067 12.58C134.954 12.6933 134.821 12.7833 134.667 12.85C134.521 12.9167 134.367 12.95 134.207 12.95C134.054 12.95 133.904 12.9167 133.757 12.85C133.611 12.7833 133.481 12.6933 133.367 12.58C133.261 12.46 133.174 12.3267 133.107 12.18C133.041 12.0267 133.007 11.8633 133.007 11.69C133.007 11.5167 133.041 11.3533 133.107 11.2C133.174 11.0467 133.264 10.9133 133.377 10.8C133.491 10.68 133.621 10.5867 133.767 10.52C133.914 10.4467 134.064 10.41 134.217 10.41C134.377 10.41 134.531 10.4433 134.677 10.51C134.831 10.5767 134.964 10.67 135.077 10.79C135.191 10.9033 135.281 11.04 135.347 11.2C135.421 11.3533 135.457 11.5167 135.457 11.69ZM138.867 17.43C139.407 16.5367 140.017 15.8633 140.697 15.41C141.377 14.95 142.077 14.72 142.797 14.72C143.223 14.72 143.597 14.8067 143.917 14.98C144.243 15.1467 144.507 15.3933 144.707 15.72C144.913 16.0467 145.053 16.45 145.127 16.93C145.2 17.4033 145.2 17.9433 145.127 18.55L144.367 25H142.597L143.357 18.55C143.45 17.75 143.4 17.16 143.207 16.78C143.013 16.3933 142.657 16.2 142.137 16.2C141.817 16.2 141.49 16.2867 141.157 16.46C140.83 16.6333 140.513 16.88 140.207 17.2C139.9 17.52 139.613 17.9067 139.347 18.36C139.087 18.8067 138.863 19.3067 138.677 19.86L138.097 25H136.317L137.537 14.86H138.417C138.817 14.86 139.017 15.06 139.017 15.46L138.867 17.43ZM150.722 20.43C151.082 20.43 151.399 20.3533 151.672 20.2C151.952 20.04 152.185 19.8333 152.372 19.58C152.565 19.32 152.712 19.03 152.812 18.71C152.912 18.39 152.962 18.0667 152.962 17.74C152.962 17.1533 152.812 16.71 152.512 16.41C152.219 16.11 151.812 15.96 151.292 15.96C150.932 15.96 150.615 16.0333 150.342 16.18C150.069 16.3267 149.835 16.5233 149.642 16.77C149.455 17.0167 149.312 17.2967 149.212 17.61C149.119 17.9233 149.072 18.25 149.072 18.59C149.072 19.19 149.215 19.6467 149.502 19.96C149.795 20.2733 150.202 20.43 150.722 20.43ZM152.732 25.25C152.732 25.07 152.715 24.9067 152.682 24.76C152.649 24.6067 152.605 24.4633 152.552 24.33C151.672 24.19 150.912 24.14 150.272 24.18C149.632 24.2133 149.102 24.31 148.682 24.47C148.269 24.63 147.962 24.8367 147.762 25.09C147.562 25.3433 147.462 25.6167 147.462 25.91C147.462 26.39 147.662 26.7567 148.062 27.01C148.469 27.2633 149.042 27.39 149.782 27.39C150.222 27.39 150.622 27.33 150.982 27.21C151.349 27.0967 151.659 26.9433 151.912 26.75C152.172 26.5567 152.372 26.33 152.512 26.07C152.659 25.81 152.732 25.5367 152.732 25.25ZM156.132 15.24L156.062 15.83C156.029 16.07 155.895 16.23 155.662 16.31L154.392 16.53C154.519 16.8767 154.582 17.26 154.582 17.68C154.582 18.0133 154.542 18.3133 154.462 18.58C154.389 18.8467 154.295 19.0933 154.182 19.32C154.069 19.5467 153.945 19.76 153.812 19.96C153.679 20.16 153.555 20.36 153.442 20.56C153.329 20.7533 153.232 20.9567 153.152 21.17C153.079 21.3767 153.042 21.6033 153.042 21.85C153.042 22.03 153.072 22.2033 153.132 22.37C153.199 22.53 153.279 22.69 153.372 22.85C153.472 23.0033 153.579 23.16 153.692 23.32C153.812 23.48 153.919 23.65 154.012 23.83C154.112 24.01 154.192 24.2067 154.252 24.42C154.319 24.6267 154.352 24.8567 154.352 25.11C154.345 25.5833 154.232 26.03 154.012 26.45C153.792 26.8767 153.479 27.2533 153.072 27.58C152.665 27.9067 152.172 28.1633 151.592 28.35C151.012 28.5433 150.359 28.64 149.632 28.64C149.052 28.64 148.522 28.58 148.042 28.46C147.569 28.34 147.162 28.17 146.822 27.95C146.489 27.73 146.232 27.4633 146.052 27.15C145.865 26.8433 145.772 26.5033 145.772 26.13C145.772 25.7033 145.862 25.3267 146.042 25C146.222 24.6733 146.465 24.3933 146.772 24.16C147.079 23.92 147.435 23.7233 147.842 23.57C148.249 23.4167 148.679 23.3033 149.132 23.23C149.592 23.1567 150.062 23.1233 150.542 23.13C151.022 23.13 151.492 23.1633 151.952 23.23C151.892 23.1033 151.842 22.9733 151.802 22.84C151.769 22.7 151.752 22.55 151.752 22.39C151.752 22.1833 151.782 21.97 151.842 21.75C151.909 21.53 152.015 21.28 152.162 21C151.909 21.1733 151.625 21.31 151.312 21.41C150.999 21.5033 150.642 21.55 150.242 21.55C149.855 21.55 149.492 21.4867 149.152 21.36C148.819 21.2333 148.525 21.0467 148.272 20.8C148.019 20.5533 147.819 20.2467 147.672 19.88C147.525 19.5067 147.452 19.0733 147.452 18.58C147.452 18.1 147.539 17.63 147.712 17.17C147.892 16.7033 148.152 16.29 148.492 15.93C148.832 15.5633 149.252 15.27 149.752 15.05C150.252 14.83 150.829 14.72 151.482 14.72C151.842 14.72 152.185 14.7633 152.512 14.85C152.839 14.9367 153.132 15.0667 153.392 15.24H156.132Z" fill="white"/>
</g>
<defs>
<clipPath id="clip0">
<rect width="180" height="254" fill="white"/>
</clipPath>
</defs>
</svg>
