<svg width="181" height="254" viewBox="0 0 181 254" fill="none" xmlns="http://www.w3.org/2000/svg">
<g clip-path="url(#clip0)">
<path fill-rule="evenodd" clip-rule="evenodd" d="M91 254C140.706 254 181 213.706 181 164C181 114.294 140.706 74 91 74C41.2944 74 1 114.294 1 164C1 213.706 41.2944 254 91 254Z" fill="#4F63D3" stroke="#8FA1F5" stroke-opacity="0.0969733" stroke-width="2"/>
<mask id="mask0" mask-type="alpha" maskUnits="userSpaceOnUse" x="0" y="73" width="182" height="182">
<path fill-rule="evenodd" clip-rule="evenodd" d="M91 254C140.706 254 181 213.706 181 164C181 114.294 140.706 74 91 74C41.2944 74 1 114.294 1 164C1 213.706 41.2944 254 91 254Z" fill="white" stroke="white" stroke-width="2"/>
</mask>
<g mask="url(#mask0)">
<path d="M168.977 117.316C168.977 117.316 136.021 131.055 132.435 131.1C128.849 131.145 102.253 130.729 92.9482 133.405C83.6433 136.08 51.3926 154.193 42.9641 162.491C34.5355 170.788 63.9225 200.009 77.943 201.6C91.9635 203.191 127.521 185.249 137.096 181.715C146.672 178.181 153.755 166.106 153.755 166.106L181.76 158.414C181.76 158.414 190.324 128.75 168.977 117.316Z" fill="#C6866D"/>
<path d="M139.039 154.383C128.884 152.51 118.394 154.386 109.516 159.662C100.338 165.238 95.7487 174.304 91.5479 183.803C91.3763 184.201 92.0267 184.535 92.2345 184.147C97.0766 175.37 102.244 166.458 111.206 161.27C119.761 156.299 129.273 155.558 138.975 155.965C139.411 155.975 139.774 155.632 139.789 155.197C139.798 154.989 139.724 154.786 139.584 154.633C139.443 154.48 139.246 154.39 139.039 154.383Z" fill="#9E5E4A"/>
<path d="M-0.759635 160.52C-0.759635 160.52 -8.89007 143.727 8.56326 121.311C8.56326 121.311 36.3603 129.003 41.0218 128.144C49.2967 126.617 74.3656 120.398 83.8692 121.167C93.3727 121.935 111.422 137.147 122.624 139.795C133.826 142.443 135.217 144.92 134.314 147.83C133.411 150.741 115.605 152.132 98.4497 146.022C98.4497 146.022 133.682 172.089 135.488 178.001C137.295 183.912 129.86 186.596 127.99 185.873C126.787 188.024 125.035 189.817 122.913 191.07C120.137 192.445 117.008 192.94 113.943 192.489C113.943 192.489 112.479 200.922 102.56 199.386C102.56 199.386 103.464 205.252 95.1072 205.432C86.7509 205.613 60.2367 197.587 49.8388 191.115C39.4408 184.644 26.2605 170.399 23.4871 169.071C20.7137 167.742 -0.759635 160.52 -0.759635 160.52Z" fill="#CE9C89"/>
<path d="M102.407 198.852C91.1053 193.357 79.1084 189.66 68.0781 183.541C67.9971 183.498 67.9018 183.49 67.8146 183.519C67.7275 183.548 67.6561 183.611 67.6173 183.695C67.539 183.848 67.5899 184.036 67.7348 184.129C77.8527 190.907 89.7954 197.966 102.063 199.765C102.524 199.846 102.967 199.123 102.407 198.852Z" fill="#C08C78"/>
<path d="M113.88 191.92C102.696 183.496 89.967 178.028 78.5302 170.327C78.3315 170.191 78.0785 170.508 78.2682 170.661C89.2985 179.239 100.762 186.705 113.563 192.354C114.169 192.679 114.44 192.345 113.88 191.92Z" fill="#C08C78"/>
<path d="M128.216 185.159C123.808 179.844 117.168 175.795 111.684 171.601C105.559 166.937 99.299 162.463 92.9753 158.044C92.6501 157.809 92.2255 158.351 92.5417 158.604C98.5763 163.376 104.602 168.167 110.673 172.894C116.093 177.115 121.622 182.601 127.783 185.692C127.867 185.736 127.966 185.743 128.056 185.712C128.147 185.682 128.221 185.616 128.261 185.53C128.314 185.407 128.297 185.265 128.216 185.159Z" fill="#C08C78"/>
<path d="M84.6913 129.527C78.9548 131.877 76.3801 137.056 70.6708 143.718C66.4249 148.671 57.9331 154.049 61.637 157.818C65.3408 161.587 77.13 154.962 82.5683 150.497C88.0067 146.032 97.3838 145.688 98.4498 146.059C99.5158 146.429 115.18 154.645 126.735 153.127C138.289 151.608 143.899 128.967 143.899 128.967C143.899 128.967 131.035 129.871 122.344 127.25C105.74 122.233 94.8904 125.324 84.6913 129.527Z" fill="#C6866D"/>
<path d="M49.6581 193.827C48.818 199.25 56.6232 204.022 60.0108 201.916C63.3985 199.81 74.1036 183.55 73.3719 180.224C72.6401 176.898 68.2136 174.15 65.0969 176.383C61.9802 178.615 50.2995 189.525 49.6581 193.827Z" fill="#C6866D"/>
<path d="M41.1934 182.131C39.2963 186.922 45.3941 192.833 48.8993 191.631C52.4044 190.428 65.5215 177.901 65.5486 174.738C65.5757 171.574 62.1338 168.149 58.8365 169.522C55.5391 170.896 42.684 178.371 41.1934 182.131Z" fill="#C6866D"/>
<path d="M63.2992 201.419C63.6515 206.553 71.7096 209.256 74.3566 206.662C77.0035 204.068 83.3904 187.102 82.0895 184.228C80.7886 181.354 76.1633 179.763 73.7784 182.42C71.3935 185.078 63.0281 197.379 63.2992 201.419Z" fill="#C6866D"/>
<path d="M75.5942 206.381C76.8409 210.964 84.628 211.94 86.5432 209.093C88.4584 206.246 91.1866 189.769 89.4611 187.401C87.7357 185.033 83.3001 184.436 81.6288 187.274C79.9576 190.112 74.6186 202.784 75.5942 206.381Z" fill="#C6866D"/>
</g>
<path fill-rule="evenodd" clip-rule="evenodd" d="M90 254C139.706 254 180 213.706 180 164C180 114.294 139.706 74 90 74C40.2944 74 0 114.294 0 164C0 213.706 40.2944 254 90 254Z" stroke="#FECE00" stroke-width="2" stroke-dasharray="146"/>
<path d="M9.48445 19.69L8.17445 13.76C8.14112 13.58 8.10112 13.3733 8.05445 13.14C8.00779 12.9 7.96779 12.6433 7.93445 12.37C7.83445 12.65 7.73445 12.9067 7.63445 13.14C7.53445 13.3733 7.44445 13.5833 7.36445 13.77L4.59445 19.69H9.48445ZM12.5945 25H11.1545C10.9878 25 10.8578 24.96 10.7645 24.88C10.6711 24.7933 10.6045 24.6833 10.5645 24.55L9.78445 21.05H3.95445L2.31445 24.55C2.25445 24.67 2.16112 24.7767 2.03445 24.87C1.91445 24.9567 1.77779 25 1.62445 25H0.164453L7.18445 10.67H9.08445L12.5945 25ZM22.5695 14.87L17.4895 25H16.0095L13.3895 14.87H14.8295C14.9628 14.87 15.0695 14.9067 15.1495 14.98C15.2295 15.0533 15.2828 15.14 15.3095 15.24L16.8095 21.76C16.8495 22.0133 16.8828 22.2633 16.9095 22.51C16.9361 22.7567 16.9595 23.0067 16.9795 23.26C17.0528 23.0133 17.1328 22.7667 17.2195 22.52C17.3061 22.2733 17.4061 22.02 17.5195 21.76L20.6495 15.24C20.7028 15.1333 20.7761 15.0467 20.8695 14.98C20.9628 14.9067 21.0695 14.87 21.1895 14.87H22.5695ZM26.5554 23.75C27.0421 23.75 27.4821 23.6167 27.8754 23.35C28.2754 23.0833 28.6154 22.73 28.8954 22.29C29.1821 21.8433 29.4021 21.33 29.5554 20.75C29.7087 20.17 29.7854 19.5633 29.7854 18.93C29.7854 17.9967 29.5987 17.2967 29.2254 16.83C28.8587 16.3567 28.3287 16.12 27.6354 16.12C27.1421 16.12 26.6954 16.2533 26.2954 16.52C25.9021 16.78 25.5654 17.13 25.2854 17.57C25.0054 18.01 24.7887 18.52 24.6354 19.1C24.4821 19.68 24.4054 20.2867 24.4054 20.92C24.4054 21.8533 24.5887 22.56 24.9554 23.04C25.3221 23.5133 25.8554 23.75 26.5554 23.75ZM26.3854 25.14C25.8321 25.14 25.3254 25.0467 24.8654 24.86C24.4054 24.6667 24.0087 24.39 23.6754 24.03C23.3421 23.67 23.0821 23.23 22.8954 22.71C22.7087 22.19 22.6154 21.5967 22.6154 20.93C22.6154 20.0767 22.7487 19.2733 23.0154 18.52C23.2821 17.7667 23.6487 17.11 24.1154 16.55C24.5821 15.9833 25.1287 15.5367 25.7554 15.21C26.3887 14.8833 27.0687 14.72 27.7954 14.72C28.3487 14.72 28.8554 14.8167 29.3154 15.01C29.7754 15.1967 30.1721 15.47 30.5054 15.83C30.8387 16.19 31.0987 16.63 31.2854 17.15C31.4721 17.67 31.5654 18.26 31.5654 18.92C31.5654 19.7667 31.4321 20.5667 31.1654 21.32C30.8987 22.0733 30.5321 22.7333 30.0654 23.3C29.6054 23.8667 29.0587 24.3167 28.4254 24.65C27.7921 24.9767 27.1121 25.14 26.3854 25.14ZM36.0565 14.87L34.8365 25H33.0865L34.3065 14.87H36.0565ZM36.7365 11.69C36.7365 11.8633 36.6998 12.0267 36.6265 12.18C36.5598 12.3267 36.4665 12.46 36.3465 12.58C36.2332 12.6933 36.0998 12.7833 35.9465 12.85C35.7998 12.9167 35.6465 12.95 35.4865 12.95C35.3332 12.95 35.1832 12.9167 35.0365 12.85C34.8898 12.7833 34.7598 12.6933 34.6465 12.58C34.5398 12.46 34.4532 12.3267 34.3865 12.18C34.3198 12.0267 34.2865 11.8633 34.2865 11.69C34.2865 11.5167 34.3198 11.3533 34.3865 11.2C34.4532 11.0467 34.5432 10.9133 34.6565 10.8C34.7698 10.68 34.8998 10.5867 35.0465 10.52C35.1932 10.4467 35.3432 10.41 35.4965 10.41C35.6565 10.41 35.8098 10.4433 35.9565 10.51C36.1098 10.5767 36.2432 10.67 36.3565 10.79C36.4698 10.9033 36.5598 11.04 36.6265 11.2C36.6998 11.3533 36.7365 11.5167 36.7365 11.69ZM44.7459 17.08C44.4925 16.72 44.1859 16.47 43.8259 16.33C43.4725 16.1833 43.1125 16.11 42.7459 16.11C42.2192 16.11 41.7459 16.2667 41.3259 16.58C40.9059 16.8933 40.5459 17.3 40.2459 17.8C39.9525 18.2933 39.7259 18.8467 39.5659 19.46C39.4059 20.0733 39.3259 20.6767 39.3259 21.27C39.3259 22.0633 39.4659 22.67 39.7459 23.09C40.0325 23.5033 40.4392 23.71 40.9659 23.71C41.2859 23.71 41.6092 23.61 41.9359 23.41C42.2625 23.21 42.5759 22.9333 42.8759 22.58C43.1825 22.22 43.4659 21.7967 43.7259 21.31C43.9925 20.8233 44.2225 20.29 44.4159 19.71L44.7459 17.08ZM47.3259 10.27L45.5159 25H44.5859C44.3525 25 44.1959 24.94 44.1159 24.82C44.0359 24.7 43.9959 24.5533 43.9959 24.38L44.1859 22.25C43.9325 22.69 43.6559 23.0867 43.3559 23.44C43.0559 23.7933 42.7392 24.0967 42.4059 24.35C42.0792 24.6033 41.7359 24.8 41.3759 24.94C41.0225 25.0733 40.6625 25.14 40.2959 25.14C39.4292 25.14 38.7559 24.8267 38.2759 24.2C37.7959 23.5667 37.5559 22.65 37.5559 21.45C37.5559 20.9033 37.6125 20.3567 37.7259 19.81C37.8392 19.2633 37.9992 18.74 38.2059 18.24C38.4192 17.74 38.6725 17.2767 38.9659 16.85C39.2659 16.4167 39.5992 16.0433 39.9659 15.73C40.3325 15.4167 40.7259 15.17 41.1459 14.99C41.5725 14.81 42.0192 14.72 42.4859 14.72C42.9859 14.72 43.4392 14.82 43.8459 15.02C44.2592 15.2133 44.6092 15.49 44.8959 15.85L45.5859 10.27H47.3259ZM65.7793 10.67L64.0093 25H62.1293L62.9293 18.46H55.9393L55.1393 25H53.2593L55.0193 10.67H56.8993L56.1093 17.1H63.0993L63.8893 10.67H65.7793ZM76.0723 14.87L74.8523 25H73.9723C73.5389 25 73.3223 24.7867 73.3223 24.36L73.4723 22.51C72.9389 23.3767 72.3356 24.0333 71.6623 24.48C70.9956 24.92 70.3089 25.14 69.6023 25.14C69.1756 25.14 68.7989 25.0567 68.4723 24.89C68.1456 24.7167 67.8789 24.4667 67.6723 24.14C67.4723 23.8133 67.3356 23.4133 67.2623 22.94C67.1889 22.4667 67.1923 21.9233 67.2723 21.31L68.0323 14.87H69.8023L69.0423 21.31C68.9489 22.1033 68.9956 22.6933 69.1823 23.08C69.3756 23.4667 69.7356 23.66 70.2623 23.66C70.5689 23.66 70.8856 23.5767 71.2123 23.41C71.5389 23.2433 71.8523 23.0067 72.1523 22.7C72.4523 22.3933 72.7323 22.0233 72.9923 21.59C73.2589 21.15 73.4856 20.6633 73.6723 20.13L74.3023 14.87H76.0723ZM77.4982 25L78.7182 14.86H79.5982C80.0049 14.86 80.2082 15.06 80.2082 15.46L80.0682 17.26C80.5682 16.4267 81.1149 15.7967 81.7082 15.37C82.3082 14.9367 82.9349 14.72 83.5882 14.72C84.2749 14.72 84.7815 14.9567 85.1082 15.43C85.4349 15.8967 85.5982 16.5667 85.5982 17.44C86.0982 16.5133 86.6615 15.83 87.2882 15.39C87.9215 14.9433 88.5882 14.72 89.2882 14.72C90.1549 14.72 90.7682 15.0533 91.1282 15.72C91.4882 16.3867 91.5949 17.33 91.4482 18.55L90.6882 25H88.9282L89.6982 18.55C89.7915 17.7567 89.7649 17.1667 89.6182 16.78C89.4782 16.3933 89.1582 16.2 88.6582 16.2C88.3715 16.2 88.0849 16.2733 87.7982 16.42C87.5182 16.56 87.2449 16.77 86.9782 17.05C86.7115 17.3233 86.4615 17.6667 86.2282 18.08C86.0015 18.4867 85.7982 18.9567 85.6182 19.49V19.5L84.9682 25H83.2082L83.9682 18.55C84.0682 17.7567 84.0549 17.1667 83.9282 16.78C83.8015 16.3933 83.4882 16.2 82.9882 16.2C82.6682 16.2 82.3582 16.28 82.0582 16.44C81.7649 16.6 81.4849 16.8333 81.2182 17.14C80.9582 17.44 80.7149 17.81 80.4882 18.25C80.2615 18.6833 80.0549 19.1733 79.8682 19.72L79.2382 25H77.4982ZM100.18 16.11C100.034 16.0767 99.8871 16.0567 99.7404 16.05C99.6004 16.0367 99.4604 16.03 99.3204 16.03C98.9204 16.03 98.5337 16.0967 98.1604 16.23C97.7871 16.3567 97.4371 16.5367 97.1104 16.77C96.7837 17.0033 96.4871 17.2833 96.2204 17.61C95.9537 17.93 95.7237 18.2833 95.5304 18.67C95.3437 19.0567 95.1971 19.47 95.0904 19.91C94.9837 20.3433 94.9304 20.79 94.9304 21.25C94.9304 22.8567 95.4437 23.66 96.4704 23.66C96.7971 23.66 97.1171 23.56 97.4304 23.36C97.7437 23.1533 98.0404 22.87 98.3204 22.51C98.6071 22.1433 98.8704 21.7133 99.1104 21.22C99.3504 20.72 99.5637 20.1733 99.7504 19.58L100.18 16.11ZM99.5004 22.33C99.2604 22.7567 99.0004 23.1433 98.7204 23.49C98.4471 23.8367 98.1537 24.1333 97.8404 24.38C97.5337 24.62 97.2071 24.8067 96.8604 24.94C96.5204 25.0733 96.1671 25.14 95.8004 25.14C95.4004 25.14 95.0371 25.0633 94.7104 24.91C94.3837 24.75 94.1037 24.52 93.8704 24.22C93.6437 23.9133 93.4671 23.54 93.3404 23.1C93.2137 22.6533 93.1504 22.1433 93.1504 21.57C93.1504 20.97 93.2237 20.3867 93.3704 19.82C93.5237 19.2467 93.7371 18.7067 94.0104 18.2C94.2904 17.6933 94.6237 17.23 95.0104 16.81C95.3971 16.3833 95.8271 16.0167 96.3004 15.71C96.7804 15.3967 97.2937 15.1567 97.8404 14.99C98.3871 14.8167 98.9604 14.73 99.5604 14.73C99.9937 14.73 100.414 14.7667 100.82 14.84C101.234 14.9067 101.64 15.0267 102.04 15.2L100.83 25H99.9104C99.6771 25 99.5171 24.94 99.4304 24.82C99.3504 24.7 99.3104 24.5533 99.3104 24.38L99.5004 22.33ZM106.005 17.43C106.545 16.5367 107.155 15.8633 107.835 15.41C108.515 14.95 109.215 14.72 109.935 14.72C110.362 14.72 110.735 14.8067 111.055 14.98C111.382 15.1467 111.645 15.3933 111.845 15.72C112.052 16.0467 112.192 16.45 112.265 16.93C112.339 17.4033 112.339 17.9433 112.265 18.55L111.505 25H109.735L110.495 18.55C110.589 17.75 110.539 17.16 110.345 16.78C110.152 16.3933 109.795 16.2 109.275 16.2C108.955 16.2 108.629 16.2867 108.295 16.46C107.969 16.6333 107.652 16.88 107.345 17.2C107.039 17.52 106.752 17.9067 106.485 18.36C106.225 18.8067 106.002 19.3067 105.815 19.86L105.235 25H103.455L104.675 14.86H105.555C105.955 14.86 106.155 15.06 106.155 15.46L106.005 17.43ZM126.338 23.18C125.992 23.56 125.662 23.8767 125.348 24.13C125.035 24.3833 124.722 24.5867 124.408 24.74C124.095 24.8867 123.768 24.99 123.428 25.05C123.095 25.11 122.735 25.14 122.348 25.14C121.762 25.14 121.242 25.04 120.788 24.84C120.342 24.64 119.965 24.36 119.658 24C119.358 23.6333 119.128 23.1967 118.968 22.69C118.815 22.1767 118.738 21.6133 118.738 21C118.738 20.18 118.865 19.3933 119.118 18.64C119.378 17.8867 119.738 17.22 120.198 16.64C120.658 16.06 121.205 15.5967 121.838 15.25C122.478 14.9033 123.175 14.73 123.928 14.73C124.602 14.73 125.165 14.85 125.618 15.09C126.072 15.3233 126.468 15.6667 126.808 16.12L126.248 16.79C126.202 16.8433 126.148 16.8867 126.088 16.92C126.035 16.9533 125.972 16.97 125.898 16.97C125.805 16.97 125.712 16.93 125.618 16.85C125.532 16.7633 125.415 16.67 125.268 16.57C125.122 16.4633 124.938 16.37 124.718 16.29C124.505 16.2033 124.228 16.16 123.888 16.16C123.428 16.16 122.995 16.2867 122.588 16.54C122.182 16.7867 121.825 17.1267 121.518 17.56C121.212 17.9933 120.968 18.5067 120.788 19.1C120.615 19.6933 120.528 20.33 120.528 21.01C120.528 21.4233 120.575 21.8 120.668 22.14C120.762 22.4733 120.902 22.76 121.088 23C121.275 23.2333 121.502 23.4167 121.768 23.55C122.042 23.6767 122.358 23.74 122.718 23.74C123.165 23.74 123.538 23.6733 123.838 23.54C124.145 23.4067 124.402 23.2633 124.608 23.11C124.815 22.95 124.988 22.8033 125.128 22.67C125.275 22.5367 125.418 22.47 125.558 22.47C125.685 22.47 125.798 22.5267 125.898 22.64L126.338 23.18ZM131.575 23.75C132.062 23.75 132.502 23.6167 132.895 23.35C133.295 23.0833 133.635 22.73 133.915 22.29C134.202 21.8433 134.422 21.33 134.575 20.75C134.728 20.17 134.805 19.5633 134.805 18.93C134.805 17.9967 134.618 17.2967 134.245 16.83C133.878 16.3567 133.348 16.12 132.655 16.12C132.162 16.12 131.715 16.2533 131.315 16.52C130.922 16.78 130.585 17.13 130.305 17.57C130.025 18.01 129.808 18.52 129.655 19.1C129.502 19.68 129.425 20.2867 129.425 20.92C129.425 21.8533 129.608 22.56 129.975 23.04C130.342 23.5133 130.875 23.75 131.575 23.75ZM131.405 25.14C130.852 25.14 130.345 25.0467 129.885 24.86C129.425 24.6667 129.028 24.39 128.695 24.03C128.362 23.67 128.102 23.23 127.915 22.71C127.728 22.19 127.635 21.5967 127.635 20.93C127.635 20.0767 127.768 19.2733 128.035 18.52C128.302 17.7667 128.668 17.11 129.135 16.55C129.602 15.9833 130.148 15.5367 130.775 15.21C131.408 14.8833 132.088 14.72 132.815 14.72C133.368 14.72 133.875 14.8167 134.335 15.01C134.795 15.1967 135.192 15.47 135.525 15.83C135.858 16.19 136.118 16.63 136.305 17.15C136.492 17.67 136.585 18.26 136.585 18.92C136.585 19.7667 136.452 20.5667 136.185 21.32C135.918 22.0733 135.552 22.7333 135.085 23.3C134.625 23.8667 134.078 24.3167 133.445 24.65C132.812 24.9767 132.132 25.14 131.405 25.14ZM140.556 17.43C141.096 16.5367 141.706 15.8633 142.386 15.41C143.066 14.95 143.766 14.72 144.486 14.72C144.913 14.72 145.286 14.8067 145.606 14.98C145.933 15.1467 146.196 15.3933 146.396 15.72C146.603 16.0467 146.743 16.45 146.816 16.93C146.889 17.4033 146.889 17.9433 146.816 18.55L146.056 25H144.286L145.046 18.55C145.139 17.75 145.089 17.16 144.896 16.78C144.703 16.3933 144.346 16.2 143.826 16.2C143.506 16.2 143.179 16.2867 142.846 16.46C142.519 16.6333 142.203 16.88 141.896 17.2C141.589 17.52 141.303 17.9067 141.036 18.36C140.776 18.8067 140.553 19.3067 140.366 19.86L139.786 25H138.006L139.226 14.86H140.106C140.506 14.86 140.706 15.06 140.706 15.46L140.556 17.43ZM149.294 23.09C149.294 23.05 149.294 23 149.294 22.94C149.294 22.8733 149.298 22.78 149.304 22.66C149.318 22.54 149.334 22.3833 149.354 22.19C149.381 21.9967 149.414 21.7433 149.454 21.43L150.074 16.36H148.944C148.851 16.36 148.774 16.33 148.714 16.27C148.661 16.2033 148.641 16.1033 148.654 15.97L148.734 15.26L150.294 15.05L151.054 11.92C151.088 11.82 151.138 11.74 151.204 11.68C151.278 11.6133 151.368 11.58 151.474 11.58H152.404L151.974 15.07H154.634L154.484 16.36H151.814L151.204 21.34C151.171 21.6133 151.144 21.8333 151.124 22C151.104 22.1667 151.088 22.3 151.074 22.4C151.068 22.5 151.061 22.57 151.054 22.61C151.054 22.65 151.054 22.68 151.054 22.7C151.054 23.04 151.134 23.2933 151.294 23.46C151.454 23.62 151.668 23.7 151.934 23.7C152.114 23.7 152.268 23.6767 152.394 23.63C152.528 23.5767 152.644 23.52 152.744 23.46C152.844 23.4 152.928 23.3467 152.994 23.3C153.061 23.2467 153.118 23.22 153.164 23.22C153.224 23.22 153.268 23.2333 153.294 23.26C153.328 23.2867 153.358 23.33 153.384 23.39L153.764 24.24C153.438 24.5267 153.064 24.7533 152.644 24.92C152.231 25.08 151.814 25.16 151.394 25.16C150.748 25.16 150.238 24.9833 149.864 24.63C149.498 24.2767 149.308 23.7633 149.294 23.09ZM162.329 16.11C162.182 16.0767 162.035 16.0567 161.889 16.05C161.749 16.0367 161.609 16.03 161.469 16.03C161.069 16.03 160.682 16.0967 160.309 16.23C159.935 16.3567 159.585 16.5367 159.259 16.77C158.932 17.0033 158.635 17.2833 158.369 17.61C158.102 17.93 157.872 18.2833 157.679 18.67C157.492 19.0567 157.345 19.47 157.239 19.91C157.132 20.3433 157.079 20.79 157.079 21.25C157.079 22.8567 157.592 23.66 158.619 23.66C158.945 23.66 159.265 23.56 159.579 23.36C159.892 23.1533 160.189 22.87 160.469 22.51C160.755 22.1433 161.019 21.7133 161.259 21.22C161.499 20.72 161.712 20.1733 161.899 19.58L162.329 16.11ZM161.649 22.33C161.409 22.7567 161.149 23.1433 160.869 23.49C160.595 23.8367 160.302 24.1333 159.989 24.38C159.682 24.62 159.355 24.8067 159.009 24.94C158.669 25.0733 158.315 25.14 157.949 25.14C157.549 25.14 157.185 25.0633 156.859 24.91C156.532 24.75 156.252 24.52 156.019 24.22C155.792 23.9133 155.615 23.54 155.489 23.1C155.362 22.6533 155.299 22.1433 155.299 21.57C155.299 20.97 155.372 20.3867 155.519 19.82C155.672 19.2467 155.885 18.7067 156.159 18.2C156.439 17.6933 156.772 17.23 157.159 16.81C157.545 16.3833 157.975 16.0167 158.449 15.71C158.929 15.3967 159.442 15.1567 159.989 14.99C160.535 14.8167 161.109 14.73 161.709 14.73C162.142 14.73 162.562 14.7667 162.969 14.84C163.382 14.9067 163.789 15.0267 164.189 15.2L162.979 25H162.059C161.825 25 161.665 24.94 161.579 24.82C161.499 24.7 161.459 24.5533 161.459 24.38L161.649 22.33ZM173.194 23.18C172.847 23.56 172.517 23.8767 172.204 24.13C171.89 24.3833 171.577 24.5867 171.264 24.74C170.95 24.8867 170.624 24.99 170.284 25.05C169.95 25.11 169.59 25.14 169.204 25.14C168.617 25.14 168.097 25.04 167.644 24.84C167.197 24.64 166.82 24.36 166.514 24C166.214 23.6333 165.984 23.1967 165.824 22.69C165.67 22.1767 165.594 21.6133 165.594 21C165.594 20.18 165.72 19.3933 165.974 18.64C166.234 17.8867 166.594 17.22 167.054 16.64C167.514 16.06 168.06 15.5967 168.694 15.25C169.334 14.9033 170.03 14.73 170.784 14.73C171.457 14.73 172.02 14.85 172.474 15.09C172.927 15.3233 173.324 15.6667 173.664 16.12L173.104 16.79C173.057 16.8433 173.004 16.8867 172.944 16.92C172.89 16.9533 172.827 16.97 172.754 16.97C172.66 16.97 172.567 16.93 172.474 16.85C172.387 16.7633 172.27 16.67 172.124 16.57C171.977 16.4633 171.794 16.37 171.574 16.29C171.36 16.2033 171.084 16.16 170.744 16.16C170.284 16.16 169.85 16.2867 169.444 16.54C169.037 16.7867 168.68 17.1267 168.374 17.56C168.067 17.9933 167.824 18.5067 167.644 19.1C167.47 19.6933 167.384 20.33 167.384 21.01C167.384 21.4233 167.43 21.8 167.524 22.14C167.617 22.4733 167.757 22.76 167.944 23C168.13 23.2333 168.357 23.4167 168.624 23.55C168.897 23.6767 169.214 23.74 169.574 23.74C170.02 23.74 170.394 23.6733 170.694 23.54C171 23.4067 171.257 23.2633 171.464 23.11C171.67 22.95 171.844 22.8033 171.984 22.67C172.13 22.5367 172.274 22.47 172.414 22.47C172.54 22.47 172.654 22.5267 172.754 22.64L173.194 23.18ZM175.486 23.09C175.486 23.05 175.486 23 175.486 22.94C175.486 22.8733 175.489 22.78 175.496 22.66C175.509 22.54 175.526 22.3833 175.546 22.19C175.572 21.9967 175.606 21.7433 175.646 21.43L176.266 16.36H175.136C175.042 16.36 174.966 16.33 174.906 16.27C174.852 16.2033 174.832 16.1033 174.846 15.97L174.926 15.26L176.486 15.05L177.246 11.92C177.279 11.82 177.329 11.74 177.396 11.68C177.469 11.6133 177.559 11.58 177.666 11.58H178.596L178.166 15.07H180.826L180.676 16.36H178.006L177.396 21.34C177.362 21.6133 177.336 21.8333 177.316 22C177.296 22.1667 177.279 22.3 177.266 22.4C177.259 22.5 177.252 22.57 177.246 22.61C177.246 22.65 177.246 22.68 177.246 22.7C177.246 23.04 177.326 23.2933 177.486 23.46C177.646 23.62 177.859 23.7 178.126 23.7C178.306 23.7 178.459 23.6767 178.586 23.63C178.719 23.5767 178.836 23.52 178.936 23.46C179.036 23.4 179.119 23.3467 179.186 23.3C179.252 23.2467 179.309 23.22 179.356 23.22C179.416 23.22 179.459 23.2333 179.486 23.26C179.519 23.2867 179.549 23.33 179.576 23.39L179.956 24.24C179.629 24.5267 179.256 24.7533 178.836 24.92C178.422 25.08 178.006 25.16 177.586 25.16C176.939 25.16 176.429 24.9833 176.056 24.63C175.689 24.2767 175.499 23.7633 175.486 23.09Z" fill="white"/>
<path d="M157 104L28 232" stroke="#FECE00" stroke-width="6"/>
</g>
<defs>
<clipPath id="clip0">
<rect width="181" height="254" fill="white"/>
</clipPath>
</defs>
</svg>
