<svg width="30" height="26" viewBox="0 0 30 26" fill="none" xmlns="http://www.w3.org/2000/svg">
<path d="M29.3182 12H0.681818C0.30526 12 0 12.3358 0 12.75V14.25C0 14.6642 0.30526 15 0.681818 15H29.3182C29.6947 15 30 14.6642 30 14.25V12.75C30 12.3358 29.6947 12 29.3182 12Z" fill="#FFFEFE"/>
<path d="M14.3182 23H0.681818C0.30526 23 0 23.3358 0 23.75V25.25C0 25.6642 0.30526 26 0.681818 26H14.3182C14.6947 26 15 25.6642 15 25.25V23.75C15 23.3358 14.6947 23 14.3182 23Z" fill="#FFFEFE"/>
<path d="M29.3182 0H15.6818C15.3053 0 15 0.335786 15 0.75V2.25C15 2.66421 15.3053 3 15.6818 3H29.3182C29.6947 3 30 2.66421 30 2.25V0.75C30 0.335786 29.6947 0 29.3182 0Z" fill="#FFFEFE"/>
</svg>
